<svg xmlns="http://www.w3.org/2000/svg" viewBox="0 0 480 360.5"><defs><style>.cls-1{fill:#021923;}.cls-2,.cls-7{fill:#fff;}.cls-3,.cls-7{opacity:0.05;}.cls-4{fill:aqua;opacity:0.3;}.cls-5{fill:#0092ff;}.cls-6{fill:#5fd800;}.cls-8{fill:#00edff;opacity:0.2;}</style></defs><title>ESPACIO</title><g id="FONDO"><rect class="cls-1" width="480" height="360"/></g><g id="CONT"><path class="cls-2" d="M89,56.82a1.5,1.5,0,0,0,0-3,1.5,1.5,0,0,0,0,3Z"/><path class="cls-2" d="M120.76,96.35a1.5,1.5,0,0,0,0-3,1.5,1.5,0,0,0,0,3Z"/><path class="cls-2" d="M144.76,183.88a1.5,1.5,0,0,0,0-3,1.5,1.5,0,0,0,0,3Z"/><path class="cls-2" d="M372.06,77.29a1.5,1.5,0,0,0,0-3,1.5,1.5,0,0,0,0,3Z"/><path class="cls-2" d="M359.35,222a1.5,1.5,0,0,0,0-3,1.5,1.5,0,0,0,0,3Z"/><path class="cls-2" d="M301.47,94.94a1.5,1.5,0,0,0,0-3,1.5,1.5,0,0,0,0,3Z"/><path class="cls-2" d="M219.59,51.18a1.5,1.5,0,0,0,0-3,1.5,1.5,0,0,0,0,3Z"/><path class="cls-2" d="M243.59,182.47a1.5,1.5,0,0,0,0-3,1.5,1.5,0,0,0,0,3Z"/><path class="cls-2" d="M49.47,236.82a1.5,1.5,0,0,0,0-3,1.5,1.5,0,0,0,0,3Z"/><path class="cls-2" d="M194.18,265.76a1.5,1.5,0,0,0,0-3,1.5,1.5,0,0,0,0,3Z"/><path class="cls-2" d="M446.88,193.06a1.5,1.5,0,0,0,0-3,1.5,1.5,0,0,0,0,3Z"/><path class="cls-2" d="M477.35,66a1.5,1.5,0,0,0,0-3,1.5,1.5,0,0,0,0,3Z"/><path class="cls-2" d="M436.29,31.41a1.5,1.5,0,0,0,0-3,1.5,1.5,0,0,0,0,3Z"/><path class="cls-2" d="M393.24,312.35a1.5,1.5,0,0,0,0-3,1.5,1.5,0,0,0,0,3Z"/><path class="cls-2" d="M268.29,325.06a1.5,1.5,0,0,0,0-3,1.5,1.5,0,0,0,0,3Z"/><path class="cls-2" d="M79.12,317.29a1.5,1.5,0,0,0,0-3,1.5,1.5,0,0,0,0,3Z"/><path class="cls-2" d="M28.29,134.47a1.5,1.5,0,0,0,0-3,1.5,1.5,0,0,0,0,3Z"/><path class="cls-2" d="M11.35,12.35a1.5,1.5,0,0,0,0-3,1.5,1.5,0,0,0,0,3Z"/><path class="cls-2" d="M290.88,10.94a1.5,1.5,0,0,0,0-3,1.5,1.5,0,0,0,0,3Z"/><path class="cls-2" d="M161.71,7.41a1.5,1.5,0,0,0,0-3,1.5,1.5,0,0,0,0,3Z"/><path class="cls-2" d="M349.47,34.19a.75.75,0,0,0,0-1.5.75.75,0,0,0,0,1.5Z"/><path class="cls-2" d="M404.53,151.37a.75.75,0,0,0,0-1.5.75.75,0,0,0,0,1.5Z"/><path class="cls-2" d="M236.53,122.43a.75.75,0,0,0,0-1.5.75.75,0,0,0,0,1.5Z"/><path class="cls-2" d="M130.65,37.72a.75.75,0,0,0,0-1.5.75.75,0,0,0,0,1.5Z"/><path class="cls-2" d="M45.94,70.9a.75.75,0,0,0,0-1.5.75.75,0,0,0,0,1.5Z"/><path class="cls-2" d="M127.12,166.9a.75.75,0,0,0,0-1.5.75.75,0,0,0,0,1.5Z"/><path class="cls-2" d="M77.71,252.31a.75.75,0,0,0,0-1.5.75.75,0,0,0,0,1.5Z"/><path class="cls-2" d="M43.12,190.19a.75.75,0,0,0,0-1.5.75.75,0,0,0,0,1.5Z"/><path class="cls-2" d="M168.76,98.43a.75.75,0,0,0,0-1.5.75.75,0,0,0,0,1.5Z"/><path class="cls-2" d="M233,161.25a.75.75,0,0,0,0-1.5.75.75,0,0,0,0,1.5Z"/><path class="cls-2" d="M254.18,131.6a.75.75,0,0,0,0-1.5.75.75,0,0,0,0,1.5Z"/><path class="cls-2" d="M270.41,178.9a.75.75,0,0,0,0-1.5.75.75,0,0,0,0,1.5Z"/><path class="cls-2" d="M247.82,291.13a.75.75,0,0,0,0-1.5.75.75,0,0,0,0,1.5Z"/><path class="cls-2" d="M209,291.84a.75.75,0,0,0,0-1.5.75.75,0,0,0,0,1.5Z"/><path class="cls-2" d="M202.65,326.43a.75.75,0,0,0,0-1.5.75.75,0,0,0,0,1.5Z"/><path class="cls-2" d="M382.65,339.13a.75.75,0,0,0,0-1.5.75.75,0,0,0,0,1.5Z"/><path class="cls-2" d="M460.29,345.49a.75.75,0,0,0,0-1.5.75.75,0,0,0,0,1.5Z"/><path class="cls-2" d="M456.76,236.07a.75.75,0,0,0,0-1.5.75.75,0,0,0,0,1.5Z"/><path class="cls-2" d="M456.06,130.19a.75.75,0,0,0,0-1.5.75.75,0,0,0,0,1.5Z"/><path class="cls-2" d="M332.53,147.84a.75.75,0,0,0,0-1.5.75.75,0,0,0,0,1.5Z"/><path class="cls-2" d="M301.47,271.37a.75.75,0,0,0,0-1.5.75.75,0,0,0,0,1.5Z"/><path class="cls-2" d="M205.47,216.31a.75.75,0,0,0,0-1.5.75.75,0,0,0,0,1.5Z"/><path class="cls-2" d="M144.76,294.66a.75.75,0,0,0,0-1.5.75.75,0,0,0,0,1.5Z"/><path class="cls-2" d="M63.59,351.13a.75.75,0,0,0,0-1.5.75.75,0,0,0,0,1.5Z"/><path class="cls-2" d="M20.53,282.66a.75.75,0,0,0,0-1.5.75.75,0,0,0,0,1.5Z"/><path class="cls-2" d="M270.41,61a.75.75,0,0,0,0-1.5.75.75,0,0,0,0,1.5Z"/><path class="cls-2" d="M381.24,15.13a.75.75,0,0,0,0-1.5.75.75,0,0,0,0,1.5Z"/><path class="cls-2" d="M426.41,101.25a.75.75,0,0,0,0-1.5.75.75,0,0,0,0,1.5Z"/><path class="cls-2" d="M439.82,93.49a.75.75,0,0,0,0-1.5.75.75,0,0,0,0,1.5Z"/><path class="cls-2" d="M430.65,126a.75.75,0,0,0,0-1.5.75.75,0,0,0,0,1.5Z"/><path class="cls-2" d="M266.88,151.37a.75.75,0,0,0,0-1.5.75.75,0,0,0,0,1.5Z"/><path class="cls-2" d="M274.65,120.31a.75.75,0,0,0,0-1.5.75.75,0,0,0,0,1.5Z"/><path class="cls-2" d="M252.76,114a.75.75,0,0,0,0-1.5.75.75,0,0,0,0,1.5Z"/><path class="cls-2" d="M180.06,88.54a.75.75,0,0,0,0-1.5.75.75,0,0,0,0,1.5Z"/><path class="cls-2" d="M141.94,78.66a.75.75,0,0,0,0-1.5.75.75,0,0,0,0,1.5Z"/><path class="cls-2" d="M115.82,79.37a.75.75,0,0,0,0-1.5.75.75,0,0,0,0,1.5Z"/><path class="cls-2" d="M101,106.19a.75.75,0,0,0,0-1.5.75.75,0,0,0,0,1.5Z"/><path class="cls-2" d="M81.94,38.43a.75.75,0,0,0,0-1.5.75.75,0,0,0,0,1.5Z"/><path class="cls-2" d="M23.35,23.6a.75.75,0,0,0,0-1.5.75.75,0,0,0,0,1.5Z"/><path class="cls-2" d="M10.65,49a.75.75,0,0,0,0-1.5.75.75,0,0,0,0,1.5Z"/><path class="cls-2" d="M134.88,217a.75.75,0,0,0,0-1.5.75.75,0,0,0,0,1.5Z"/><path class="cls-2" d="M245,205a.75.75,0,0,0,0-1.5.75.75,0,0,0,0,1.5Z"/><path class="cls-2" d="M205.47,225.49a.75.75,0,0,0,0-1.5.75.75,0,0,0,0,1.5Z"/><path class="cls-2" d="M211.82,255.13a.75.75,0,0,0,0-1.5.75.75,0,0,0,0,1.5Z"/><path class="cls-2" d="M210.41,268.54a.75.75,0,0,0,0-1.5.75.75,0,0,0,0,1.5Z"/><path class="cls-2" d="M223.12,300.31a.75.75,0,0,0,0-1.5.75.75,0,0,0,0,1.5Z"/><path class="cls-2" d="M220.29,345.49a.75.75,0,0,0,0-1.5.75.75,0,0,0,0,1.5Z"/><path class="cls-2" d="M298.65,334.19a.75.75,0,0,0,0-1.5.75.75,0,0,0,0,1.5Z"/><path class="cls-2" d="M436.29,303.13a.75.75,0,0,0,0-1.5.75.75,0,0,0,0,1.5Z"/><path class="cls-2" d="M372.06,254.43a.75.75,0,0,0,0-1.5.75.75,0,0,0,0,1.5Z"/><path class="cls-2" d="M456.76,277.72a.75.75,0,0,0,0-1.5.75.75,0,0,0,0,1.5Z"/><path class="cls-2" d="M125.71,347.6a.75.75,0,0,0,0-1.5.75.75,0,0,0,0,1.5Z"/><path class="cls-2" d="M10.24,326.9a.75.75,0,0,0,0-1.5.75.75,0,0,0,0,1.5Z"/><path class="cls-2" d="M18.41,350.43a.75.75,0,0,0,0-1.5.75.75,0,0,0,0,1.5Z"/><path class="cls-2" d="M38.88,308.07a.75.75,0,0,0,0-1.5.75.75,0,0,0,0,1.5Z"/><path class="cls-2" d="M11.35,196.54a.75.75,0,0,0,0-1.5.75.75,0,0,0,0,1.5Z"/><path class="cls-2" d="M346.65,63.84a.75.75,0,0,0,0-1.5.75.75,0,0,0,0,1.5Z"/><path class="cls-2" d="M468.06,12.31a.75.75,0,0,0,0-1.5.75.75,0,0,0,0,1.5Z"/><path class="cls-2" d="M419.35,10.19a.75.75,0,0,0,0-1.5.75.75,0,0,0,0,1.5Z"/><path class="cls-2" d="M404.53,104.78a.75.75,0,0,0,0-1.5.75.75,0,0,0,0,1.5Z"/><path class="cls-2" d="M154.65,170.76a.38.38,0,0,0,0-.75.38.38,0,0,0,0,.75Z"/><path class="cls-2" d="M163.82,199.7a.38.38,0,0,0,0-.75.38.38,0,0,0,0,.75Z"/><path class="cls-2" d="M258.41,233.58a.38.38,0,0,0,0-.75.38.38,0,0,0,0,.75Z"/><path class="cls-2" d="M257,166.52a.38.38,0,0,0,0-.75.38.38,0,0,0,0,.75Z"/><path class="cls-2" d="M293,148.17a.38.38,0,0,0,0-.75.38.38,0,0,0,0,.75Z"/><path class="cls-2" d="M267.59,131.23a.38.38,0,0,0,0-.75.38.38,0,0,0,0,.75Z"/><path class="cls-2" d="M380.53,275.23a.38.38,0,0,0,0-.75.38.38,0,0,0,0,.75Z"/><path class="cls-2" d="M378.41,225.82a.38.38,0,0,0,0-.75.38.38,0,0,0,0,.75Z"/><path class="cls-2" d="M369.24,212.4a.38.38,0,0,0,0-.75.38.38,0,0,0,0,.75Z"/><path class="cls-2" d="M361.47,201.82a.38.38,0,0,0,0-.75.38.38,0,0,0,0,.75Z"/><path class="cls-2" d="M354.79,247.51l2.12,4.24c.22.43.86.05.65-.38l-2.12-4.24c-.21-.43-.86,0-.65.38Z"/><path class="cls-2" d="M273.24,299.23a.38.38,0,0,0,0-.75.38.38,0,0,0,0,.75Z"/><path class="cls-2" d="M252.06,301.35a.38.38,0,0,0,0-.75.38.38,0,0,0,0,.75Z"/><path class="cls-2" d="M224.53,283.7a.38.38,0,0,0,0-.75.38.38,0,0,0,0,.75Z"/><path class="cls-2" d="M212.53,280.17a.38.38,0,0,0,0-.75.38.38,0,0,0,0,.75Z"/><path class="cls-2" d="M196.29,271.7a.38.38,0,0,0,0-.75.38.38,0,0,0,0,.75Z"/><path class="cls-2" d="M204.76,247a.38.38,0,0,0,0-.75.38.38,0,0,0,0,.75Z"/><path class="cls-2" d="M294.41,175a.38.38,0,0,0,0-.75.38.38,0,0,0,0,.75Z"/><path class="cls-2" d="M384.06,93.11a.38.38,0,0,0,0-.75.38.38,0,0,0,0,.75Z"/><path class="cls-2" d="M401,44.4a.38.38,0,0,0,0-.75.38.38,0,0,0,0,.75Z"/><path class="cls-2" d="M452.53,67.7a.38.38,0,0,0,0-.75.38.38,0,0,0,0,.75Z"/><path class="cls-2" d="M460.29,160.17a.38.38,0,0,0,0-.75.38.38,0,0,0,0,.75Z"/><path class="cls-2" d="M422.88,218.76a.38.38,0,0,0,0-.75.38.38,0,0,0,0,.75Z"/><path class="cls-2" d="M457.47,213.11a.38.38,0,0,0,0-.75.38.38,0,0,0,0,.75Z"/><path class="cls-2" d="M175.12,160.88a.38.38,0,0,0,0-.75.38.38,0,0,0,0,.75Z"/><path class="cls-2" d="M157.47,125.58a.38.38,0,0,0,0-.75.38.38,0,0,0,0,.75Z"/><path class="cls-2" d="M72.06,124.88a.38.38,0,0,0,0-.75.38.38,0,0,0,0,.75Z"/><path class="cls-2" d="M31.12,101.58a.38.38,0,0,0,0-.75.38.38,0,0,0,0,.75Z"/><path class="cls-2" d="M67.12,24.64a.38.38,0,0,0,0-.75.38.38,0,0,0,0,.75Z"/><path class="cls-2" d="M94.65,15.46a.38.38,0,0,0,0-.75.38.38,0,0,0,0,.75Z"/><path class="cls-2" d="M15.59,223.7a.38.38,0,0,0,0-.75.38.38,0,0,0,0,.75Z"/><path class="cls-2" d="M107.35,290.05a.38.38,0,0,0,0-.75.38.38,0,0,0,0,.75Z"/><path class="cls-2" d="M119.35,241.35a.38.38,0,0,0,0-.75.38.38,0,0,0,0,.75Z"/><path class="cls-2" d="M81.94,194.76a.38.38,0,0,0,0-.75.38.38,0,0,0,0,.75Z"/><path class="cls-2" d="M82.65,158.76a.38.38,0,0,0,0-.75.38.38,0,0,0,0,.75Z"/><path class="cls-2" d="M312.76,223a.38.38,0,0,0,0-.75.38.38,0,0,0,0,.75Z"/><path class="cls-2" d="M272.53,260.4a.38.38,0,0,0,0-.75.38.38,0,0,0,0,.75Z"/><path class="cls-2" d="M328.29,191.23a.38.38,0,0,0,0-.75.38.38,0,0,0,0,.75Z"/><path class="cls-2" d="M265.47,81.11a.38.38,0,0,0,0-.75.38.38,0,0,0,0,.75Z"/><path class="cls-2" d="M229.47,84.64a.38.38,0,0,0,0-.75.38.38,0,0,0,0,.75Z"/><path class="cls-2" d="M43.12,21.11a.38.38,0,0,0,0-.75.38.38,0,0,0,0,.75Z"/><path class="cls-2" d="M49.47,2.05a.38.38,0,0,0,0-.75.38.38,0,0,0,0,.75Z"/><path class="cls-2" d="M316.29,283.7a.38.38,0,0,0,0-.75.38.38,0,0,0,0,.75Z"/><path class="cls-2" d="M344.53,330.29a.38.38,0,0,0,0-.75.38.38,0,0,0,0,.75Z"/><path class="cls-2" d="M127.12,260.4a.38.38,0,0,0,0-.75.38.38,0,0,0,0,.75Z"/><path class="cls-2" d="M61.47,278.76a.38.38,0,0,0,0-.75.38.38,0,0,0,0,.75Z"/><path class="cls-2" d="M166.65,343.7a.38.38,0,0,0,0-.75.38.38,0,0,0,0,.75Z"/><path class="cls-2" d="M289.47,345.82a.38.38,0,0,0,0-.75.38.38,0,0,0,0,.75Z"/><path class="cls-2" d="M437,325.35a.38.38,0,0,0,0-.75.38.38,0,0,0,0,.75Z"/><path class="cls-2" d="M458.18,302.05a.38.38,0,0,0,0-.75.38.38,0,0,0,0,.75Z"/><path class="cls-2" d="M468.76,264.64a.38.38,0,0,0,0-.75.38.38,0,0,0,0,.75Z"/><path class="cls-2" d="M472.29,181.35a.38.38,0,0,0,0-.75.38.38,0,0,0,0,.75Z"/><path class="cls-2" d="M464.53,85.35a.38.38,0,0,0,0-.75.38.38,0,0,0,0,.75Z"/><path class="cls-2" d="M429.24,41.58a.38.38,0,0,0,0-.75.38.38,0,0,0,0,.75Z"/><path class="cls-2" d="M257,21.11a.38.38,0,0,0,0-.75.38.38,0,0,0,0,.75Z"/><path class="cls-2" d="M189.24,27.46a.38.38,0,0,0,0-.75.38.38,0,0,0,0,.75Z"/><path class="cls-2" d="M161,51.46a.38.38,0,0,0,0-.75.38.38,0,0,0,0,.75Z"/><path class="cls-2" d="M132.06,102.29a.38.38,0,0,0,0-.75.38.38,0,0,0,0,.75Z"/><path class="cls-2" d="M128.53,82.52a.38.38,0,0,0,0-.75.38.38,0,0,0,0,.75Z"/><path class="cls-2" d="M106.65,193.35a.38.38,0,0,0,0-.75.38.38,0,0,0,0,.75Z"/><g class="cls-3"><path class="cls-2" d="M209,79.41a1.5,1.5,0,0,0,0-3,1.5,1.5,0,0,0,0,3Z"/></g><g class="cls-3"><path class="cls-2" d="M201.94,144.35a1.5,1.5,0,0,0,0-3,1.5,1.5,0,0,0,0,3Z"/></g><g class="cls-3"><path class="cls-2" d="M66.41,48.35a1.5,1.5,0,0,0,0-3,1.5,1.5,0,0,0,0,3Z"/></g><g class="cls-3"><path class="cls-2" d="M33.47,41.76a1.5,1.5,0,0,0,0-3,1.5,1.5,0,0,0,0,3Z"/></g><g class="cls-3"><path class="cls-2" d="M325.24,62.47a1.5,1.5,0,0,0,0-3,1.5,1.5,0,0,0,0,3Z"/></g><g class="cls-3"><path class="cls-2" d="M396.76,21.06a1.5,1.5,0,0,0,0-3,1.5,1.5,0,0,0,0,3Z"/></g><g class="cls-3"><path class="cls-2" d="M437.24,226.71a1.5,1.5,0,0,0,0-3,1.5,1.5,0,0,0,0,3Z"/></g><g class="cls-3"><path class="cls-2" d="M422.65,287.88a1.5,1.5,0,0,0,0-3,1.5,1.5,0,0,0,0,3Z"/></g><g class="cls-3"><path class="cls-2" d="M190.18,308.12a1.5,1.5,0,0,0,0-3,1.5,1.5,0,0,0,0,3Z"/></g><g class="cls-3"><path class="cls-2" d="M79.12,244.12a1.5,1.5,0,0,0,0-3,1.5,1.5,0,0,0,0,3Z"/></g><g class="cls-3"><path class="cls-2" d="M17.94,252.59a1.5,1.5,0,0,0,0-3,1.5,1.5,0,0,0,0,3Z"/></g><g class="cls-3"><path class="cls-2" d="M107.82,343.88a1.5,1.5,0,0,0,0-3,1.5,1.5,0,0,0,0,3Z"/></g><g class="cls-3"><path class="cls-2" d="M170.88,112.82a1.5,1.5,0,0,0,0-3,1.5,1.5,0,0,0,0,3Z"/></g><g class="cls-3"><path class="cls-2" d="M140.29,70.94a1.5,1.5,0,0,0,0-3,1.5,1.5,0,0,0,0,3Z"/></g><g class="cls-3"><path class="cls-2" d="M325.71,16.82a1.5,1.5,0,0,0,0-3,1.5,1.5,0,0,0,0,3Z"/></g><g class="cls-3"><path class="cls-2" d="M464.06,122.71a1.5,1.5,0,0,0,0-3,1.5,1.5,0,0,0,0,3Z"/></g><g class="cls-3"><path class="cls-2" d="M98.88,130.71a1.5,1.5,0,0,0,0-3,1.5,1.5,0,0,0,0,3Z"/></g><path class="cls-2" d="M133.71,93.06a1.5,1.5,0,0,0,0-3,1.5,1.5,0,0,0,0,3Z"/><path class="cls-2" d="M262.18,189.62c3.86,0,3.86-6,0-6s-3.87,6,0,6Z"/><path class="cls-2" d="M93.24,185.38c3.86,0,3.86-6,0-6s-3.87,6,0,6Z"/><path class="cls-2" d="M314.88,328.44c3.86,0,3.87-6,0-6s-3.86,6,0,6Z"/><path class="cls-2" d="M420.76,109.15c3.87,0,3.87-6,0-6s-3.86,6,0,6Z"/><path class="cls-2" d="M131.82,72c3.86,0,3.87-6,0-6s-3.86,6,0,6Z"/><path class="cls-2" d="M232.06,34.32c3.86,0,3.87-6,0-6s-3.87,6,0,6Z"/><path class="cls-2" d="M361.32,128.08,361,130.5l-.14-2.17a3.81,3.81,0,0,0-3.32-3.51L355,124.5l2.3-.14a3.81,3.81,0,0,0,3.56-3.56l.14-2.3.32,2.54a3.81,3.81,0,0,0,3.51,3.32l2.17.14-2.42.32A3.82,3.82,0,0,0,361.32,128.08Z"/><path class="cls-2" d="M155.21,253.89,155,255.5l-.1-1.44a2.52,2.52,0,0,0-2.21-2.35L151,251.5l1.54-.1A2.52,2.52,0,0,0,154.9,249l.1-1.54.21,1.69a2.52,2.52,0,0,0,2.35,2.21l1.44.1-1.61.21A2.57,2.57,0,0,0,155.21,253.89Z"/><path class="cls-2" d="M33.21,222.89,33,224.5l-.1-1.44a2.52,2.52,0,0,0-2.21-2.35L29,220.5l1.54-.1A2.52,2.52,0,0,0,32.9,218l.1-1.54.21,1.69a2.52,2.52,0,0,0,2.35,2.21l1.44.1-1.61.21A2.57,2.57,0,0,0,33.21,222.89Z"/><path class="cls-2" d="M175.21,312.89,175,314.5l-.1-1.44a2.52,2.52,0,0,0-2.21-2.35L171,310.5l1.54-.1A2.52,2.52,0,0,0,174.9,308l.1-1.54.21,1.69a2.52,2.52,0,0,0,2.35,2.21l1.44.1-1.61.21A2.57,2.57,0,0,0,175.21,312.89Z"/><path class="cls-2" d="M67.21,80.89,67,82.5l-.1-1.44a2.52,2.52,0,0,0-2.21-2.35L63,78.5l1.54-.1A2.52,2.52,0,0,0,66.9,76L67,74.5l.21,1.69a2.52,2.52,0,0,0,2.35,2.21l1.44.1-1.61.21A2.57,2.57,0,0,0,67.21,80.89Z"/><path class="cls-2" d="M319.21,31.89,319,33.5l-.1-1.44a2.52,2.52,0,0,0-2.21-2.35L315,29.5l1.54-.1A2.52,2.52,0,0,0,318.9,27l.1-1.54.21,1.69a2.52,2.52,0,0,0,2.35,2.21l1.44.1-1.61.21A2.57,2.57,0,0,0,319.21,31.89Z"/><path class="cls-2" d="M414.21,242.89,414,244.5l-.1-1.44a2.52,2.52,0,0,0-2.21-2.35L410,240.5l1.54-.1A2.52,2.52,0,0,0,413.9,238l.1-1.54.21,1.69a2.52,2.52,0,0,0,2.35,2.21l1.44.1-1.61.21A2.57,2.57,0,0,0,414.21,242.89Z"/><path class="cls-2" d="M95.32,328.08,95,330.5l-.14-2.17a3.81,3.81,0,0,0-3.32-3.51L89,324.5l2.3-.14a3.81,3.81,0,0,0,3.56-3.56l.14-2.3.32,2.54a3.81,3.81,0,0,0,3.51,3.32l2.17.14-2.42.32A3.82,3.82,0,0,0,95.32,328.08Z"/><path class="cls-2" d="M105.32,165.08,105,167.5l-.14-2.17a3.81,3.81,0,0,0-3.32-3.51L99,161.5l2.3-.14a3.81,3.81,0,0,0,3.56-3.56l.14-2.3.32,2.54a3.81,3.81,0,0,0,3.51,3.32l2.17.14-2.42.32A3.82,3.82,0,0,0,105.32,165.08Z"/><path class="cls-2" d="M353.32,319.08,353,321.5l-.14-2.17a3.81,3.81,0,0,0-3.32-3.51L347,315.5l2.3-.14a3.81,3.81,0,0,0,3.56-3.56l.14-2.3.32,2.54a3.81,3.81,0,0,0,3.51,3.32l2.17.14-2.42.32A3.82,3.82,0,0,0,353.32,319.08Z"/><path class="cls-2" d="M171.32,29.08,171,31.5l-.14-2.17a3.81,3.81,0,0,0-3.32-3.51L165,25.5l2.3-.14a3.81,3.81,0,0,0,3.56-3.56l.14-2.3.32,2.54a3.81,3.81,0,0,0,3.51,3.32l2.17.14-2.42.32A3.82,3.82,0,0,0,171.32,29.08Z"/><circle class="cls-4" cx="52.5" cy="44" r="26.5"/><circle class="cls-5" cx="52.5" cy="44" r="19.72"/><path class="cls-6" d="M50.73,26.56s2.53,6.06-1,5.56-4,2-3.54,4-1.52,2-2,0,1-3-.51-3.54-2,1-2.53-.5-1,1.51-2,1-.92-2.68-.92-2.68,3.37-4.34,11-5.89C49.17,24.56,50.22,24.53,50.73,26.56Z"/><path class="cls-6" d="M38.48,57.87s2.64-.47,3.15,0,.5,1.52,1.52,1,1.51-1.52,2.52-.51,4.55,0,4.55-.51-1-3.53,1.52-2,2-2.53,4.55.51,2,2,3,2,2.52.51,2-1.52,1-1.51.5-2.52-2-2-1.51-3-.51-.5,0-2a6.38,6.38,0,0,1,2-3c1-1,1.52-1,.51-1s-1.52,1.52-2,1,1-1,1.52-1.52,1-1,1.52-.51.5-1,1-1,.5-2.53,2-2.53,3,0,3,.51,2-.51,2-.51a18.3,18.3,0,0,1-.62,9.17s-.88.95-1.39-.07-1.51-2-2-1.51,0,1.51-1,1.51-1.52-.5-2,0-2,.51-2,2.53,2,1.52,1,2,1,.5,0,1-1-.51-1.52,1-.51,2.53-1.52,2.53-3,1-2,2,.8,1.46.8,1.46a18.79,18.79,0,0,1-10.37,1.05A19.49,19.49,0,0,1,38.48,57.87Z"/></g><g id="Capa_3" data-name="Capa 3"><path class="cls-7" d="M71,.5s138,24,51,60-87,30-2,70,203,57,113,50-15,32,32,37,186,126,86,134-58,8-58,8H436s44-88-64-125,23-34-74-74-157-72-91-90,95-38,27-70Z"/><path class="cls-7" d="M100,.5s138,24,51,60-87,30-2,70,203,57,113,50-15,32,32,37,186,126,86,134-58,8-58,8H465s44-88-64-125,23-34-74-74-157-72-91-90,95-38,27-70Z"/><path class="cls-7" d="M352,78.5s19,30,48,0,46-56,53-47-1,11-6,29-6,61,9,89,28,55-14,35-36,33-51,3,6-61-39-68-38-97-19-69Z"/><path class="cls-7" d="M405.14,105.07c14.36-14.86,22.79-27.74,26.25-23.29s-.49,5.45-3,14.37-3,30.22,4.46,44.09,13.87,27.24-6.94,17.33-17.83,16.35-25.26,1.49S394,131.5,381,113.5C367.79,95.21,390.77,119.93,405.14,105.07Z"/><path class="cls-7" d="M110.17,170.69s-59.16-52-52.36-12.42,42.24,41.88,61.8,50.57,32.32,2.85,20.18-11S126.78,184.41,110.17,170.69Z"/><path class="cls-8" d="M0,272.5s68-55,161-15,129,77,202,21,117,2,117,2v79l-480,1Z"/><path class="cls-8" d="M0,301.21S23,252,55,284s38,44,84,14,86-35,147-10,115-6,149,6,45,7.21,45,7.21V359L0,360Z"/><path class="cls-8" d="M0,333.44S57,278.5,133,312.5s64-16,143,3,134,41,169,12,35-26,35-26v58H0Z"/><path class="cls-8" d="M0,348S95,316.5,158,336.5s177-35,237-12,85,11.76,85,11.76V359.5H0Z"/></g></svg>