<svg id="Capa_1" data-name="Capa 1" xmlns="http://www.w3.org/2000/svg" viewBox="0 0 143 56.93"><defs><style>.cls-1{fill:#fff;stroke:#999;}.cls-1,.cls-2,.cls-5{stroke-miterlimit:10;}.cls-1,.cls-2{stroke-width:3px;}.cls-2{fill:#ff8d8d;stroke:#ed1c24;}.cls-3{fill:#ffc2c9;}.cls-4{fill:#ed1c24;}.cls-5{fill:#666;stroke:#4d4d4d;stroke-width:4px;}</style></defs><title>LED ROJO</title><rect class="cls-1" x="1.5" y="17.57" width="89.19" height="5.31"/><rect class="cls-1" x="1.5" y="34.04" width="89.19" height="5.31"/><path class="cls-2" d="M89.65,1.5H115.5a26,26,0,0,1,26,26v1.93a26,26,0,0,1-26,26H89.65a0,0,0,0,1,0,0V1.5A0,0,0,0,1,89.65,1.5Z"/><path class="cls-3" d="M115.27,116.79H91.45l-1-29h24.85a14.52,14.52,0,0,1,14.51,14.52h0A14.51,14.51,0,0,1,115.27,116.79Z" transform="translate(-0.25 -73.81)"/><path class="cls-4" d="M115.27,116.79c-4,0-7.94,0-11.91.15s-7.94.22-11.91.36H91l0-.5-1.08-14.5q-.51-7.25-.89-14.5l-.08-1.48h1.52l8.81-.06,8.8.07,4.41.09a45.1,45.1,0,0,1,4.53.21,15.35,15.35,0,0,1,8.41,4,15.19,15.19,0,0,1,3.74,16.83A15,15,0,0,1,115.27,116.79Zm0,0a14.42,14.42,0,0,0,8.23-2.64,14.25,14.25,0,0,0,5.12-6.89,14,14,0,0,0,.17-8.42A13.73,13.73,0,0,0,124.18,92a13.52,13.52,0,0,0-7.47-3c-1.29-.08-2.81,0-4.27,0l-4.41.09-8.8.07-8.81-.06,1.43-1.48c.09,4.84.15,9.68.15,14.53l0,14.54-.51-.49c4,.14,7.94.29,11.91.36S111.3,116.75,115.27,116.79Z" transform="translate(-0.25 -73.81)"/><line class="cls-5" x1="92.24" y1="23.28" x2="108.83" y2="23.28"/><line class="cls-5" x1="92.76" y1="34.17" x2="109.35" y2="34.17"/></svg>