<svg id="Capa_1" data-name="Capa 1" xmlns="http://www.w3.org/2000/svg" viewBox="0 0 143.24 141.01"><defs><style>.cls-1{fill:#f7931e;}.cls-2,.cls-6{fill:#fff;}.cls-3{fill:#d87600;}.cls-4{fill:#42210b;}.cls-5{fill:#8e4700;}.cls-6{stroke:lime;stroke-miterlimit:10;}.cls-7{opacity:0.8;}.cls-8{fill:lime;}</style></defs><title>METEORITO</title><path class="cls-1" d="M135,98.87s8.84.77,7.76,7.55-2.24,6.59-3.41,10.2-1.57,13.65-4.57,13.81-6.6.21-8.74,2.4-6.51,7.19-10.59,10.33-11.86,10.76-14.28,11-7.38,5.14-7.38,5.14S99,171.52,82.67,172.72s-18.15-2.24-19.89-6.31S48.71,161,43.66,159s-12.9-5.21-15.9-8.85S13.1,152.21,9,144-.17,130.52,2,124.54s-.77-6.44,2.34-11,5.92.31,2-12.33S6,84.11,8.62,78.84s5-8.7,3.12-15.94-2.9-8,2.93-14.7,13.6-14.27,19-10.88S40.3,44.68,45,41.63s13-3,19.61-7,7.56,8.78,12.32,8.9,5.43-.4,6.21-5.33,4.38-5,13.5-2.28,19,8.07,17.06,20.39,11.59,6,16,12.33,6,7.11,6,14.69S129.63,94.86,135,98.87Z" transform="translate(-0.52 -32.91)"/><path class="cls-2" d="M76.6,173.42c-10.42,0-12.5-2.79-14.23-6.84-1.1-2.55-7.3-4.09-12.28-5.32a54.78,54.78,0,0,1-6.59-1.89l-.43-.18c-5-2.06-12.66-5.17-15.65-8.79-1.07-1.29-3.53-1.25-6.37-1.2-4.39.07-9.85.17-12.41-5-1.09-2.19-2.23-4.13-3.33-6-3-5.14-5.4-9.21-3.76-13.78a12.21,12.21,0,0,0,.8-5.52,7.46,7.46,0,0,1,1.59-5.58,7.19,7.19,0,0,1,2.71-2.43c1.38-.78,1.85-1-.81-9.52-3.58-11.41-1-16.27,1.49-21,.3-.57.6-1.14.89-1.72s.5-1,.75-1.48c2.3-4.51,4-7.76,2.34-14.15-.18-.73-.36-1.39-.52-2-1.46-5.47-1.85-6.94,3.55-13.1,5.64-6.44,13.8-14.58,19.6-11a32.59,32.59,0,0,1,4,3c2.53,2.17,3.81,3.26,6.8,1.3C47,39.78,50.07,39,53.35,38.2c3.72-.92,7.56-1.87,11-4a4.48,4.48,0,0,1,3.51-.73c2.08.53,3.43,2.86,4.74,5.12s2.56,4.41,4.31,4.45c4.54.12,5-.3,5.77-5a5,5,0,0,1,2.06-3.71C87,33,91,33.78,96.72,35.49c13.11,3.9,19,10.93,17.37,20.89-.4,2.54-.15,4.38.75,5.62,1.33,1.81,4,2.22,6.73,2.66,3.22.5,6.54,1,8.4,3.73.76,1.11,1.44,2,2,2.87,2.89,4,4.09,5.66,4.08,12.07A20.38,20.38,0,0,1,134.31,91c-1.22,3.16-2,5.25.82,7.45.8.09,4.86.67,6.93,3.32a5.88,5.88,0,0,1,1.1,4.73c-.72,4.5-1.49,6-2.24,7.5a17.41,17.41,0,0,0-1.19,2.77,38.33,38.33,0,0,0-.92,4.52c-.79,4.65-1.6,9.46-4.05,9.59l-.48,0c-2.84.14-6.06.3-8,2.25-.46.47-1,1.07-1.66,1.75a82.87,82.87,0,0,1-9,8.62c-1.28,1-2.93,2.42-4.68,3.94-4,3.43-8,7-9.83,7.16s-5.4,3.36-6.91,4.82c.41,1.1,1.65,5.15-.47,8.64-1.81,3-5.54,4.68-11.09,5.09C80.4,173.33,78.38,173.42,76.6,173.42Zm-54-25.12c2.4,0,4.39.2,5.5,1.53,2.85,3.45,10.34,6.51,15.3,8.54l.43.18a53.11,53.11,0,0,0,6.47,1.85c5.44,1.35,11.61,2.87,12.88,5.84,1.6,3.73,3.11,7.25,19.45,6,5.25-.39,8.75-2,10.4-4.67,2.19-3.6.33-8.08.31-8.12l-.12-.28.21-.21c.21-.2,5.1-5,7.65-5.27,1.52-.16,5.86-3.92,9.34-6.95,1.76-1.52,3.41-3,4.72-4a83.76,83.76,0,0,0,8.87-8.52c.64-.69,1.21-1.29,1.67-1.77,2.15-2.19,5.55-2.36,8.56-2.51l.47,0c1.75-.09,2.6-5.16,3.22-8.85a39.69,39.69,0,0,1,1-4.66,17.74,17.74,0,0,1,1.24-2.89c.75-1.48,1.46-2.88,2.15-7.24a5.06,5.06,0,0,0-.92-4c-2-2.58-6.39-3-6.43-3h-.13l-.1-.08c-3.5-2.62-2.44-5.37-1.22-8.55a19.92,19.92,0,0,0,1.72-7.34c0-6.12-1.06-7.6-3.91-11.55-.6-.83-1.28-1.77-2-2.89-1.64-2.4-4.77-2.89-7.8-3.36s-5.77-.9-7.31-3c-1-1.44-1.35-3.5-.91-6.28,1.52-9.59-4-16.1-16.75-19.9-5.36-1.59-9.33-2.4-11.27-1.18a4.17,4.17,0,0,0-1.66,3.11c-.81,5.09-1.68,5.84-6.66,5.71-2.25-.06-3.68-2.52-5.06-4.9-1.21-2.1-2.47-4.26-4.19-4.7A3.64,3.64,0,0,0,64.8,35c-3.54,2.15-7.63,3.16-11.24,4.05-3.2.79-6.22,1.54-8.36,2.94-3.55,2.33-5.36.78-7.87-1.37a30.37,30.37,0,0,0-3.86-2.94c-5.22-3.25-13,4.61-18.47,10.8-5.09,5.81-4.79,6.93-3.36,12.29.17.62.34,1.28.53,2,1.7,6.71-.12,10.27-2.41,14.77Q9.39,78.28,9,79c-.29.59-.59,1.17-.9,1.75C5.7,85.32,3.21,90,6.69,101.08c2.75,8.79,2.36,9.44.4,10.55a6.32,6.32,0,0,0-2.42,2.16,6.62,6.62,0,0,0-1.44,5,13,13,0,0,1-.85,5.87c-1.49,4.18.79,8.09,3.69,13,1.11,1.89,2.26,3.85,3.36,6.07,2.31,4.69,7.24,4.6,11.6,4.52Z" transform="translate(-0.52 -32.91)"/><path class="cls-3" d="M72.88,66.3l.28,9c.06,2.06-.09,4.33,1,6.18A8.68,8.68,0,0,0,78.88,85c1.72.61,3.89.63,5.13,2.12,2.16,2.6,2.22,6.24,5.34,8.21,4.1,2.58,9-.42,13.46.32,3.71.61,5.3-5.07,1.56-5.69a22.1,22.1,0,0,0-6.13-.28c-1.35.15-4.44,1.36-5.65.72-1.9-1-2.6-5.07-3.88-6.78-2.24-3-5.17-2.85-8.26-4.31-2-.93-1.37-3.21-1.43-5.13l-.25-7.92c-.12-3.78-6-3.8-5.89,0Z" transform="translate(-0.52 -32.91)"/><path class="cls-3" d="M14.57,59.13a39.11,39.11,0,0,0,7.84-5.2,35.57,35.57,0,0,0,3.12-3c.41-.45,2.44-3.22,2.38-3.2L25,47l.31.27-.76-2.87a15.42,15.42,0,0,0-.07,2c-.06,1.51.32,0-.35,1.2a27.67,27.67,0,0,0-2.69,4.83c-.3.88-.52,1.77-.83,2.64a7.21,7.21,0,0,1-.51,1.29q.36.48-.33.06c-.69.11-1.75-.45-2.55-.4-.42,0-.85.11-1.27.19-1.17.14-1.2.66-.08,1.55L15.61,60l.14-.31-2.54,1.46c-.75,0-.91-.2,0,.34a7.09,7.09,0,0,0,2,.72,5.92,5.92,0,0,0,3.6-.33,5.66,5.66,0,0,0,3.39-5.25c.09-2.61-3.25-3.81-5-2.08a21.89,21.89,0,0,0-5.23,8.06A3,3,0,0,0,14,66.24a4.26,4.26,0,0,0,2.34.23l.87-.18q1-3.27-.14-2.2a3.68,3.68,0,0,0-1,1.33c-.45,1.45,1.78,1.07,1.5-.35-.67-3.35-5.69-2.44-5.79.79A13.32,13.32,0,0,0,12,68.53c.62,3.74,6.3,2.15,5.69-1.56l0-1.11-5.79.78c.47,2.39,1.86,4.77,4.54,5s3.65-1.7,5-3.57,2.07-3.66.62-5.7a4.92,4.92,0,0,0-3.1-2c-1.09-.22-2.46.43-3.39.16l2.06,3.62a15.13,15.13,0,0,1,3.72-5.45l-5-2.09c0-.9-2.46-1.42-3.1-1.38a3,3,0,0,0-2.55,1.46,3.94,3.94,0,0,0,1.91,5.49,5.11,5.11,0,0,0,3.71.15c1.46-.42,1.85-.14,3.34,0,2.75.35,4.82-1.41,5.95-3.79,1.29-2.74,1.57-5.38,3.6-7.73a5.54,5.54,0,0,0,1.49-3,7.65,7.65,0,0,0-.28-2.72c-.52-2.37-2.45-3.92-4.91-2.79s-3.92,4.34-5.8,6.13A32.6,32.6,0,0,1,11.59,54c-3.39,1.71-.41,6.8,3,5.09Z" transform="translate(-0.52 -32.91)"/><path class="cls-3" d="M90,53.32c3.76,1.52,6.85,3.72,11.08,2.32a14.1,14.1,0,0,0,4.7-2.54c.56-.5.82-1.25,1.32-1.73.86-.82,2-.89,3.13-1.17l-3.73-2.84a13.89,13.89,0,0,0,2.27,8.75l2.55-4.43c-3,.17-6.29.84-9.21.45l2.54,1.46C102.35,50,99.63,49,95.35,48.88l.78,5.79a30.81,30.81,0,0,0,6.13-2.93c2.26-1.25,5.19,0,7.5.89,3.54,1.37,5.08-4.33,1.57-5.69-2.76-1.06-6.38-2.21-9.36-1.53C99.3,46,97.24,48.18,94.56,49a3,3,0,0,0,.79,5.79c1.38,0,2.69,0,3.7.94s1.06,1.89,2.7,2.26c2.88.64,6.68-.23,9.61-.41,2.1-.12,3.84-2.45,2.54-4.43a8.57,8.57,0,0,1-1.46-5.78c.15-2-2-3.26-3.73-2.84a15,15,0,0,0-4.42,1.42c-1.28.77-1.66,1.94-2.65,2.91-3.1,3.06-7,0-10-1.21-3.51-1.43-5,4.27-1.56,5.68Z" transform="translate(-0.52 -32.91)"/><path class="cls-3" d="M128,84.37l.41.29-1.35-1.76.1.54.29-2.27c.17-.38-1.46-.4-1.81-.67a3.64,3.64,0,0,1-.9-1.35,18.13,18.13,0,0,0-2-3.42c-1.42-1.68-4.11-2.44-5.17-4.33-1.85-3.31-6.94-.34-5.09,3,1.37,2.45,3.82,3.05,5.61,5s2,5,4.68,6.48c2.21,1.26,6.31,1.43,8.45-.11,2.44-1.77,2-4.85-.28-6.45-3.1-2.21-6,2.9-3,5.09Z" transform="translate(-0.52 -32.91)"/><path class="cls-3" d="M128.58,123.28l-.23,3.36a2.86,2.86,0,0,0,1.46,2.55l1.69.79.71-5.39c-2.27.31-4.9-.42-7,.59-1.25.59-1.93,2.61-3,3,1.16-.44-1.72-.32-2-.25a5,5,0,0,0-1.87,1c-1.44,1.21-1.93,3.11-2.46,4.82-1.13,3.64,4.56,5.19,5.69,1.57a6.83,6.83,0,0,1,.59-1.84c-.52.59.06.3.77.29a4.93,4.93,0,0,0,3.43-1.43c.76-.74,1-1.54,1.85-1.77a18.46,18.46,0,0,1,2.88,0c.9-.06,1.79-.19,2.69-.32,2.47-.33,2.88-4.37.7-5.38l-1.7-.79,1.46,2.54.24-3.36c.26-3.79-5.63-3.77-5.9,0Z" transform="translate(-0.52 -32.91)"/><path class="cls-3" d="M74.74,77.37A50.81,50.81,0,0,0,84.89,87.46a61,61,0,0,0,5.73,3.59c2.2,1.27,3,3.33,4.77,5a3,3,0,0,0,4.62-.6l1.41-1.88-4.63.59a4.89,4.89,0,0,0,6.44,1.07c2.41-1.64,1.79-3.67,2.06-6.07l-.86,2.09.35-.34c2.49-2.48-.66-6-3.58-4.63-2.44,1.14-5-1.39-6.68-2.82a63.76,63.76,0,0,0-5.1-4c-3.43-2.42-7.66-4.82-9.24-9-1-2.65-4.78-3-5.68,0,1-.56,1.17-1.16.42-1.82-1.47-2.26-4.46-1.63-5.39.71C68.3,72.5,71.35,75.55,74.46,75A5.5,5.5,0,0,0,78,72.48c1.17-1.86.84-4.41,3.4-4.91l-2.87-.75.82.71c2.85,2.47,7-1.68,4.17-4.17-2.15-1.87-4.26-1.87-6.67-.31a7.79,7.79,0,0,0-2.22,2.21,8.71,8.71,0,0,0-.88,1.88,6.36,6.36,0,0,0-.32,1c-.47,1.16.11,2.11,1.76,2.85l-5.39.71c1.29,2,3,4,5.56,4a4.87,4.87,0,0,0,4.79-3.61H74.5c2.33,6.13,7.55,9.31,12.64,13,5.26,3.78,10,9.65,17,6.33l-3.57-4.63a3.56,3.56,0,0,0-1.21,2.42,2.68,2.68,0,0,0,0,1.32c0,1.13.49,1,1.52-.48-1.32-1.63-3.61-.77-4.63.59l-1.41,1.89,4.63-.6c-1.48-1.37-2.23-3.26-3.85-4.54s-3.62-2.16-5.39-3.29a41.55,41.55,0,0,1-10.48-9.66c-2.27-3-7.4,0-5.09,3Z" transform="translate(-0.52 -32.91)"/><path class="cls-3" d="M27.71,103.77c4.13.17,6.77-3.85,8.82-6.9a17.89,17.89,0,0,0,2.63-5.28c.11-.55.19-1.11.26-1.66l-.32.51c.77-.7,2.37-1,3.33-1.47L38,86.43c.46-.82.41-.92-.15-.33l-1,.75a6.32,6.32,0,0,0-1.22,1.46c-.78,1.41-.15,2.88-.62,4.22-.3.85-1,1.56-1.28,2.46s-.14,1.69-.39,2.46c-.68,2.12-3.28,3.93-4.81,5.47a2.91,2.91,0,0,0-.76,2.87l.73,1.93L31.38,104c.32,0-.73-1.21-.85-1.35l-1-1.24-.6,1a4.95,4.95,0,0,0,4.4-8c-4-4.3-10.93,1.7-9,6.52,1.38,3.48,7.08,2,5.68-1.57a1.25,1.25,0,0,1,.64-.75c-.37-1.5-1.14-2.2-2.32-2.1a4.88,4.88,0,0,0-2.37.6,4.77,4.77,0,0,0-2.71,4.62c.17,2,1.93,3.61,3.11,5.1,1.39,1.74,2.64,3.17,5,3.07,1.75-.07,3.55-1.85,2.84-3.73l-.72-1.93-.76,2.87c1.79-1.81,4.08-3.58,5.44-5.75,1.14-1.84.91-4,2-5.84.87-1.54.52-3.75,1.39-4.86,1.19-1.51,2.26-2,2.36-4.21.11-2.46-2.54-3.37-4.44-2.55-3,1.3-5.15,2.09-5.88,5.48a11.66,11.66,0,0,1-1.84,4.1c-.7,1.07-2.53,4.48-4,4.42-3.8-.16-3.79,5.74,0,5.89Z" transform="translate(-0.52 -32.91)"/><path class="cls-3" d="M32.34,125.25c-1,4.52,1.36,8.3,5,10.81,3.37,2.32,8.14,2.79,11.07-.51,2.51-2.82-1.64-7-4.17-4.16-2.13,2.4-6.8-2.09-6.23-4.58.84-3.69-4.84-5.27-5.68-1.56Z" transform="translate(-0.52 -32.91)"/><path class="cls-3" d="M9.67,144.06a16.7,16.7,0,0,0,7.8,3.69c3.12.51,6.78-.76,9.5,1.17,2.21,1.56,3.89,3.62,6.32,4.92A27,27,0,0,0,42,156.56c3.71.59,5.31-5.09,1.56-5.68a22.27,22.27,0,0,1-7.68-2.36c-2.21-1.26-3.82-3.26-5.91-4.69-5-3.45-11.27-.08-16.11-3.94-2.94-2.34-7.14,1.81-4.17,4.17Z" transform="translate(-0.52 -32.91)"/><path class="cls-3" d="M56.29,161.69c4.71,4,9.76,9.94,16.2,10.7a31,31,0,0,0,9.69-.81c2.94-.59,6.64-1,9.08-2.92a6.2,6.2,0,0,0,2.46-6.23c-.4-1.61-.57-1.8.33-3.39a7.57,7.57,0,0,1,2.54-3.11c1.31-.7,3.06-.33,4.5-.62a8.94,8.94,0,0,0,3.72-1.82c2.66-2.08,5.06-4.59,7.53-6.88,2.79-2.59-1.38-6.75-4.17-4.17-2.16,2-4.26,4.13-6.52,6-2,1.68-4.65.92-7,1.88-3.53,1.44-7.39,6.57-7.44,10.48,0,.76.78,2.14.65,2.75-.2.9-2.19,1.14-3.06,1.36a47.63,47.63,0,0,1-9.24,1.65c-6.21.27-10.69-5.35-15.1-9.07-2.89-2.43-7.08,1.72-4.17,4.17Z" transform="translate(-0.52 -32.91)"/><path class="cls-3" d="M81.38,140.71a21.36,21.36,0,0,0,15.09,1.39c5.15-1.54,8.22-5.24,11-9.62,2.06-3.19-3-6.15-5.09-3-2,3-3.94,5.82-7.53,6.91a15,15,0,0,1-10.55-.8c-3.42-1.56-6.42,3.52-3,5.09Z" transform="translate(-0.52 -32.91)"/><path class="cls-3" d="M67.14,43.54c-4.1.73-9.88.68-12.34,4.65a9.44,9.44,0,0,0-1.32,4.92c0,.62-.06,3.06.56,2.66-.55.36-2.2-.28-2.7-.47-1.9-.71-3.28-1.74-5.44-1.55A9.14,9.14,0,0,0,41,56.05c-1.49,1.21-2.84,2.54-2.48,4.6.29,1.74,2.14,2.2,2.6,3v-3l-.24.49,5.38,2.27c.55-1.4,6.63-.16,7.86-.35a11,11,0,0,0,5.92-3,11.69,11.69,0,0,0,3.13-5.46,10.6,10.6,0,0,0,.25-1.58,4.82,4.82,0,0,0,0-1.2c0-.56,0-.54-.15,0-1,.39,1.26.16,1.34.15A13.38,13.38,0,0,1,67.13,52c3.12.16,3.74-4,1.49-5.49-3.54-2.4-8.1-4.52-12.19-2A9.9,9.9,0,0,0,53.28,48c-.63,1.07-1.29,3.52-2.54,4-3.49,1.36-2,7.07,1.57,5.68,2.74-1.07,4.09-3,5.42-5.52.6-1.13,1.12-2.57,2.5-2.9,1.83-.44,4.05,1.4,5.41,2.32l1.49-5.49c-2.68-.14-6.76,0-8.64,2.28s-.3,5-2.3,7.25c-2.56,2.85-6,1.12-9.32,1.49a7.21,7.21,0,0,0-6.25,4.79c-1.2,3.1,3.92,5.26,5.39,2.27a3.56,3.56,0,0,0,.24-3.46c-.27-.59-2.21-2.62-2-1.63l-.3,2.27c2.24-3.08,4.76-.42,7.55.09,2.37.43,5.35.43,7.12-1.44,2.12-2.25.37-4.81.83-7.44.35-2,2-2,3.79-2.35s3.65-.66,5.47-1c3.73-.67,2.15-6.35-1.56-5.68Z" transform="translate(-0.52 -32.91)"/><path class="cls-3" d="M61.27,100.21c1.49,1.36,1.78,1.87.75,3.62a11.62,11.62,0,0,0-1.55,3.42,7.59,7.59,0,0,0,4,8c2.34,1.28,6.61,2,8.88.21a4,4,0,0,0,1.51-3.11,4.88,4.88,0,0,0-.39-1.79c-.4-.92,0-1.38-.6-.22l-2.55,1.46c2.78.35,5.56.74,8.34,1,2.26.24,4,.13,5.57-1.69.73-.85.53-1.27,1.8-1.35s2.71,1.12,3.75,1.56a9.08,9.08,0,0,0,7,.48c3.52-1.33,2-7-1.57-5.69-2.6,1-5.06-1.49-7.57-2a7.87,7.87,0,0,0-5.44.63c-1,.54-1.38,1.47-2.21,2.09s.42.6-1.28.11c-2.58-.74-5.67-.71-8.34-1a2.83,2.83,0,0,0-2.54,1.46c-.63,1.21-1.1,3.59,0,4.76l.19.52.86-2.13c-.16-.17-1.56-.06-1.87-.17-1.86-.64-1.9-1.7-1.11-3.23,1-1.85,2-3.38,1.85-5.58s-1.69-4-3.32-5.51c-2.79-2.55-7,1.6-4.17,4.17Z" transform="translate(-0.52 -32.91)"/><path class="cls-3" d="M115.88,99.43a25.59,25.59,0,0,1,1.64,3.94c.14.44.27.88.38,1.32l.41-1c-.09-.12-1.45.54-1.59.61a9.94,9.94,0,0,0-4.94,5c-1.57,3.42,3.51,6.42,5.09,3a5.07,5.07,0,0,1,3.28-2.95,5.44,5.44,0,0,0,3.2-2.49c1.5-3.1-1-7.58-2.38-10.32-1.73-3.37-6.82-.39-5.09,3Z" transform="translate(-0.52 -32.91)"/><ellipse class="cls-4" cx="28.51" cy="86.42" rx="16.01" ry="5.59" transform="translate(-63.01 53.94) rotate(-72.01)"/><path class="cls-2" d="M24.18,102.19a2.4,2.4,0,0,1-.75-.12c-1.61-.53-2.54-2.69-2.62-6.09a36.31,36.31,0,0,1,2-11.42c2.85-8.77,7.61-14.83,10.82-13.78s3.51,8.73.66,17.51C31.62,96.4,27.35,102.19,24.18,102.19Zm8.64-30.65c-2.45,0-6.52,5-9.21,13.29A35.33,35.33,0,0,0,21.7,96c.06,3,.79,4.87,2,5.27,2.37.77,6.83-4.36,9.71-13.22s2.27-15.62-.09-16.39A1.64,1.64,0,0,0,32.82,71.54Z" transform="translate(-0.52 -32.91)"/><path class="cls-5" d="M37.56,85.29c1.28.65,2.25-.35,3.28-1,.14-.09-.08,0,0,0l.17,0c.17-.06-.15,0,0,0s-.09-.08,0,0l.28.14c.16.12.3.26.46.39L44,86.68a.91.91,0,0,0,1.25,0,.89.89,0,0,0,0-1.25l-2.2-1.89a2.86,2.86,0,0,0-2.37-1,4,4,0,0,0-1.55.79,5.23,5.23,0,0,1-.63.41c-.08,0,.14,0,0,0l-.12,0,.11,0s-.33,0,0,0c-.07,0-.22-.1,0,0a.9.9,0,0,0-1.21.31.89.89,0,0,0,.32,1.21Z" transform="translate(-0.52 -32.91)"/><path class="cls-5" d="M22.64,102.84a3,3,0,0,1,.83,1.66c.11.78-.28,1.67.36,2.37a5.21,5.21,0,0,0,1.1.75l1.13.69,2.39,1.46a.88.88,0,0,0,.9-1.52l-2.28-1.39-1.14-.7-.57-.35s-.23-.2-.18-.08,0-.06,0-.08l0-.31a2.45,2.45,0,0,0,0-.54,4.81,4.81,0,0,0-.16-1.13,4.86,4.86,0,0,0-1.21-2.08c-.8-.81-2.05.44-1.25,1.25Z" transform="translate(-0.52 -32.91)"/><path class="cls-5" d="M33.62,71.71a3.84,3.84,0,0,0,2.81-.53c.32-.24.56-.56,1-.56a13.76,13.76,0,0,1,1.7.15l1.73.18a3.87,3.87,0,0,0,1.59,0,1.4,1.4,0,0,0,.46-2.49.89.89,0,0,0-1.21.32A.9.9,0,0,0,42,70l.08,0-.32-.32c-.13-.17.16-.39.14-.45l-.45,0-1.38-.14c-.83-.09-1.67-.22-2.5-.25a2.69,2.69,0,0,0-1.28.25,4.92,4.92,0,0,0-.83.61,2.48,2.48,0,0,1-1.84.23.89.89,0,0,0-.89.88.91.91,0,0,0,.89.89Z" transform="translate(-0.52 -32.91)"/><path class="cls-5" d="M31.32,119.12c-.15-.11,0,0,.06.06l.15.16c.13.13-.06-.11,0,0a.86.86,0,0,1,.1.16,1.55,1.55,0,0,1,.19.36c-.08-.18,0,0,0,.06s.05.15.08.22a12.31,12.31,0,0,1,.35,1.81,5.58,5.58,0,0,0,1.46,3.51.9.9,0,0,0,1.25,0,.88.88,0,0,0,0-1.25,2.42,2.42,0,0,1-.31-.33c.12.15,0-.05,0-.07a1.18,1.18,0,0,1-.11-.19,1.86,1.86,0,0,1-.1-.2c-.09-.17,0,.12,0-.07s-.09-.27-.13-.41a16.66,16.66,0,0,1-.35-1.87,5,5,0,0,0-1.74-3.52.9.9,0,0,0-1.21.31.91.91,0,0,0,.32,1.21Z" transform="translate(-0.52 -32.91)"/><path class="cls-5" d="M50,132.84a5.64,5.64,0,0,1,4-1.63c1.43,0,3.06.15,3.7-1.44A.89.89,0,0,0,56,129.3c0-.14-.07.07,0,0s-.14.08,0,0l-.13.08c.12-.07,0,0-.06,0a2.4,2.4,0,0,1-.73.09,15.3,15.3,0,0,0-2.14.06,7.36,7.36,0,0,0-4.15,2.06c-.81.79.44,2,1.25,1.25Z" transform="translate(-0.52 -32.91)"/><path class="cls-5" d="M61.6,97.5a3.38,3.38,0,0,1,3.23-.35A4,4,0,0,1,67,99.57a5.15,5.15,0,0,1,.29,1.78,4.33,4.33,0,0,0,.16,2.29,1.49,1.49,0,0,0,2.08.62,1.32,1.32,0,0,0,.23-2c-.84-.77-2.09.47-1.25,1.25a.51.51,0,0,1-.08-.56.43.43,0,0,1,.55-.16s0,0,0,0a2.43,2.43,0,0,0,0-.47c0-.16,0-.32,0-.48A6.83,6.83,0,0,0,69,99.91a6.3,6.3,0,0,0-1.6-3.14,5.26,5.26,0,0,0-6.65-.8.91.91,0,0,0-.32,1.21.89.89,0,0,0,1.21.32Z" transform="translate(-0.52 -32.91)"/><path class="cls-5" d="M77.73,108.7c1.21.7,2.59,1.35,4,.81a2.51,2.51,0,0,0,1.44-1.31,3.8,3.8,0,0,0,.25-.81,2.84,2.84,0,0,1,.16-.83c.22-.32,1.23.08,1.64.08a7.8,7.8,0,0,0,2.18-.47,4.49,4.49,0,0,1,2.27-.21,10,10,0,0,1,2.35.88c1,.48,1.93-1,.9-1.53a8.88,8.88,0,0,0-4.48-1.18,14.2,14.2,0,0,0-2.31.58,5.27,5.27,0,0,1-2.13,0c-1.52-.18-2,1-2.29,2.24-.12.59-.31,1-1,1a3.89,3.89,0,0,1-2.1-.78.89.89,0,0,0-.89,1.53Z" transform="translate(-0.52 -32.91)"/><path class="cls-5" d="M40.3,58.47c.68-1.1,1.34-2.21,2-3.29.5-.78,1.16-1.75,2.13-1.94s2,.42,2.91.72a3.92,3.92,0,0,0,2.82,0c1.52-.66,2-2.32,2.43-3.77a5,5,0,0,1,1-2c.69-.72,1.82-.77,2.73-1a14.59,14.59,0,0,0,3.29-1.68c1.34-.73,2.89-.44,4.32-.16,1.11.21,1.59-1.49.47-1.71a11.4,11.4,0,0,0-3.9-.28A9.94,9.94,0,0,0,57.14,45a21.06,21.06,0,0,1-3.33,1,4,4,0,0,0-2.12,1.81,12.19,12.19,0,0,0-.92,2.42,3.89,3.89,0,0,1-1,2c-.74.59-1.76.15-2.54-.15a5.8,5.8,0,0,0-3.25-.5,5,5,0,0,0-2.75,2.12c-.91,1.24-1.67,2.62-2.47,3.92-.61,1,.92,1.86,1.52.9Z" transform="translate(-0.52 -32.91)"/><path class="cls-5" d="M85.5,42.14l-.8,2.42c-.12.37-.24.75-.37,1.12a1.87,1.87,0,0,1-.17.35c-.09.15,0,0-.09.13s-.15.15-.06.08l-.16.09c-.12.07,0,0-.07,0a2,2,0,0,1-.4.1c.1,0,0,0,0,0h-.24l-.45,0a18.18,18.18,0,0,0-2-.09.9.9,0,0,0-.85,1.12,3,3,0,0,1-.07,1.69.89.89,0,0,0,.62,1.09.9.9,0,0,0,1.09-.62A4.7,4.7,0,0,0,81.54,47l-.85,1.12c1.42-.09,3,.49,4.28-.43a4.17,4.17,0,0,0,1.3-2.29l.93-2.81a.88.88,0,0,0-1.7-.47Z" transform="translate(-0.52 -32.91)"/><path class="cls-5" d="M69.87,68.32a5.72,5.72,0,0,0,2.68-1.57,9.15,9.15,0,0,0,2.11-2.69,1,1,0,0,1,.21-.4,3.28,3.28,0,0,1,.88-.24c.62-.16,1.24-.31,1.86-.44,1.28-.28,2.58-.51,3.88-.69a.9.9,0,0,0,.62-1.09A.91.91,0,0,0,81,60.59c-1.27.17-2.52.39-3.77.66-.62.13-1.25.28-1.86.44a4,4,0,0,0-1.74.68,4.72,4.72,0,0,0-.75,1.26,7.77,7.77,0,0,1-1,1.26,4.82,4.82,0,0,1-2.48,1.73c-1.11.24-.64,1.95.48,1.7Z" transform="translate(-0.52 -32.91)"/><path class="cls-5" d="M104.71,85.24a5.45,5.45,0,0,1-.11,2.24,7.42,7.42,0,0,0-.55,2.31,18.32,18.32,0,0,0,.92,4.86c.34,1.08,2,.62,1.7-.47a21.59,21.59,0,0,1-.59-2.37,8,8,0,0,1-.26-2.38,5,5,0,0,1,.33-1,6.46,6.46,0,0,0,.29-1.15,7.89,7.89,0,0,0,0-2.52.88.88,0,0,0-1.08-.61.89.89,0,0,0-.62,1.08Z" transform="translate(-0.52 -32.91)"/><path class="cls-5" d="M74.65,71.76a1.76,1.76,0,0,0-1.56.33,2,2,0,0,0-.75,1.43,2.57,2.57,0,0,0,1.58,2.34,7,7,0,0,0,1.54.46,1,1,0,0,0,.68-.09.9.9,0,0,0,.41-.53.89.89,0,0,0-.62-1.09,6.64,6.64,0,0,1-1.29-.34l.22.09a2.54,2.54,0,0,1-.53-.31l.18.14a1.82,1.82,0,0,1-.34-.34l.14.18a1.57,1.57,0,0,1-.22-.37l.09.21a1.26,1.26,0,0,1-.1-.33l0,.24a1,1,0,0,1,0-.3l0,.24a1.34,1.34,0,0,1,.07-.27l-.09.22a1.38,1.38,0,0,1,.14-.24l-.14.18a1,1,0,0,1,.2-.2l-.18.14a.88.88,0,0,1,.23-.14l-.21.09a.83.83,0,0,1,.21-.06l-.23,0a.6.6,0,0,1,.19,0l-.24,0,.15,0a.89.89,0,1,0,.47-1.71Z" transform="translate(-0.52 -32.91)"/><path class="cls-5" d="M91.46,93.35h.2l.17,0,.27.08s.25.09.09,0c.15.07.29.15.43.23l.2.14c-.14-.1,0,0,.07.07l.2.2.11.13c0-.06.1.15.12.18a2,2,0,0,1,.12.21s.11.25,0,.08c0,.07.05.15.08.23a2,2,0,0,0,.06.23c0,.1,0,.11,0,0s0,.1,0,.15a5.3,5.3,0,0,0,.21,1.38,2.91,2.91,0,0,0,.68,1.08A5.89,5.89,0,0,0,96.44,99a.92.92,0,0,0,1.21-.32.88.88,0,0,0-.32-1.21,8.67,8.67,0,0,1-1-.47,2.61,2.61,0,0,1-.28-.17s-.22-.17-.08,0a2.73,2.73,0,0,1-.34-.34c.12.15-.07-.11-.09-.14s0,.1,0-.08-.06-.2-.08-.3c0,.1,0-.15,0-.17a5.3,5.3,0,0,0-.22-1.37,4.15,4.15,0,0,0-3.77-2.79.89.89,0,1,0,0,1.77Z" transform="translate(-0.52 -32.91)"/><path class="cls-5" d="M118.5,97c1.64-.19,1.58,2.75,1.87,3.74A4.34,4.34,0,0,0,121,102a8.83,8.83,0,0,1,.78,1.14,6.93,6.93,0,0,1,.44,2.63c.06,1.14,1.83,1.14,1.77,0a9.09,9.09,0,0,0-.58-3.27,7.76,7.76,0,0,0-.88-1.39,3.63,3.63,0,0,1-.57-1.48,7.76,7.76,0,0,0-.84-3,2.81,2.81,0,0,0-2.59-1.46.9.9,0,0,0-.89.88.89.89,0,0,0,.89.88Z" transform="translate(-0.52 -32.91)"/><path class="cls-5" d="M113.77,72.83a2,2,0,0,1,2.64-.43,6.55,6.55,0,0,1,2.23,2.18c1.2,1.66,2.31,3.17,4.33,3.86a7.41,7.41,0,0,1,2.88,1.28,3.94,3.94,0,0,1,.86,1.12,4.35,4.35,0,0,0,.7,1.22,1.45,1.45,0,0,0,1.35.36c.49-.14.74-.52,1.12-.81a2,2,0,0,1,2.45,0c.92.67,1.8-.86.89-1.52a3.74,3.74,0,0,0-3.13-.56,3.62,3.62,0,0,0-1.26.62,4.45,4.45,0,0,0-.59.52c.34.08.43,0,.26-.2s-.11-.25-.16-.38a5.75,5.75,0,0,0-2.21-2.4c-1.08-.65-2.39-.73-3.48-1.35-1.92-1.09-2.68-3.48-4.36-4.85s-4.61-1.76-6.05.39c-.63.95.9,1.84,1.53.9Z" transform="translate(-0.52 -32.91)"/><path class="cls-5" d="M133.09,120.77a4.59,4.59,0,0,0-4,.35,4.47,4.47,0,0,0-1.48,1.42c-.38.58-.55,1.3-1,1.85s-1.36.41-2,.5a7.1,7.1,0,0,0-2.38.74,10.36,10.36,0,0,0-1.9,1.38,2.59,2.59,0,0,1-1.88.86c-1.14-.1-1.13,1.66,0,1.77,1.53.13,2.59-1,3.7-1.86a5.52,5.52,0,0,1,2.1-1c.81-.2,1.67-.07,2.46-.33,1.49-.48,1.64-2,2.46-3.06a2.91,2.91,0,0,1,3.4-.88c1.06.42,1.52-1.29.47-1.7Z" transform="translate(-0.52 -32.91)"/><path class="cls-5" d="M73.39,132.68a48.34,48.34,0,0,1,8,6.71c.79.82,2-.43,1.25-1.26a50.29,50.29,0,0,0-8.35-7,.89.89,0,0,0-.89,1.53Z" transform="translate(-0.52 -32.91)"/><path class="cls-5" d="M106,130a10.3,10.3,0,0,1,1.34-2.62c.63-.81,1.57-1.27,2-2.22a4.21,4.21,0,0,0,.1-3.14c-.12-.43-.62-1.77.11-2a.88.88,0,0,0-.47-1.7,2.4,2.4,0,0,0-1.67,2.34c-.06,1.12.76,2.2.48,3.3a2.36,2.36,0,0,1-.91,1.24,7.13,7.13,0,0,0-1.15,1.18,13.13,13.13,0,0,0-1.56,3.11.88.88,0,0,0,.62,1.08A.89.89,0,0,0,106,130Z" transform="translate(-0.52 -32.91)"/><path class="cls-5" d="M14.56,133.74a4.53,4.53,0,0,1,3.84.62c.94.52,2.19,1.76,3.36,1.31a1.31,1.31,0,0,0,.65-.51c.13-.21.11-.51.22-.7s.89-.16,1.24-.11A7.52,7.52,0,0,1,27.55,136c.87.72,2.13-.52,1.25-1.25a9.36,9.36,0,0,0-4.12-2c-1.18-.25-2.91-.46-3.59.82a1.1,1.1,0,0,0-.16.46c0,.36.34,0,.35,0a8.61,8.61,0,0,0-.92-.53,16.08,16.08,0,0,0-2.16-1.17,5.67,5.67,0,0,0-4.53-.09.9.9,0,0,0-.32,1.21.91.91,0,0,0,1.21.32Z" transform="translate(-0.52 -32.91)"/><path class="cls-5" d="M10.9,140.26a12.45,12.45,0,0,1,3.59,1.46,14,14,0,0,0,3.45,1.13c2.42.47,4.9.43,7.32.91A10.85,10.85,0,0,1,28.71,145a29,29,0,0,0,3.48,1.85c2.12.85,5.19,1.43,6.16,3.81.42,1.05,2.14.59,1.71-.47a7.16,7.16,0,0,0-4-3.77c-1-.45-2.09-.78-3.13-1.18a18.64,18.64,0,0,1-3-1.57c-3.71-2.23-8-1.7-12-2.6a13.12,13.12,0,0,1-3.31-1.25,10,10,0,0,0-3.25-1.24.91.91,0,0,0-1.09.61.89.89,0,0,0,.62,1.09Z" transform="translate(-0.52 -32.91)"/><path class="cls-5" d="M8.15,118.56c0,.12,0,0,0,0a.62.62,0,0,1,.23-.25,1.58,1.58,0,0,1,1.05-.06,5.39,5.39,0,0,0,2.95.07A5.58,5.58,0,0,0,14.27,117a8.39,8.39,0,0,1,.75-.71,2,2,0,0,1,.75-.35c1.11-.25.64-2-.47-1.71a4.71,4.71,0,0,0-2.2,1.44c-.6.6-1,1.16-1.9,1.13-.56,0-1.1-.2-1.65-.27a3.41,3.41,0,0,0-1.79.18,2.09,2.09,0,0,0-1.14,2.79.89.89,0,0,0,1.21.31.91.91,0,0,0,.32-1.21Z" transform="translate(-0.52 -32.91)"/><path class="cls-5" d="M13.56,85.06c.08-.45.16-.9.27-1.35.06-.22.13-.44.21-.65,0,0,0-.2,0,0,0-.05.05-.09.06-.13s.11-.21.16-.3l.15-.23,0,0c0-.06,0,0,0,0s.06-.07.08-.09a2.28,2.28,0,0,1,.22-.22l.09-.09.05,0,.06,0a.57.57,0,0,1,.13-.08c.07,0,.17-.07.24-.12s-.15,0,0,0l.14,0,.12,0c.2,0-.2,0,0,0a.91.91,0,0,0,.89-.89.89.89,0,0,0-.89-.88,3.61,3.61,0,0,0-2.68,1.69,7.7,7.7,0,0,0-1,3,.9.9,0,0,0,.61,1.09.89.89,0,0,0,1.09-.62Z" transform="translate(-0.52 -32.91)"/><path class="cls-5" d="M15.55,60l-.11,0s.17.1.06,0l.09.07,0,0c-.05-.05-.05-.05,0,0l0,0,0-.05v0c0,.07,0,.07,0,0s0,0,0-.06,0,0,0-.05,0,0,0,0,0,.08,0,0v-.06s0-.16,0,0,0-.06,0-.09a.88.88,0,0,1,.05-.15c0,.08,0,.08,0,0a5.21,5.21,0,0,1,.36-.55l1.77-2.36a.89.89,0,0,0-.32-1.21.9.9,0,0,0-1.21.32l-1.06,1.41a17,17,0,0,0-1,1.39,2.31,2.31,0,0,0-.29,1.79,1.71,1.71,0,0,0,1.25,1.24A.89.89,0,0,0,15.55,60Z" transform="translate(-0.52 -32.91)"/><path class="cls-5" d="M27.34,43.85c.4,1,1,2.33.48,3.41-.36.8-1.1,1.34-1.39,2.18a2.56,2.56,0,0,0,0,1.45,1.69,1.69,0,0,1-.06,1.55,10.31,10.31,0,0,0-1.1,2.66c-.38,1.67-.24,3.8-1.35,5.2-.65.82-1.62,1.21-2,2.24a5.49,5.49,0,0,0,0,3.16c.25,1.11,2,.64,1.71-.47a5,5,0,0,1-.2-1.59,1.75,1.75,0,0,1,.83-1.28,5.51,5.51,0,0,0,1.67-2.07c.76-1.75.64-3.72,1.23-5.51a20.83,20.83,0,0,0,1.18-2.7,4.7,4.7,0,0,0-.23-1.66,1.34,1.34,0,0,1,.38-1,5.12,5.12,0,0,0,1.26-2.6,7.44,7.44,0,0,0-.69-3.4c-.41-1.05-2.12-.59-1.71.47Z" transform="translate(-0.52 -32.91)"/><path class="cls-5" d="M31.45,53.89a2.08,2.08,0,0,0,2.07.55,2.49,2.49,0,0,0,1.58-1.36,5,5,0,0,0,.39-2.15v-.29s0-.36,0-.12a1.3,1.3,0,0,1,0-.21l0-.14c-.06.12-.06.14,0,0l.06-.1c-.07.09-.09.11,0,.06l.06-.06c.07-.07,0-.06,0,0l.1-.06c-.12.05-.14.06,0,0h0a.88.88,0,0,0,.88-.88.91.91,0,0,0-.88-.89,1.9,1.9,0,0,0-1.84,1.42,3.76,3.76,0,0,0-.13,1.16c0,.15,0,.31,0,.47a1.55,1.55,0,0,1,0,.22c0,.24,0-.13,0,.05a3,3,0,0,1-.09.43s0,.15-.07.18l0,0-.06.11-.09.16,0,0-.08.09s-.11.08-.12.11.13-.1.05,0l-.09,0-.07,0,.09,0s-.15,0-.2.06h0c-.1,0-.07,0,.08,0-.05,0-.16,0-.21,0s.2.06,0,0-.24-.07-.09,0-.05,0-.06,0,.13.1.06,0l-.07-.08a.89.89,0,0,0-1.25,0,.91.91,0,0,0,0,1.25Z" transform="translate(-0.52 -32.91)"/><path class="cls-5" d="M91.17,155.89c.65-1.29,1.3-2.59,2-3.89a3.88,3.88,0,0,1,1-1.45,3.05,3.05,0,0,1,1.53-.47c1.4-.17,2.82-.28,4.22-.42a15,15,0,0,0,3.26-.52,4.12,4.12,0,0,0,2.34-1.73c.44-.75.45-2.23,1.35-2.59a27.5,27.5,0,0,1,3.18-.62,5.2,5.2,0,0,0,2.65-1.58c.72-.87-.52-2.13-1.25-1.25a4.38,4.38,0,0,1-2.72,1.31,8.27,8.27,0,0,0-3.11.8c-.94.65-1.07,1.72-1.46,2.69a2.91,2.91,0,0,1-2.47,1.52c-1.28.23-2.61.29-3.9.41a15.11,15.11,0,0,0-3.8.56A4.44,4.44,0,0,0,91.66,151q-1,2-2,4c-.51,1,1,1.91,1.53.89Z" transform="translate(-0.52 -32.91)"/><path class="cls-5" d="M52,159.27c1.61-1.09,3.64-1.06,5.51-1a5.74,5.74,0,0,1,3,.83c1,.56,1.9,1.16,2.83,1.76q2.85,1.8,5.62,3.72c.83.58,1.64,1.27,2.53,1.77a1.82,1.82,0,0,0,2.28-.11c.82-.79-.43-2-1.25-1.25.14-.13-.08-.13-.22-.21s-.41-.29-.61-.44l-1.38-1-2.66-1.82q-2.75-1.83-5.56-3.56a9.4,9.4,0,0,0-2.69-1.29,11.5,11.5,0,0,0-2.87-.19,9.63,9.63,0,0,0-5.42,1.27c-.93.64,0,2.17.9,1.53Z" transform="translate(-0.52 -32.91)"/><path class="cls-5" d="M83.6,166.59a4.69,4.69,0,0,0,7.11-3.18,4.92,4.92,0,0,0-1.49-4.26c-.2-.2-.57-.47-.63-.77s.37-.72.55-1a23.88,23.88,0,0,1,2.06-2.32c.81-.8-.44-2-1.25-1.25a24.69,24.69,0,0,0-1.81,2,4.62,4.62,0,0,0-1.32,2.31c-.12,1.58,1.6,2.19,2,3.54a3,3,0,0,1-1,3.28,3.07,3.07,0,0,1-3.4.07c-1-.61-1.85.92-.89,1.53Z" transform="translate(-0.52 -32.91)"/><path class="cls-5" d="M92,158.3a6.24,6.24,0,0,0,1.83-1.64,16,16,0,0,0,1-1.93,1,1,0,0,1,1.15-.47,4.56,4.56,0,0,1,1.83,1.11.9.9,0,0,0,1.25,0,.88.88,0,0,0,0-1.25,6.83,6.83,0,0,0-2.42-1.52A3,3,0,0,0,94,153c-.75.56-.91,1.44-1.32,2.18a4.2,4.2,0,0,1-1.58,1.58.89.89,0,0,0,.9,1.53Z" transform="translate(-0.52 -32.91)"/><path class="cls-5" d="M62.29,109.14a6.11,6.11,0,0,0,4.4,6.42,13,13,0,0,0,4.39.37,10.28,10.28,0,0,0,4.55-.89c1-.55.1-2.08-.9-1.53a8.1,8.1,0,0,1-3.55.65,12.75,12.75,0,0,1-3.65-.2,4.39,4.39,0,0,1-3.47-4.82.89.89,0,0,0-1.77,0Z" transform="translate(-0.52 -32.91)"/><path class="cls-5" d="M85.77,111.11a3.4,3.4,0,0,1,3-.61,9.83,9.83,0,0,1,2.68,1.66,4.56,4.56,0,0,0,3.15.85,8.4,8.4,0,0,0,3.39-1.46c.91-.58,2.29-1.16,2.38-2.39a4,4,0,0,0-1.08-2.83c-1.64-1.86-4.22-2-6.53-2a.89.89,0,0,0,0,1.77c1.87,0,4.27,0,5.44,1.73.16.23.52.84.41,1.16s-.8.59-1.09.78a8.47,8.47,0,0,1-2.92,1.47c-1.89.36-3.16-1.54-4.75-2.21a5.2,5.2,0,0,0-5.28.85c-.89.71.37,2,1.25,1.25Z" transform="translate(-0.52 -32.91)"/><ellipse class="cls-4" cx="7.24" cy="137.26" rx="1.97" ry="10.9" transform="translate(-65.53 -12.57) rotate(-28.69)"/><path class="cls-2" d="M12.28,147.31c-.52,0-1.37-.45-2.91-2.35a45.91,45.91,0,0,1-4.25-6.54h0c-.22-.41-5.41-10-3.32-11.11s7.34,8.38,7.56,8.79a45.78,45.78,0,0,1,3.23,7.11c1,3.07.54,3.75.1,4A.86.86,0,0,1,12.28,147.31ZM5.9,138c3.15,5.76,5.76,8.5,6.38,8.43.35-.44-.54-4.14-3.69-9.9S2.78,128,2.21,128.1c-.35.43.54,4.14,3.69,9.89Z" transform="translate(-0.52 -32.91)"/><ellipse class="cls-4" cx="97.96" cy="39.15" rx="1.97" ry="12.16" transform="translate(26.53 84.34) rotate(-69.55)"/><path class="cls-2" d="M108.05,44.21c-3.4,0-10.56-2.66-10.94-2.8h0c-.48-.18-11.79-4.43-11-6.66s12.17,2,12.65,2.14,11.79,4.42,11,6.66C109.58,44,109,44.21,108.05,44.21ZM97.42,40.58c6.69,2.5,10.89,3,11.49,2.66-.2-.69-3.73-3-10.42-5.53S87.6,34.68,87,35.06c.2.68,3.73,3,10.42,5.52Z" transform="translate(-0.52 -32.91)"/><ellipse class="cls-4" cx="19.38" cy="46.14" rx="12.16" ry="1.97" transform="translate(-27.47 -5.69) rotate(-45)"/><path class="cls-2" d="M11.08,55.27a.83.83,0,0,1-.61-.22c-1.69-1.69,6.83-10.26,7.2-10.62h0c.36-.36,8.93-8.89,10.61-7.2s-6.83,10.25-7.2,10.62S13.63,55.27,11.08,55.27Zm0-.86c.72.1,4.3-2.14,9.35-7.19s7.29-8.65,7.19-9.35c-.73-.1-4.31,2.14-9.36,7.19S11,53.7,11.11,54.41Z" transform="translate(-0.52 -32.91)"/><path class="cls-4" d="M139.2,117.32c-1.75,6.48-2,12-3.1,11.74s-1.57-5.72.19-12.2,5.12-11.55,6.17-11.27S141,110.84,139.2,117.32Z" transform="translate(-0.52 -32.91)"/><path class="cls-2" d="M136.18,129.51l-.2,0c-1.64-.45-1.71-6.88-.12-12.75,1.65-6.06,5.1-12,6.71-11.57a.71.71,0,0,1,.46.37c.34.65-.11,2-1.17,5-.68,1.91-1.52,4.29-2.23,6.91s-1.18,5.11-1.56,7.1c-.59,3.09-.88,4.48-1.5,4.87A.79.79,0,0,1,136.18,129.51ZM142.27,106c-.88.31-3.86,4.67-5.55,10.93-1.74,6.42-1.12,11-.56,11.61a19.17,19.17,0,0,0,1-4.22c.38-2,.85-4.5,1.57-7.16s1.58-5,2.26-7A20.21,20.21,0,0,0,142.27,106Z" transform="translate(-0.52 -32.91)"/><ellipse class="cls-4" cx="91.66" cy="74.67" rx="10.02" ry="17.1" transform="translate(-26.47 53.77) rotate(-45)"/><path class="cls-2" d="M98.53,89.13a13.68,13.68,0,0,1-3.45-.48,24.7,24.7,0,0,1-10.82-6.58c-6.84-6.84-9.08-15.72-5-19.8,2-2,5.2-2.58,9-1.59a24.66,24.66,0,0,1,10.83,6.59c6.84,6.84,9.08,15.72,5,19.8A7.59,7.59,0,0,1,98.53,89.13Zm-13.74-28a6.73,6.73,0,0,0-4.91,1.8c-3.73,3.74-1.49,12.06,5,18.55A23.78,23.78,0,0,0,95.31,87.8c3.46.9,6.35.42,8.12-1.36,3.74-3.73,1.5-12-5-18.55A23.76,23.76,0,0,0,88,61.54,12.72,12.72,0,0,0,84.79,61.09Z" transform="translate(-0.52 -32.91)"/><ellipse class="cls-4" cx="92.48" cy="130.35" rx="13.08" ry="8.48" transform="translate(-37.29 3.44) rotate(-18.62)"/><path class="cls-2" d="M89.18,139.85a15,15,0,0,1-3.66-.44c-3-.77-5.08-2.45-5.85-4.75-1.57-4.66,2.9-10.39,10-12.77s14.09-.52,15.66,4.14c.77,2.3.14,4.89-1.79,7.32a17.59,17.59,0,0,1-8.17,5.45h0A19.29,19.29,0,0,1,89.18,139.85Zm6.61-18.12a18.57,18.57,0,0,0-5.88,1c-6.6,2.23-10.82,7.45-9.4,11.65.67,2,2.53,3.48,5.23,4.17A16.68,16.68,0,0,0,95,138h0a16.7,16.7,0,0,0,7.77-5.16c1.73-2.18,2.31-4.49,1.64-6.49C103.47,123.4,100,121.73,95.79,121.73Z" transform="translate(-0.52 -32.91)"/><ellipse class="cls-4" cx="41.97" cy="126.17" rx="7.68" ry="8.48" transform="translate(-38.6 -12.9) rotate(-18.62)"/><path class="cls-2" d="M42.44,135a8.89,8.89,0,0,1-8.17-6.25,9.36,9.36,0,0,1,.24-6.72,7.62,7.62,0,0,1,10.91-3.68,9.36,9.36,0,0,1,4.25,5.21c1.57,4.66-.61,9.62-4.85,11h0A7.51,7.51,0,0,1,42.44,135Zm-.92-16.81a6.58,6.58,0,0,0-2.11.35,6.82,6.82,0,0,0-4.09,3.84,8.5,8.5,0,0,0-.21,6.09c1.42,4.2,5.65,6.57,9.43,5.3h0c3.78-1.27,5.71-5.73,4.29-9.93A8.44,8.44,0,0,0,45,119.15,7.13,7.13,0,0,0,41.52,118.21Z" transform="translate(-0.52 -32.91)"/><ellipse class="cls-4" cx="80.1" cy="170.9" rx="10.9" ry="1.97" transform="translate(-15.94 -24.79) rotate(-5.29)"/><path class="cls-2" d="M75.33,173.55c-1,0-2,0-2.81-.11-3.23-.28-3.66-1-3.71-1.5s.25-1.28,3.37-2.15a45.76,45.76,0,0,1,7.7-1.3c.46,0,11.29-1,11.51,1.36,0,.51-.25,1.28-3.37,2.15a45.58,45.58,0,0,1-7.7,1.3h0C78.57,173.46,76.87,173.55,75.33,173.55Zm9.56-4.42c-1.41,0-3,.07-4.93.24-6.53.61-10.1,1.94-10.27,2.51.27.49,4,1.14,10.55.54h0c6.53-.6,10.11-1.93,10.27-2.51C90.32,169.56,88.36,169.13,84.89,169.13Z" transform="translate(-0.52 -32.91)"/><path class="cls-6" d="M76.6,173.42c-10.42,0-12.5-2.79-14.23-6.84-1.1-2.55-7.3-4.09-12.28-5.32a54.78,54.78,0,0,1-6.59-1.89l-.43-.18c-5-2.06-12.66-5.17-15.65-8.79-1.07-1.29-3.53-1.25-6.37-1.2-4.39.07-9.85.17-12.41-5-1.09-2.19-2.23-4.13-3.33-6-3-5.14-5.4-9.21-3.76-13.78a12.21,12.21,0,0,0,.8-5.52,7.46,7.46,0,0,1,1.59-5.58,7.19,7.19,0,0,1,2.71-2.43c1.38-.78,1.85-1-.81-9.52-3.58-11.41-1-16.27,1.49-21,.3-.57.6-1.14.89-1.72s.5-1,.75-1.48c2.3-4.51,4-7.76,2.34-14.15-.18-.73-.36-1.39-.52-2-1.46-5.47-1.85-6.94,3.55-13.1,5.64-6.44,13.8-14.58,19.6-11a32.59,32.59,0,0,1,4,3c2.53,2.17,3.81,3.26,6.8,1.3C47,39.78,50.07,39,53.35,38.2c3.72-.92,7.56-1.87,11-4a4.48,4.48,0,0,1,3.51-.73c2.08.53,3.43,2.86,4.74,5.12s2.56,4.41,4.31,4.45c4.54.12,5-.3,5.77-5a5,5,0,0,1,2.06-3.71C87,33,91,33.78,96.72,35.49c13.11,3.9,19,10.93,17.37,20.89-.4,2.54-.15,4.38.75,5.62,1.33,1.81,4,2.22,6.73,2.66,3.22.5,6.54,1,8.4,3.73.76,1.11,1.44,2,2,2.87,2.89,4,4.09,5.66,4.08,12.07A20.38,20.38,0,0,1,134.31,91c-1.22,3.16-2,5.25.82,7.45.8.09,4.86.67,6.93,3.32a5.88,5.88,0,0,1,1.1,4.73c-.72,4.5-1.49,6-2.24,7.5a17.41,17.41,0,0,0-1.19,2.77,38.33,38.33,0,0,0-.92,4.52c-.79,4.65-1.6,9.46-4.05,9.59l-.48,0c-2.84.14-6.06.3-8,2.25-.46.47-1,1.07-1.66,1.75a82.87,82.87,0,0,1-9,8.62c-1.28,1-2.93,2.42-4.68,3.94-4,3.43-8,7-9.83,7.16s-5.4,3.36-6.91,4.82c.41,1.1,1.65,5.15-.47,8.64-1.81,3-5.54,4.68-11.09,5.09C80.4,173.33,78.38,173.42,76.6,173.42Zm-54-25.12c2.4,0,4.39.2,5.5,1.53,2.85,3.45,10.34,6.51,15.3,8.54l.43.18a53.11,53.11,0,0,0,6.47,1.85c5.44,1.35,11.61,2.87,12.88,5.84,1.6,3.73,3.11,7.25,19.45,6,5.25-.39,8.75-2,10.4-4.67,2.19-3.6.33-8.08.31-8.12l-.12-.28.21-.21c.21-.2,5.1-5,7.65-5.27,1.52-.16,5.86-3.92,9.34-6.95,1.76-1.52,3.41-3,4.72-4a83.76,83.76,0,0,0,8.87-8.52c.64-.69,1.21-1.29,1.67-1.77,2.15-2.19,5.55-2.36,8.56-2.51l.47,0c1.75-.09,2.6-5.16,3.22-8.85a39.69,39.69,0,0,1,1-4.66,17.74,17.74,0,0,1,1.24-2.89c.75-1.48,1.46-2.88,2.15-7.24a5.06,5.06,0,0,0-.92-4c-2-2.58-6.39-3-6.43-3h-.13l-.1-.08c-3.5-2.62-2.44-5.37-1.22-8.55a19.92,19.92,0,0,0,1.72-7.34c0-6.12-1.06-7.6-3.91-11.55-.6-.83-1.28-1.77-2-2.89-1.64-2.4-4.77-2.89-7.8-3.36s-5.77-.9-7.31-3c-1-1.44-1.35-3.5-.91-6.28,1.52-9.59-4-16.1-16.75-19.9-5.36-1.59-9.33-2.4-11.27-1.18a4.17,4.17,0,0,0-1.66,3.11c-.81,5.09-1.68,5.84-6.66,5.71-2.25-.06-3.68-2.52-5.06-4.9-1.21-2.1-2.47-4.26-4.19-4.7A3.64,3.64,0,0,0,64.8,35c-3.54,2.15-7.63,3.16-11.24,4.05-3.2.79-6.22,1.54-8.36,2.94-3.55,2.33-5.36.78-7.87-1.37a30.37,30.37,0,0,0-3.86-2.94c-5.22-3.25-13,4.61-18.47,10.8-5.09,5.81-4.79,6.93-3.36,12.29.17.62.34,1.28.53,2,1.7,6.71-.12,10.27-2.41,14.77Q9.39,78.28,9,79c-.29.59-.59,1.17-.9,1.75C5.7,85.32,3.21,90,6.69,101.08c2.75,8.79,2.36,9.44.4,10.55a6.32,6.32,0,0,0-2.42,2.16,6.62,6.62,0,0,0-1.44,5,13,13,0,0,1-.85,5.87c-1.49,4.18.79,8.09,3.69,13,1.11,1.89,2.26,3.85,3.36,6.07,2.31,4.69,7.24,4.6,11.6,4.52Z" transform="translate(-0.52 -32.91)"/><g class="cls-7"><path class="cls-8" d="M91.4,95.9a7.25,7.25,0,0,0,3.8,4.71,1.61,1.61,0,0,0,1.16.15,1.49,1.49,0,0,0,.89-.69,1.5,1.5,0,0,0-.54-2,5.91,5.91,0,0,1-1-.62l.31.23a5.45,5.45,0,0,1-1-1l.23.3a6.31,6.31,0,0,1-.75-1.28l.15.36a6.34,6.34,0,0,1-.29-.87,1.5,1.5,0,0,0-1.84-1,1.53,1.53,0,0,0-1,1.84Z" transform="translate(-0.52 -32.91)"/></g><g class="cls-7"><path class="cls-8" d="M55.91,63.39c.06-.11.2-.31,0-.11A3.07,3.07,0,0,1,56.2,63c-.25.22,0,0,.1-.05l.34-.17c-.3.14,0,0,.12,0l.38-.12.72-.22a4.58,4.58,0,0,0,2.89-2.16A3.8,3.8,0,0,0,61,58c0-.26-.1-.52-.14-.78,0,.26,0,.05,0-.09s-.05.11-.09.22c.09-.23-.06,0-.11.11l-.11.05.27-.06a5.81,5.81,0,0,1,.7-.11,14.8,14.8,0,0,1,2.21-.07,1.5,1.5,0,0,0,1.5-1.5,1.53,1.53,0,0,0-1.5-1.5,14.7,14.7,0,0,0-2.3.08A5.7,5.7,0,0,0,59,55a2.59,2.59,0,0,0-1.17,2.19A6.5,6.5,0,0,0,58,58.22c0,.15.06.31.08.46,0-.27,0,0,0,.12s-.08.38,0,.09c-.1.32.14-.18,0,.07s-.08.13,0,0l-.12.12c-.3.24.14-.05-.12.1l-.33.19c-.1,0-.34.15-.1.06-.27.1-.55.18-.83.27a5,5,0,0,0-3.27,2.2,1.5,1.5,0,0,0,2.59,1.51Z" transform="translate(-0.52 -32.91)"/></g><g class="cls-7"><path class="cls-8" d="M102.81,60.56l.58.06-.4,0a5.65,5.65,0,0,1,1.4.36l-.36-.15a2.42,2.42,0,0,1,.6.35l-.3-.24a2.19,2.19,0,0,1,.34.34l-.23-.3a2.88,2.88,0,0,1,.22.38L104.5,61a2.65,2.65,0,0,1,.16.63l0-.4a10,10,0,0,0,.21,1.54,2.45,2.45,0,0,0,1.23,1.61,1.59,1.59,0,0,0,1.15.15,1.49,1.49,0,0,0,.9-.69,1.5,1.5,0,0,0-.54-2,.76.76,0,0,1-.19-.12l.3.24-.15-.16.24.31a1.71,1.71,0,0,1-.13-.23l.15.36a2.92,2.92,0,0,1-.14-.6l0,.4a9.12,9.12,0,0,0-.24-1.65,3.42,3.42,0,0,0-1.36-1.81,6.63,6.63,0,0,0-3.28-.93,1.5,1.5,0,0,0-1.5,1.5,1.5,1.5,0,0,0,.44,1.06,1.66,1.66,0,0,0,1.06.44Z" transform="translate(-0.52 -32.91)"/></g><g class="cls-7"><path class="cls-8" d="M116.74,103.35a.72.72,0,0,1,.07.25l0-.4a.89.89,0,0,1,0,.23l0-.39a2,2,0,0,1-.07.23l.15-.36a1.61,1.61,0,0,1-.2.33l.24-.31a3.15,3.15,0,0,1-.62.59l.31-.23a18.57,18.57,0,0,0-2,1.57,10.36,10.36,0,0,0-1.57,2l2.8.76a1.28,1.28,0,0,1,0-.19l-.05.4a1,1,0,0,1,.07-.25l-.15.36.1-.17-.24.31a1.85,1.85,0,0,1,.14-.14l-.3.23.1-.07a1.5,1.5,0,1,0-1.51-2.59,2.3,2.3,0,0,0-1.15,2.11,1.59,1.59,0,0,0,.32.91,1.38,1.38,0,0,0,.78.53,1.54,1.54,0,0,0,1.69-.68c.19-.32.39-.62.61-.92l-.23.31a8.69,8.69,0,0,1,1.54-1.55l-.3.23a12.26,12.26,0,0,0,1.65-1.3,2.57,2.57,0,0,0,.69-2.63,1.62,1.62,0,0,0-.68-.9,1.52,1.52,0,0,0-1.16-.15,1.55,1.55,0,0,0-.9.69,1.46,1.46,0,0,0-.15,1.15Z" transform="translate(-0.52 -32.91)"/></g><g class="cls-7"><path class="cls-8" d="M56.43,62.71A8.17,8.17,0,0,0,60.24,62a2.34,2.34,0,0,0,1.39-1.79,2.15,2.15,0,0,0-.29-1.42A9.89,9.89,0,0,0,60.7,58l.23.3a2.43,2.43,0,0,1-.33-.56l.15.35a1.85,1.85,0,0,1-.11-.42l0,.4a2.16,2.16,0,0,1,0-.36l-.06.4a1.58,1.58,0,0,1,.09-.31l-.15.36a1.56,1.56,0,0,1,.16-.28l-.23.31a1.54,1.54,0,0,1,.17-.19l-.3.24a1.07,1.07,0,0,1,.27-.16l-.36.15.18-.05-.4.06h.13a1.54,1.54,0,0,0,1.5-1.5,1.52,1.52,0,0,0-1.5-1.5,2.63,2.63,0,0,0-2.5,2.48,3.14,3.14,0,0,0,.38,1.67,5.9,5.9,0,0,0,.82,1.11l-.24-.3a1.17,1.17,0,0,1,.17.28l-.15-.36a1.33,1.33,0,0,1,0,.19l-.06-.4a.29.29,0,0,1,0,.13l.05-.4a1,1,0,0,1,0,.17l.15-.36-.1.15.24-.31a.73.73,0,0,1-.18.17l.31-.23a1.87,1.87,0,0,1-.39.22l.36-.15a6.85,6.85,0,0,1-1.71.45l.4-.06a7.29,7.29,0,0,1-1.32.05,1.5,1.5,0,0,0,0,3Z" transform="translate(-0.52 -32.91)"/></g><g class="cls-7"><path class="cls-8" d="M90.79,95.56a1.79,1.79,0,0,0,0,.4,3.19,3.19,0,0,0,.14.76,4.38,4.38,0,0,0,.31.7,5.22,5.22,0,0,0,.45.6,1.79,1.79,0,0,0,.28.27,5.35,5.35,0,0,0,.62.44,3.47,3.47,0,0,0,1.48.39,1.08,1.08,0,0,0,.58-.13,1.14,1.14,0,0,0,.48-.31,1.08,1.08,0,0,0,.31-.48,1.15,1.15,0,0,0,.13-.58,1.54,1.54,0,0,0-.44-1.06,1.61,1.61,0,0,0-1.06-.44H93.9l.4,0a1.48,1.48,0,0,1-.41-.12l.36.16a2.3,2.3,0,0,1-.43-.25l.31.23a2,2,0,0,1-.39-.38l.23.3a2,2,0,0,1-.25-.43l.16.36a1.83,1.83,0,0,1-.14-.47l.06.4a1.79,1.79,0,0,1,0-.4,1.06,1.06,0,0,0-.13-.58,1,1,0,0,0-.31-.48,1.08,1.08,0,0,0-.48-.31,1.06,1.06,0,0,0-.58-.13,1.5,1.5,0,0,0-1.06.44l-.23.3a1.45,1.45,0,0,0-.21.76Z" transform="translate(-0.52 -32.91)"/></g><g class="cls-7"><path class="cls-8" d="M102.48,60.77l.12,0-.4.06a2.58,2.58,0,0,1,.68,0l-.4-.06a3.46,3.46,0,0,1,.7.19l-.36-.15a3,3,0,0,1,.62.37l-.3-.24a2.73,2.73,0,0,1,.48.48l-.23-.3a2.06,2.06,0,0,1,.23.37,1.49,1.49,0,0,0,.9.69,1.56,1.56,0,0,0,1.16-.15,1.52,1.52,0,0,0,.69-.9,1.6,1.6,0,0,0-.16-1.15,4,4,0,0,0-1.75-1.7,4.31,4.31,0,0,0-1.16-.4,5.29,5.29,0,0,0-.8-.07,4.57,4.57,0,0,0-.82.09,1.51,1.51,0,0,0-.9.69,1.61,1.61,0,0,0-.15,1.16,1.54,1.54,0,0,0,.69.89l.36.15a1.55,1.55,0,0,0,.8,0Z" transform="translate(-0.52 -32.91)"/></g><g class="cls-7"><path class="cls-8" d="M35.23,150.15c.89.76,1.5,1.75,2.32,2.58a5.29,5.29,0,0,0,3.34,1.63,3.6,3.6,0,0,0,1.59-.22,3.46,3.46,0,0,0,1-.62l.2-.21c.1-.11.19-.23.28-.35l0,0c.06.31-.71.35-1,.25.14.09.16.09,0,0l.1.1.31.31c.28.3-.11-.2.11.15a3.6,3.6,0,0,1,.22.37c0,.06.18.43.09.17,0,.11.08.23.11.34s.11.55.07.24a1.53,1.53,0,0,0,1.5,1.5c.72,0,1.6-.67,1.5-1.5a5.91,5.91,0,0,0-1.89-3.8,2.64,2.64,0,0,0-2.44-.7,2.27,2.27,0,0,0-1.18.91c-.22.28.08-.19-.08.07s-.11.1,0,0c-.13.07-.13.08,0,0s-.16,0-.19.05-.08,0,.11,0h-.17s-.44,0-.22,0-.23-.06-.28-.07a3.59,3.59,0,0,1-.35-.12c.24.1,0,0-.09-.06l-.31-.2c.3.19-.07-.07-.11-.11-.93-.86-1.58-2-2.54-2.79a1.54,1.54,0,0,0-2.12,0,1.5,1.5,0,0,0,0,2.12Z" transform="translate(-0.52 -32.91)"/></g><g class="cls-7"><path class="cls-8" d="M35.49,150.81A24.72,24.72,0,0,0,38,153.69c1,1,2.33,2,3.85,1.53a4.09,4.09,0,0,0,2.05-2,1.64,1.64,0,0,0,.14-.22l-.09.11L44,153l.11-.11-.18.15c.22-.15-.34.1-.09,0-.28,0-.34,0-.17,0a.41.41,0,0,1-.27,0c-.14-.05-.32-.2-.09,0,.07.08.05.06-.06-.08l.1.15a3.9,3.9,0,0,1,.19.35A1.5,1.5,0,1,0,46.15,152a2.77,2.77,0,0,0-3.2-1.73c-1,.3-1.46,1.21-2,2-.13.19-.16.09,0,0a.73.73,0,0,0-.17.18c-.2.23.26-.24,0,0-.1,0-.1,0,0,0a.43.43,0,0,1,.22-.06l.09,0a1.39,1.39,0,0,1-.19-.06c.29.11-.08-.07-.12-.09-.28-.17.09.1-.14-.1l-.32-.29c-.43-.4-.85-.82-1.25-1.25l-.63-.72c-.09-.11-.19-.22-.28-.34l-.17-.22a1.55,1.55,0,0,0-2.06-.53,1.51,1.51,0,0,0-.53,2.05Z" transform="translate(-0.52 -32.91)"/></g><g class="cls-7"><path class="cls-8" d="M37.74,152.53a6,6,0,0,0,1.79,2,4.89,4.89,0,0,0,.86.49,5.82,5.82,0,0,0,1.28.42,1.64,1.64,0,0,0,1.15-.15,1.55,1.55,0,0,0,.69-.9,1.52,1.52,0,0,0-.15-1.16,1.49,1.49,0,0,0-.89-.69,4.2,4.2,0,0,1-.92-.26l.36.15a4.22,4.22,0,0,1-1-.58l.3.24a4.68,4.68,0,0,1-.76-.78l.23.31a4.28,4.28,0,0,1-.37-.57,1.47,1.47,0,0,0-.89-.69,1.52,1.52,0,0,0-1.16.15,1.54,1.54,0,0,0-.54,2.05Z" transform="translate(-0.52 -32.91)"/></g><g class="cls-7"><path class="cls-8" d="M91.86,98.71l.94,1.18a1.17,1.17,0,0,0,.48.31,1.36,1.36,0,0,0,1.16,0,1.24,1.24,0,0,0,.48-.31l.23-.31a1.42,1.42,0,0,0,.21-.75l0-.4a1.53,1.53,0,0,0-.39-.66L94,96.59a1.23,1.23,0,0,0-.49-.32,1.14,1.14,0,0,0-.58-.12,1.13,1.13,0,0,0-.57.12,1.23,1.23,0,0,0-.49.32l-.23.3a1.52,1.52,0,0,0-.21.76l.06.39a1.54,1.54,0,0,0,.38.67Z" transform="translate(-0.52 -32.91)"/></g><g class="cls-7"><path class="cls-8" d="M115.9,106.45l2.33-.56a1.55,1.55,0,0,0,.9-.69,1.61,1.61,0,0,0,.15-1.16,1.54,1.54,0,0,0-.69-.89,1.61,1.61,0,0,0-1.16-.15l-2.33.56a1.51,1.51,0,0,0-.9.69,1.59,1.59,0,0,0-.15,1.15,1.56,1.56,0,0,0,.69.9,1.61,1.61,0,0,0,1.16.15Z" transform="translate(-0.52 -32.91)"/></g><g class="cls-7"><path class="cls-8" d="M29.91,107.25l.24.28s.28.36.09.1c.13.19.26.37.38.58,0,0,.2.39.11.2s0,.12.05.16l.06.23,0-.17a1,1,0,0,1,0,.17c0,.11,0,.08,0-.11,0,0-.16.44,0,.12,0,.11-.12.23-.18.34a5.33,5.33,0,0,0-.39.84,3.41,3.41,0,0,0-.16,1.35,4.13,4.13,0,0,0,4,3.86,1.5,1.5,0,1,0,0-3h-.14c-.12,0-.07,0,.16,0a1.42,1.42,0,0,0-.22,0s-.17-.08-.22-.07c.2.09.25.11.15,0l-.12-.06-.08,0c-.11-.07-.11-.07,0,0h0l-.07-.06-.19-.2c-.19-.19.11.19,0,0a3.14,3.14,0,0,0-.26-.45c.07,0,.11.34,0,0l-.06-.22c-.09-.29,0,.33,0,0V111c0-.3,0,0,0,.08a2.13,2.13,0,0,0,.07-.27c.07-.24-.11.18,0,0s.11-.2.16-.29a4.71,4.71,0,0,0,.39-.89,3.43,3.43,0,0,0,0-1.77A6.67,6.67,0,0,0,32,105.13a1.51,1.51,0,0,0-2.12,0,1.53,1.53,0,0,0,0,2.12Z" transform="translate(-0.52 -32.91)"/></g><g class="cls-7"><path class="cls-8" d="M30.45,109.06a4,4,0,0,1,.27.31l-.23-.3a3.85,3.85,0,0,1,.41.71l-.15-.36a3.67,3.67,0,0,1,.22.85l0-.4a3.29,3.29,0,0,1,0,.83l.06-.4a3.17,3.17,0,0,1-.22.8l.15-.36,0,.05a1,1,0,0,0-.17.56,1.08,1.08,0,0,0,0,.59,1.56,1.56,0,0,0,.69.9,1.52,1.52,0,0,0,1.16.15,1.44,1.44,0,0,0,.89-.69,4.57,4.57,0,0,0,.31-.8,6,6,0,0,0,.14-.85,4.7,4.7,0,0,0-.09-1.35,4.56,4.56,0,0,0-1.27-2.36,1.58,1.58,0,0,0-1.06-.44,1.5,1.5,0,0,0-1.06.44,1.52,1.52,0,0,0,0,2.12Z" transform="translate(-0.52 -32.91)"/></g><g class="cls-7"><path class="cls-8" d="M30.65,110.43l1,1.63a1,1,0,0,0,.38.42,1.06,1.06,0,0,0,.51.27,1.22,1.22,0,0,0,.6,0,1.12,1.12,0,0,0,.56-.18,1.52,1.52,0,0,0,.69-.9,1.54,1.54,0,0,0-.15-1.15l-1-1.64a1.18,1.18,0,0,0-.38-.42,1.26,1.26,0,0,0-.51-.27,1.73,1.73,0,0,0-1.16.16,1.5,1.5,0,0,0-.69.89,1.56,1.56,0,0,0,.15,1.16Z" transform="translate(-0.52 -32.91)"/></g><g class="cls-7"><path class="cls-8" d="M31.41,111.48a3.63,3.63,0,0,0,.28.78,1.87,1.87,0,0,0,.22.39,4,4,0,0,0,.53.63,5.55,5.55,0,0,0,.46.35,1.37,1.37,0,0,0,.2.13,1.12,1.12,0,0,0,.56.18,1.19,1.19,0,0,0,.59,0,1,1,0,0,0,.51-.27,1,1,0,0,0,.39-.42l.15-.36a1.51,1.51,0,0,0,0-.79l-.15-.36a1.4,1.4,0,0,0-.54-.54l-.26-.17.31.23a1.93,1.93,0,0,1-.35-.35l.23.31a2.51,2.51,0,0,1-.26-.45l.15.36a1.93,1.93,0,0,1-.12-.41,1.23,1.23,0,0,0-.27-.52,1.18,1.18,0,0,0-.42-.38,1.66,1.66,0,0,0-1.16-.15l-.36.15a1.45,1.45,0,0,0-.53.54l-.16.36a1.51,1.51,0,0,0,0,.79Z" transform="translate(-0.52 -32.91)"/></g><g class="cls-7"><path class="cls-8" d="M10.51,96.75s-.25-.29-.17-.19-.12-.18-.14-.21L10,96s-.14-.34-.06-.12a6.55,6.55,0,0,1-.19-.63c0-.12,0-.25-.07-.37,0,.22,0,0,0-.12s0-.44,0-.67c0-.42-.07.23,0-.19,0-.09,0-.19.07-.29a2.3,2.3,0,0,1,.1-.35c0-.08.11-.32,0-.13.1-.23.23-.43.35-.65,0-.06.12-.18,0-.05a3.22,3.22,0,0,1,.24-.28c.18-.19.39-.34.57-.53a2.48,2.48,0,0,0,.74-2.26,9.3,9.3,0,0,0-1.77-3.71A1.55,1.55,0,0,0,8,85.14,1.52,1.52,0,0,0,7.5,87.2a10.84,10.84,0,0,1,1,1.7,6.21,6.21,0,0,1,.31.75c.05.17.06.61.14.12,0-.29.14-.33,0-.18A6.4,6.4,0,0,0,7,92.42a6.5,6.5,0,0,0,1.36,6.45,1.5,1.5,0,0,0,2.12-2.12Z" transform="translate(-0.52 -32.91)"/></g><g class="cls-7"><path class="cls-8" d="M11,95.45a14.64,14.64,0,0,1,.68-2.16c0-.08.1-.34,0,0a1.89,1.89,0,0,1,.09-.21c.07-.17.15-.34.23-.51a7.87,7.87,0,0,0,.49-1.3,3.59,3.59,0,0,0-.3-2.65,2.77,2.77,0,0,0-2.36-1.43,1.51,1.51,0,0,0-1.5,1.5,1.54,1.54,0,0,0,1.5,1.5q.24,0-.15,0c.15,0,.11,0-.13-.07l.14.08c-.19-.15-.23-.18-.11-.07s-.22-.3,0,0c.07.14.06.1,0-.12l.06.16,0,.17c0-.25,0-.3,0-.14v.22c0-.21,0-.24,0-.07s-.07.29-.11.43l-.06.16c-.24.66-.57,1.28-.82,1.94a18.25,18.25,0,0,0-.54,1.78,1.5,1.5,0,1,0,2.9.8Z" transform="translate(-0.52 -32.91)"/></g><g class="cls-7"><path class="cls-8" d="M11.77,94.14a5.61,5.61,0,0,0,.53-4.42,1.59,1.59,0,0,0-.69-.9,1.52,1.52,0,0,0-1.16-.15,1.5,1.5,0,0,0-1,1.84,4.89,4.89,0,0,1,.14.64l-.05-.4a5,5,0,0,1,0,1.09l.05-.39a4.29,4.29,0,0,1-.28,1l.15-.36a4.44,4.44,0,0,1-.24.49A1.56,1.56,0,0,0,9,93.79a1.49,1.49,0,0,0,.69.89,1.52,1.52,0,0,0,2-.54Z" transform="translate(-0.52 -32.91)"/></g><g class="cls-7"><path class="cls-8" d="M12,92.08l-.24-.94a1.15,1.15,0,0,0-.27-.51,1,1,0,0,0-.42-.38,1.12,1.12,0,0,0-.56-.18,1,1,0,0,0-.59,0l-.36.15a1.45,1.45,0,0,0-.54.53l-.15.36a1.55,1.55,0,0,0,0,.8l.23.94a1.14,1.14,0,0,0,.27.51,1.31,1.31,0,0,0,.42.39,1.16,1.16,0,0,0,.56.18,1.22,1.22,0,0,0,.6,0l.36-.15a1.64,1.64,0,0,0,.54-.54l.15-.36a1.55,1.55,0,0,0,0-.8Z" transform="translate(-0.52 -32.91)"/></g><g class="cls-7"><path class="cls-8" d="M97.22,152.67c.13-.06.14-.07,0,0s-.1,0,0,0l.11,0c-.2,0-.24,0-.13,0h.28c.36,0-.31-.07.06,0s.84.2,1.26.3a4.54,4.54,0,0,0,2.48,0,2.79,2.79,0,0,0,1.94-2,3.94,3.94,0,0,0,.07-.77,1.34,1.34,0,0,0,0-.28c0,.23,0,.29,0,.18s0-.06-.08.16a1,1,0,0,1-1,.47.53.53,0,0,1-.3-.09l.08,0c.11.08.11.08,0,0s-.09-.07,0,0,.26.33,0,0a1.5,1.5,0,0,0,2.59-1.51,3.56,3.56,0,0,0-1.47-1.28,2,2,0,0,0-2.27.44,2.6,2.6,0,0,0-.6,1.83,1.34,1.34,0,0,0,0,.28c0-.25,0-.3,0-.15l.09-.21-.08.13.15-.19-.11.11.15-.12s-.33.15-.07.05,0,0-.09,0-.37,0-.1,0-.1,0-.15,0h-.35c-.16,0-.11,0,.15,0a4.66,4.66,0,0,0-.62-.15,4.94,4.94,0,0,0-3.61.1,1.51,1.51,0,0,0-.54,2,1.53,1.53,0,0,0,2,.54Z" transform="translate(-0.52 -32.91)"/></g><g class="cls-7"><path class="cls-8" d="M97.46,151.69a3.52,3.52,0,0,0,2.75,1,3.91,3.91,0,0,0,1.6-.48,3.45,3.45,0,0,0,1.2-1.14,1.51,1.51,0,0,0-.54-2.06,1.56,1.56,0,0,0-1.16-.15,1.65,1.65,0,0,0-.89.69l-.09.13.23-.3a2.57,2.57,0,0,1-.33.33l.3-.24a2.82,2.82,0,0,1-.44.26l.36-.15a2.91,2.91,0,0,1-.58.15l.4-.05a2.22,2.22,0,0,1-.63,0l.4.06a2.3,2.3,0,0,1-.53-.14l.36.15a1.76,1.76,0,0,1-.44-.26l.3.23-.15-.13a1.56,1.56,0,0,0-1.06-.44,1.54,1.54,0,0,0-1.06.44,1.52,1.52,0,0,0-.44,1.06,1.54,1.54,0,0,0,.44,1.06Z" transform="translate(-0.52 -32.91)"/></g><g class="cls-7"><path class="cls-8" d="M98.15,152.5a8.15,8.15,0,0,0,1.71.11,8.73,8.73,0,0,0,1.69-.25,1.59,1.59,0,0,0,.9-.69,1.52,1.52,0,0,0,.15-1.16,1.5,1.5,0,0,0-.69-.89,1.59,1.59,0,0,0-1.15-.16,7.2,7.2,0,0,1-.78.16l.4-.05a7.15,7.15,0,0,1-1.73,0l.4.05H99a1.22,1.22,0,0,0-.6,0,1.16,1.16,0,0,0-.56.18,1.56,1.56,0,0,0-.69.9,1.54,1.54,0,0,0,.16,1.15,1.4,1.4,0,0,0,.89.69Z" transform="translate(-0.52 -32.91)"/></g><g class="cls-7"><path class="cls-8" d="M99.73,152.76l2.11.05a1.54,1.54,0,0,0,1.06-.44,1.14,1.14,0,0,0,.31-.48,1.08,1.08,0,0,0,.13-.58,1.5,1.5,0,0,0-.44-1.06,1.56,1.56,0,0,0-1.06-.44l-2.11-.05a1.58,1.58,0,0,0-1.07.43,1.21,1.21,0,0,0-.31.49,1.14,1.14,0,0,0-.12.58,1.51,1.51,0,0,0,.43,1.06,1.63,1.63,0,0,0,1.07.44Z" transform="translate(-0.52 -32.91)"/></g><g class="cls-7"><path class="cls-8" d="M66.91,105.39a4.21,4.21,0,0,0,3.89,6.55,1.55,1.55,0,0,0,1.5-1.5c0,.26,0,.31,0,.16l-.09.21c.12-.24-.24.23,0,.06-.32.28-.13.11,0,0s-.3.08,0,0l.26-.07c.3-.07-.31,0,0,0h.28c.27,0-.39-.07,0,0,1.17.2,2.46.47,3.52-.28a1.53,1.53,0,0,0,.53-2,1.51,1.51,0,0,0-2.05-.54.94.94,0,0,1-.18.12c.19-.07.21-.08,0,0-.32.07.28,0,0,0l-.46,0c-.34,0,.25.06-.06,0a6.66,6.66,0,0,0-1.78-.19,3.6,3.6,0,0,0-1.74.55,2.55,2.55,0,0,0-1.13,2l1.5-1.5-.37,0c-.08,0-.39-.07-.17,0L70,108.9l-.1,0q-.22-.09.06,0a1.46,1.46,0,0,0-.28-.15l-.13-.09c-.09-.06-.06,0,.09.07-.07,0-.17-.16-.22-.22-.22-.19.14.24-.06-.07l-.1-.16c.1.19-.06-.18-.07-.23l0-.11c0-.17,0-.14,0,.07,0-.05,0-.27,0-.33a.86.86,0,0,1,0-.16c0-.12,0-.07,0,.12,0-.06,0-.24.07-.32l.08-.2-.07.16c0-.09.18-.32.23-.38a1.5,1.5,0,0,0-.54-2.05,1.53,1.53,0,0,0-2,.54Z" transform="translate(-0.52 -32.91)"/></g><g class="cls-7"><path class="cls-8" d="M67.62,107.58l0,.07-.15-.36a2.44,2.44,0,0,1,.15.59l-.05-.4c.07.64,0,1.28,0,1.92a3.72,3.72,0,0,0,1,2.23,2.54,2.54,0,0,0,2.51.66,4.17,4.17,0,0,0,1-.46,3.85,3.85,0,0,1,.62-.36l-.36.15a1,1,0,0,1,.25-.08l-.4.06h.17l-.4-.06.17,0-.36-.15.08,0a1.5,1.5,0,1,0,1.52-2.59,2.32,2.32,0,0,0-2.27,0c-.35.16-.64.42-1,.57l.36-.15a1.39,1.39,0,0,1-.33.1l.4,0a1.13,1.13,0,0,1-.26,0l.4,0a.88.88,0,0,1-.23-.07l.35.16-.25-.16.31.24a1.52,1.52,0,0,1-.25-.26l.23.3a1.76,1.76,0,0,1-.24-.42l.15.36a3.06,3.06,0,0,1-.17-.59l.06.4a10.29,10.29,0,0,1,0-1.36,6.62,6.62,0,0,0-.09-1,3.44,3.44,0,0,0-.33-1,1.49,1.49,0,0,0-.9-.69,1.54,1.54,0,0,0-1.15.15,1.52,1.52,0,0,0-.69.9l0,.4a1.41,1.41,0,0,0,.2.75Z" transform="translate(-0.52 -32.91)"/></g><g class="cls-7"><path class="cls-8" d="M67.88,108.9a5.17,5.17,0,0,0,.51,1.06A5.28,5.28,0,0,0,70,111.6a6,6,0,0,0,1,.52,1.82,1.82,0,0,0,1.16-.15,1.55,1.55,0,0,0,.69-.9,1.52,1.52,0,0,0-.15-1.16l-.24-.3a1.47,1.47,0,0,0-.66-.39l-.09,0,.36.15a4.12,4.12,0,0,1-.81-.48l.3.24a4.1,4.1,0,0,1-.69-.69l.23.3a3.64,3.64,0,0,1-.47-.81l.15.36-.06-.15a1.23,1.23,0,0,0-.27-.52,1.18,1.18,0,0,0-.42-.38,1.66,1.66,0,0,0-1.16-.15,1.52,1.52,0,0,0-1.05,1.84Z" transform="translate(-0.52 -32.91)"/></g><g class="cls-7"><path class="cls-8" d="M69.61,111.15l.23,0-.4,0a3.2,3.2,0,0,1,.82.22l-.36-.15a3.3,3.3,0,0,1,.73.42l-.3-.23a3.11,3.11,0,0,1,.33.29,1.56,1.56,0,0,0,1.06.44,1.06,1.06,0,0,0,.58-.13,1.14,1.14,0,0,0,.48-.31,1.5,1.5,0,0,0,.44-1.06,1.61,1.61,0,0,0-.44-1.06,4.8,4.8,0,0,0-.74-.61,3.26,3.26,0,0,0-.55-.31,5.74,5.74,0,0,0-.9-.34,5.38,5.38,0,0,0-1-.14,1.15,1.15,0,0,0-.58.13,1,1,0,0,0-.48.31,1.14,1.14,0,0,0-.31.48,1.06,1.06,0,0,0-.13.58,1.46,1.46,0,0,0,.44,1.06l.3.24a1.54,1.54,0,0,0,.76.2Z" transform="translate(-0.52 -32.91)"/></g><g class="cls-7"><path class="cls-8" d="M42.81,45.68a6.24,6.24,0,0,0,3.5-.28,16.69,16.69,0,0,0,2.95-1.57,1.5,1.5,0,0,0-1.52-2.59,18.3,18.3,0,0,1-1.81,1.07c-.08,0-.39.13-.43.2l.14-.06-.13,0-.26.1a5.5,5.5,0,0,1-1,.24l.4-.06a4.34,4.34,0,0,1-1.08,0l.4.05-.37-.07a1.5,1.5,0,0,0-.8,2.9Z" transform="translate(-0.52 -32.91)"/></g><g class="cls-7"><path class="cls-8" d="M45.59,46.55l3-1.09a1.67,1.67,0,0,0,.9-.69A1.5,1.5,0,0,0,49,42.72a1.47,1.47,0,0,0-1.16-.15l-3,1.09a1.61,1.61,0,0,0-.9.68,1.52,1.52,0,0,0-.15,1.16,1.55,1.55,0,0,0,.69.9,1.52,1.52,0,0,0,1.16.15Z" transform="translate(-0.52 -32.91)"/></g><g class="cls-7"><path class="cls-8" d="M47.84,45.72l.47-.71a1.12,1.12,0,0,0,.18-.56,1,1,0,0,0,0-.6,1.13,1.13,0,0,0-.26-.51,1.18,1.18,0,0,0-.42-.38l-.36-.15a1.55,1.55,0,0,0-.8,0l-.36.15a1.55,1.55,0,0,0-.54.54l-.47.7a1.12,1.12,0,0,0-.18.56,1.22,1.22,0,0,0,0,.6,1.26,1.26,0,0,0,.27.51,1.18,1.18,0,0,0,.42.38l.36.16a1.55,1.55,0,0,0,.8,0l.35-.16a1.45,1.45,0,0,0,.54-.53Z" transform="translate(-0.52 -32.91)"/></g><g class="cls-7"><path class="cls-8" d="M47,45.05a1.5,1.5,0,0,0,0-3,1.5,1.5,0,0,0,0,3Z" transform="translate(-0.52 -32.91)"/></g></svg>