<svg id="Capa_1" data-name="Capa 1" xmlns="http://www.w3.org/2000/svg" xmlns:xlink="http://www.w3.org/1999/xlink" viewBox="0 0 149.92 49.78"><defs><style>.cls-1{fill:#fff;stroke-width:2px;}.cls-1,.cls-9{stroke:#fff;stroke-linecap:round;stroke-linejoin:round;}.cls-2,.cls-8{fill:#1a1a1a;}.cls-10,.cls-2{stroke:#1a1a1a;stroke-miterlimit:10;}.cls-2{stroke-width:0.25px;}.cls-3{fill:#333;}.cls-4{fill:url(#Degradado_sin_nombre_17);}.cls-5{fill:#b3b3b3;}.cls-6{fill:#4d4d4d;}.cls-7{fill:#e6e6e6;}.cls-10,.cls-9{fill:#f2f2f2;}.cls-9{stroke-width:1.5px;}.cls-10{stroke-width:0.5px;}</style><linearGradient id="Degradado_sin_nombre_17" x1="625.95" y1="603.25" x2="650.59" y2="589.02" gradientUnits="userSpaceOnUse"><stop offset="0" stop-opacity="0"/><stop offset="0.11" stop-color="#005f5f" stop-opacity="0.15"/><stop offset="0.23" stop-color="#00b6b6" stop-opacity="0.29"/><stop offset="0.33" stop-color="#00ecec" stop-opacity="0.37"/><stop offset="0.39" stop-color="aqua" stop-opacity="0.4"/><stop offset="0.9" stop-opacity="0"/></linearGradient></defs><path class="cls-1" d="M545.84,599.14V589.3s11.27-7.07,16-8.95,23.48-4.69,26.3-3.75,2.82,1.87,2.82,1.87,3.28,3.29,17.37,3.29,28.17,1.88,35.68,6.58,12.32,7.51,21.19,10.8,8.87,6.1,8.87,8.92,0,7.51-5.64,9.39-7.51,5.63-25.35,4.69-19.73.94-28.18,1.88-51.65-1.88-61-11.27S545.84,599.14,545.84,599.14Z" transform="translate(-525.1 -575.41)"/><path class="cls-2" d="M665.71,614.63c-5.49,1.88-13.28,1.88-19.86,0s-14.08-.94-18.78-.94-9.39,0-10.33-1.88a12.54,12.54,0,0,1-.94-4.69c-9.39.94-31,0-46.95-1.88s-23-6.1-23-6.1-1.41,4.22,8,13.61,52.59,12.21,61,11.27,10.33-2.82,28.18-1.88,19.72-2.81,25.35-4.69,5.64-6.58,5.64-9.39A17,17,0,0,1,665.71,614.63Z" transform="translate(-525.1 -575.41)"/><path class="cls-3" d="M653.42,593.92A25.56,25.56,0,0,1,640.47,603s-13.26-2.65-18.4-6.46c0,0,7.84.36,21.45-8.48C643.52,588.06,652.34,593.36,653.42,593.92Z" transform="translate(-525.1 -575.41)"/><path class="cls-4" d="M653.42,593.92A25.56,25.56,0,0,1,640.47,603s-13.26-2.65-18.4-6.46c0,0,7.84.36,21.45-8.48C643.52,588.06,652.34,593.36,653.42,593.92Z" transform="translate(-525.1 -575.41)"/><path class="cls-5" d="M545.84,589.3s8.28-.16,11,.89.89,6.29,10.5,7.45,23.48,1.67,26.29,1.81,17.15.52,19.26,2.9a15.57,15.57,0,0,1,2.92,4.77s-46.43,3.4-70-8Z" transform="translate(-525.1 -575.41)"/><polygon class="cls-3" points="39.68 16.86 35.41 12.43 35.56 12.42 34.27 13.51 35.41 12.27 35.47 12.2 35.56 12.27 40.35 16.12 39.68 16.86"/><polygon class="cls-3" points="43.05 13.82 38.77 9.45 38.93 9.46 37.36 10.58 38.78 9.27 38.85 9.21 38.93 9.27 43.72 13.08 43.05 13.82"/><polygon class="cls-3" points="47.32 11.13 42.76 6.91 42.9 6.92 41.23 7.87 42.77 6.72 42.83 6.67 42.91 6.73 47.95 10.36 47.32 11.13"/><polygon class="cls-3" points="54.29 7.93 49.64 4.04 49.89 4.07 45.28 5.73 45.29 5.65 46.2 6.38 45.23 5.73 45.16 5.68 45.24 5.64 49.7 3.61 49.82 3.55 49.94 3.64 54.9 7.14 54.29 7.93"/><polygon class="cls-3" points="58.92 6.71 54.52 2.67 54.63 2.69 52.61 3.06 54.57 2.44 54.62 2.43 54.68 2.47 59.55 5.93 58.92 6.71"/><polygon class="cls-3" points="63.41 5.67 59.44 2.17 59.51 2.2 57.69 2.07 59.51 1.94 59.55 1.94 59.59 1.97 64.02 4.88 63.41 5.67"/><path class="cls-3" d="M637.26,586.93a19,19,0,0,1-3.18,2.13,25,25,0,0,1-3.52,1.54,22.58,22.58,0,0,1-3.72,1,20.37,20.37,0,0,1-3.82.3c1.27-.2,2.52-.37,3.75-.68a28.43,28.43,0,0,0,3.63-1,32.2,32.2,0,0,0,3.51-1.42A34.72,34.72,0,0,0,637.26,586.93Z" transform="translate(-525.1 -575.41)"/><path class="cls-6" d="M613,593.48a13,13,0,0,1,2.71-.72,8.54,8.54,0,0,1,2.81,1.44c.58.5,1.58,1.66-.27,1.24s-2.16-1.21-4-.69-2.1.11-2-.33A1.25,1.25,0,0,1,613,593.48Z" transform="translate(-525.1 -575.41)"/><path class="cls-7" d="M616.48,593.59a2.63,2.63,0,0,1,.73.25,9.32,9.32,0,0,1,1.31.88c.2.21.29.65-.36.41s-1.79-1.12-2.29-1.21S615.9,593.42,616.48,593.59Z" transform="translate(-525.1 -575.41)"/><path class="cls-6" d="M636.68,584.51a7.78,7.78,0,0,1,1.67-.09,5.17,5.17,0,0,1,1.47,1.19c.28.37.72,1.17-.31.7s-1.11-1-2.23-.9-1.24-.19-1.12-.44A.74.74,0,0,1,636.68,584.51Z" transform="translate(-525.1 -575.41)"/><path class="cls-7" d="M638.7,585a1.71,1.71,0,0,1,.4.24,6,6,0,0,1,.66.68c.09.15.09.42-.26.19s-.91-.88-1.19-1S638.38,584.83,638.7,585Z" transform="translate(-525.1 -575.41)"/><path class="cls-8" d="M583.62,599.14c3.67-.15,7.33-.13,11,0s7.33.33,11,.75a33.9,33.9,0,0,1,5.48,1,8.09,8.09,0,0,1,1.37.59,10.72,10.72,0,0,1,1.14.87,7.77,7.77,0,0,1,1.78,2.25,6.6,6.6,0,0,1,.76,2.78,9.08,9.08,0,0,0,.22,2.67,5.51,5.51,0,0,0,1.12,2.38,4.44,4.44,0,0,0,2.28,1.38,4.3,4.3,0,0,1-2.47-1.2,5.71,5.71,0,0,1-1.4-2.43,9.44,9.44,0,0,1-.38-2.77,6,6,0,0,0-.8-2.44,7.87,7.87,0,0,0-1.68-2,9.77,9.77,0,0,0-1.06-.76,6.48,6.48,0,0,0-1.17-.46,35.06,35.06,0,0,0-5.31-.95c-3.61-.44-7.26-.69-10.9-1Z" transform="translate(-525.1 -575.41)"/><path class="cls-9" d="M551.31,605.66s30.56,4.75,39.09,4.92,19.44.81,18.7,2.86-1,1.86-4,2.56-50.9,1.84-59.92,2.93-17.69.15-19,.48,1.46-1.67,2.36-1.75,17.77-5.59,19.41-6.84S551.31,605.66,551.31,605.66Z" transform="translate(-525.1 -575.41)"/><path class="cls-10" d="M551.31,605.66s30.56,4.75,39.09,4.92,19.44.81,18.7,2.86-1,1.86-4,2.56-50.9,1.84-59.92,2.93-17.69.15-19,.48,1.46-1.67,2.36-1.75,17.77-5.59,19.41-6.84S551.31,605.66,551.31,605.66Z" transform="translate(-525.1 -575.41)"/><path class="cls-5" d="M602.68,611.24h0c-2.13,4.18-30.93,4.19-39.47,4.61s-30.24.49-30.24.49h0c-2.37.76-4.15,1.3-4.43,1.32-.9.08-3.62,2.08-2.36,1.75s9.93.61,19-.48S602,616.7,605.06,616s3.3-.5,4-2.56C609.49,612.37,606.67,611.68,602.68,611.24Z" transform="translate(-525.1 -575.41)"/><path d="M602.68,611.24a3.52,3.52,0,0,1-1.74,1.29,15.49,15.49,0,0,1-2.09.69,39.69,39.69,0,0,1-4.32.84c-2.91.42-5.83.68-8.76.89-5.86.42-11.72.6-17.59.78l-8.8.32c-2.93.09-5.87.15-8.8.2q-8.8.15-17.61.19l-.09-.05.12.05-3,.93a14.74,14.74,0,0,1-1.52.41,4.41,4.41,0,0,0-1.36.63,5,5,0,0,0-1.16.94l0,0a.07.07,0,0,0,0,0h.15a3.65,3.65,0,0,1,.4-.07l.78,0c1.05,0,2.08,0,3.12.06a109.68,109.68,0,0,0,12.43-.23c4.12-.46,8.28-.71,12.42-.9l12.44-.53,24.88-.93,6.22-.26c2.07-.12,4.15-.17,6.21-.44l1.52-.33a5.37,5.37,0,0,0,1.47-.47,2.22,2.22,0,0,0,.9-1.22,2.84,2.84,0,0,0,.24-.73.79.79,0,0,0-.42-.61,8.65,8.65,0,0,0-2.94-.94C604.74,611.5,603.71,611.36,602.68,611.24Zm0,0c1,.12,2.06.25,3.08.44a8.71,8.71,0,0,1,3,.94.8.8,0,0,1,.43.62,3,3,0,0,1-.23.74,2.37,2.37,0,0,1-.91,1.24,5.94,5.94,0,0,1-1.48.47L605,616c-2.07.27-4.14.33-6.21.45l-6.22.29-24.89,1-12.43.57c-4.15.21-8.28.47-12.41.94a103.62,103.62,0,0,1-12.46.25c-1,0-2.07-.06-3.11-.06-.25,0-.51,0-.76,0l-.37.06a.86.86,0,0,1-.24,0,.19.19,0,0,1-.16-.17.3.3,0,0,1,0-.16,5.14,5.14,0,0,1,1.24-1,4.68,4.68,0,0,1,1.45-.66,14.25,14.25,0,0,0,1.49-.39l3-.93.12,0-.09,0q8.81,0,17.61-.14c2.93-.05,5.86-.1,8.8-.18l8.8-.3c5.86-.16,11.73-.32,17.59-.72,2.92-.2,5.85-.45,8.76-.87a40.08,40.08,0,0,0,4.32-.82,14.2,14.2,0,0,0,2.09-.69A3.54,3.54,0,0,0,602.68,611.24Z" transform="translate(-525.1 -575.41)"/><path d="M662.45,603.76l-1.52-.57-.27.35-2.28-.26-.26-.57-1.61.55-.13-.29.8-1.17h0l2.17-1,.31-.45,1.19-1,1.75.15.25.55-.18.71-.6.83,1,1,.1.24Zm-1.55-.69,1.52.57.64-.88-.07-.16-1-1,.64-.88.17-.66-.22-.47-1.65-.14-1.15.93-.31.47h0l-2.17,1-.75,1.1.07.16,1.61-.55.27.6,2.18.25Z" transform="translate(-525.1 -575.41)"/><polygon points="137.22 28.09 135.15 27.14 133.11 26.98 131.34 27.61 131.31 27.52 133.1 26.89 133.11 26.89 135.17 27.05 135.18 27.05 137.26 28 137.22 28.09"/><polygon points="132.2 27.3 132.12 27.25 132.52 26.64 133.77 26.07 134.56 24.9 134.64 24.96 133.83 26.15 132.59 26.72 132.2 27.3"/><path d="M660.36,603.27l-1.76-.17-.26-.56,1.75.17Zm-1.7-.26,1.54.15-.17-.36-1.53-.15Z" transform="translate(-525.1 -575.41)"/><polygon points="136.07 27.87 135.37 27.59 135.58 28.06 135.5 28.1 135.18 27.41 136.1 27.78 136.07 27.87"/><polygon points="136.17 25.16 134.78 24.98 136.02 23.97 136.08 24.04 135.01 24.92 136.14 25.06 137.16 24.07 137.23 24.14 136.17 25.16"/><path d="M662.36,603.51l-.7-.31.34-.53-1.21-.91.83-1.3.92-1,.07.06-.91.95-.28.44,1.67,1.61Zm-.56-.35.53.23.63-.81L661.37,601l-.45.69,1.21.92Z" transform="translate(-525.1 -575.41)"/><path d="M659.92,602.29l-1.22-.07.95-1.48,1.15.17Zm-1-.16,1,.06.77-1.2-.94-.14Z" transform="translate(-525.1 -575.41)"/><rect x="659.42" y="601.47" width="0.1" height="1.1" transform="translate(-518.89 635.36) rotate(-85.37)"/><rect x="659.57" y="601.24" width="0.1" height="1.08" transform="translate(-532.9 619.49) rotate(-84)"/><rect x="659.72" y="601.01" width="0.1" height="1.07" transform="matrix(0.13, -0.99, 0.99, 0.13, -544.74, 605.41)"/><rect x="659.84" y="600.81" width="0.1" height="1.08" transform="translate(-532.51 619.06) rotate(-83.97)"/><rect x="660.01" y="600.57" width="0.1" height="1.09" transform="translate(-540.84 609.06) rotate(-83.13)"/><path d="M659.62,605.54a.33.33,0,0,1-.44-.16.33.33,0,0,1,.6-.28A.34.34,0,0,1,659.62,605.54Zm-.24-.52a.25.25,0,0,0-.12.32.24.24,0,0,0,.32.11.22.22,0,0,0,.11-.31A.23.23,0,0,0,659.38,605Z" transform="translate(-525.1 -575.41)"/><path d="M656.7,606.73a.34.34,0,0,1-.44-.16.33.33,0,0,1,.16-.44.33.33,0,0,1,.28.6Zm-.24-.52a.24.24,0,0,0-.11.32.22.22,0,0,0,.31.11.23.23,0,0,0,.12-.31A.25.25,0,0,0,656.46,606.21Z" transform="translate(-525.1 -575.41)"/><path d="M657.37,604.78a.34.34,0,0,1-.44-.16.33.33,0,0,1,.16-.44.33.33,0,1,1,.28.6Zm-.24-.52a.24.24,0,0,0-.11.32.22.22,0,0,0,.31.11.23.23,0,0,0,.12-.31A.25.25,0,0,0,657.13,604.26Z" transform="translate(-525.1 -575.41)"/><polygon points="133.33 28.47 132.59 28.37 132.3 28.84 132.22 28.79 132.54 28.26 133.28 28.37 133.43 28.08 133.51 28.13 133.33 28.47"/><polygon points="131.62 30.79 131.54 30.74 132.06 29.94 132.84 30.01 134.08 28.16 134.16 28.21 132.89 30.11 132.11 30.04 131.62 30.79"/><polygon points="134.59 29.63 134.51 29.58 134.86 29.04 134.6 28.48 134.75 28.21 134.83 28.26 134.71 28.48 134.97 29.05 134.59 29.63"/><path d="M577.57,602.15a1.58,1.58,0,0,1-1.68,1.66A1.55,1.55,0,0,1,574.4,602l.07-1.6.8,0-.08,1.6c0,.63.23,1,.73,1s.82-.34.85-1l.07-1.6.8,0Z" transform="translate(-525.1 -575.41)"/><path d="M581.51,604l-.8,0-1.57-2.09-.09,2-.8,0,.16-3.29.79,0,1.57,2.08.09-2,.8,0Z" transform="translate(-525.1 -575.41)"/><path d="M583.23,604.09l-.79,0,.15-3.29.79,0Z" transform="translate(-525.1 -575.41)"/><path d="M587.26,601.72l-1.16-.05-.12,2.55-.8,0,.12-2.55-1.17,0,0-.73,3.12.14Z" transform="translate(-525.1 -575.41)"/><path d="M574.26,605.2l0-1,.66,0v.07l-.58,0,0,.37.46,0v.07l-.46,0,0,.39.61,0v.07Z" transform="translate(-525.1 -575.41)"/><path d="M575.56,605.19l.58,0v.07l-.65,0,0-1h.07Z" transform="translate(-525.1 -575.41)"/><path d="M576.66,605.31l.05-1,.65,0v.07l-.59,0v.37l.46,0v.07l-.47,0v.39l.6,0v.07Z" transform="translate(-525.1 -575.41)"/><path d="M578.64,605.16a.3.3,0,0,1-.09.13.25.25,0,0,1-.14.08.47.47,0,0,1-.17,0,.48.48,0,0,1-.22-.07.43.43,0,0,1-.15-.18.59.59,0,0,1,0-.27.53.53,0,0,1,.06-.26.49.49,0,0,1,.16-.16.39.39,0,0,1,.24-.05.47.47,0,0,1,.17,0l.12.09a.54.54,0,0,1,.07.13l-.08,0a.23.23,0,0,0-.09-.15.29.29,0,0,0-.19-.06.34.34,0,0,0-.2,0,.35.35,0,0,0-.13.14.7.7,0,0,0-.06.23.59.59,0,0,0,0,.23.44.44,0,0,0,.12.15.28.28,0,0,0,.18.06.36.36,0,0,0,.21-.05.31.31,0,0,0,.12-.15Z" transform="translate(-525.1 -575.41)"/><path d="M579.88,604.5v.06h-.35l0,.89h-.07l0-.9h-.35v-.07Z" transform="translate(-525.1 -575.41)"/><path d="M580.76,604.54a.31.31,0,0,1,.22.08.27.27,0,0,1,0,.4.37.37,0,0,1-.23.06h-.28l0,.41h-.07l0-1Zm0,.47a.28.28,0,0,0,.19,0,.19.19,0,0,0,.06-.15.18.18,0,0,0-.05-.16.38.38,0,0,0-.18-.06h-.28l0,.41Zm.06,0,.29.48H581l-.26-.44Z" transform="translate(-525.1 -575.41)"/><path d="M582.05,604.58a.52.52,0,0,1,.23.07.38.38,0,0,1,.15.18.57.57,0,0,1,0,.27.71.71,0,0,1-.06.26.49.49,0,0,1-.16.16.47.47,0,0,1-.24.05.48.48,0,0,1-.24-.07.37.37,0,0,1-.14-.18.53.53,0,0,1,0-.26.57.57,0,0,1,.06-.27.49.49,0,0,1,.16-.16A.47.47,0,0,1,582.05,604.58Zm0,.07a.33.33,0,0,0-.2,0,.35.35,0,0,0-.13.14.7.7,0,0,0-.06.23.56.56,0,0,0,0,.23.26.26,0,0,0,.12.15.29.29,0,0,0,.19.06.33.33,0,0,0,.2,0,.35.35,0,0,0,.13-.14.7.7,0,0,0,.06-.23.56.56,0,0,0,0-.23.44.44,0,0,0-.12-.15A.31.31,0,0,0,582.05,604.65Z" transform="translate(-525.1 -575.41)"/><path d="M583.81,604.68l0,1h-.09l-.47-.77-.07-.13h0v.11l0,.77H583l.05-1h.09l.47.77.07.13v-.12l0-.76Z" transform="translate(-525.1 -575.41)"/><path d="M584.53,604.71l0,1h-.08l.05-1Z" transform="translate(-525.1 -575.41)"/><path d="M585.9,605.49a.44.44,0,0,1-.22.22.47.47,0,0,1-.17,0,.42.42,0,0,1-.23-.07.37.37,0,0,1-.14-.18.53.53,0,0,1,0-.26.62.62,0,0,1,.07-.26.38.38,0,0,1,.16-.17.43.43,0,0,1,.23,0,.43.43,0,0,1,.17,0,.25.25,0,0,1,.12.08.31.31,0,0,1,.07.14l-.07,0a.29.29,0,0,0-.1-.16.29.29,0,0,0-.19-.06.31.31,0,0,0-.19,0,.38.38,0,0,0-.14.14.52.52,0,0,0-.05.23.56.56,0,0,0,0,.23.31.31,0,0,0,.12.15.4.4,0,0,0,.39,0,.28.28,0,0,0,.12-.16Z" transform="translate(-525.1 -575.41)"/><path d="M586.79,604.8a.38.38,0,0,1,.22.06.33.33,0,0,1,.13.17l-.06,0a.3.3,0,0,0-.11-.15.53.53,0,0,0-.19-.06l-.15,0a.22.22,0,0,0-.09.07.18.18,0,0,0,0,.1.15.15,0,0,0,0,.11.34.34,0,0,0,.16.08l.19,0a.38.38,0,0,1,.19.1.2.2,0,0,1,0,.15.21.21,0,0,1,0,.13.3.3,0,0,1-.13.09.58.58,0,0,1-.19,0l-.18,0a.34.34,0,0,1-.14-.09.24.24,0,0,1-.07-.12l.06,0a.35.35,0,0,0,.07.12.31.31,0,0,0,.11.08.41.41,0,0,0,.16,0h.14a.26.26,0,0,0,.1-.07.12.12,0,0,0,0-.1.14.14,0,0,0,0-.11.35.35,0,0,0-.15-.07l-.2-.05-.14-.06s-.07,0-.08-.09a.12.12,0,0,1,0-.1.24.24,0,0,1,.05-.14.27.27,0,0,1,.12-.09A.3.3,0,0,1,586.79,604.8Z" transform="translate(-525.1 -575.41)"/></svg>