<svg id="Capa_1" data-name="Capa 1" xmlns="http://www.w3.org/2000/svg" viewBox="0 0 29.25 43.75"><defs><style>.cls-1{fill:#ecf0f1;stroke:#fff;stroke-miterlimit:10;stroke-width:3px;}.cls-2{fill:#95a5a5;}.cls-3{fill:#ffd400;}.cls-4{fill:#d1a900;}.cls-5{fill:#fff;}</style></defs><path class="cls-1" d="M671.3,513.92a2.62,2.62,0,0,0-2.16-2.18,1.38,1.38,0,0,1-1-.74,1.36,1.36,0,0,1,0-1.24l.49-1a2.61,2.61,0,0,0,.2-1.8l-.88-3.5a.69.69,0,0,0-.07-.15,1.72,1.72,0,0,0,.31-.4,1.39,1.39,0,0,0,.07-1.06l-.69-2.07a2,2,0,0,0-.1-.21l-.24-.33-1.38-2a10.56,10.56,0,0,0,1.79-6h0c0-5.34-3.71-9.67-8.29-9.67s-8.28,4.33-8.28,9.67h0a10.62,10.62,0,0,0,1.78,6l-1.38,2-.23.33a2.12,2.12,0,0,0-.11.21l-.69,2.07a1.41,1.41,0,0,0,.39,1.46.44.44,0,0,0-.08.15l-.88,3.49a2.6,2.6,0,0,0,.2,1.8l.5,1a1.36,1.36,0,0,1,0,1.24,1.38,1.38,0,0,1-1,.74,2.62,2.62,0,0,0-2.15,2.18l-1.17,7.6a.72.72,0,0,0,.16.56.69.69,0,0,0,1.2-.35l1.17-7.59a1.24,1.24,0,0,1,1-1,2.75,2.75,0,0,0,2-4l-.49-1a1.22,1.22,0,0,1-.1-.84l.88-3.5a.48.48,0,0,0,0-.17,1.37,1.37,0,0,0,1-.9l.55-1.67,1.84-1.27a7.29,7.29,0,0,0,7.78,0l1.85,1.27.55,1.67a1.33,1.33,0,0,0,.69.8,1.29,1.29,0,0,0,.28.08.61.61,0,0,0,0,.19l.88,3.5a1.26,1.26,0,0,1-.09.85l-.5,1a2.77,2.77,0,0,0,2,4,1.25,1.25,0,0,1,1,1l1.16,7.6a.7.7,0,0,0,.69.59.67.67,0,0,0,.52-.25.68.68,0,0,0,.16-.55Z" transform="translate(-644.73 -480.07)"/><g id="Page-1"><g id="_039---Capacitor" data-name="039---Capacitor"><path id="Shape" class="cls-2" d="M646.92,522.32a.69.69,0,0,1-.52-.24.72.72,0,0,1-.16-.56l1.17-7.6a2.62,2.62,0,0,1,2.15-2.18,1.38,1.38,0,0,0,1-.74,1.36,1.36,0,0,0,0-1.24l-.5-1a2.6,2.6,0,0,1-.2-1.8l.88-3.49a.69.69,0,0,1,1.16-.35.69.69,0,0,1,.18.68l-.88,3.5a1.22,1.22,0,0,0,.1.84l.49,1a2.75,2.75,0,0,1-2,4,1.24,1.24,0,0,0-1,1l-1.17,7.59a.7.7,0,0,1-.68.59Z" transform="translate(-644.73 -480.07)"/><path id="Shape-2" data-name="Shape" class="cls-2" d="M671.79,522.32a.7.7,0,0,1-.69-.59l-1.16-7.6a1.25,1.25,0,0,0-1-1,2.77,2.77,0,0,1-2-4l.5-1a1.26,1.26,0,0,0,.09-.85l-.88-3.5a.69.69,0,0,1,.87-.86.67.67,0,0,1,.47.53l.88,3.5a2.61,2.61,0,0,1-.2,1.8l-.49,1a1.36,1.36,0,0,0,0,1.24,1.38,1.38,0,0,0,1,.74,2.62,2.62,0,0,1,2.16,2.18l1.17,7.6a.68.68,0,0,1-.16.55.67.67,0,0,1-.52.25Z" transform="translate(-644.73 -480.07)"/><path id="Shape-3" data-name="Shape" class="cls-3" d="M652.85,497.23l-1.38,2-.23.33a2.12,2.12,0,0,0-.11.21l-.69,2.07a1.39,1.39,0,1,0,2.63.87l.55-1.67,1.84-1.27Z" transform="translate(-644.73 -480.07)"/><path id="Shape-4" data-name="Shape" class="cls-4" d="M667.39,503.6a1.39,1.39,0,0,1-1.06-.08,1.33,1.33,0,0,1-.69-.8l-.55-1.67-1.85-1.27a7.29,7.29,0,0,1-7.78,0,8.58,8.58,0,0,1-2.61-2.55,10.62,10.62,0,0,1-1.78-6h0c0-5.34,3.7-9.67,8.28-9.67s8.29,4.33,8.29,9.67h0a10.56,10.56,0,0,1-1.79,6l1.38,2,.24.33a2,2,0,0,1,.1.21l.69,2.07a1.39,1.39,0,0,1-.07,1.06,1.47,1.47,0,0,1-.8.69Z" transform="translate(-644.73 -480.07)"/><path id="Shape-5" data-name="Shape" class="cls-3" d="M667.64,491.24h0a9,9,0,0,1-16.57,0h0c0-5.34,3.7-9.67,8.28-9.67S667.64,485.9,667.64,491.24Z" transform="translate(-644.73 -480.07)"/></g></g><path id="Shape-6" data-name="Shape" class="cls-5" d="M656.5,493.81h-1.75a.44.44,0,1,1,0-.88h.43v-3.24l-.24.12a.44.44,0,0,1-.59-.19.44.44,0,0,1,.2-.59l.88-.44a.42.42,0,0,1,.42,0,.44.44,0,0,1,.21.37v3.95h.44a.44.44,0,0,1,0,.88Z" transform="translate(-644.73 -480.07)"/><path id="Shape-7" data-name="Shape" class="cls-5" d="M658.78,493.81a1.54,1.54,0,0,1-.95-.33,1.24,1.24,0,0,1-.45-1,.44.44,0,0,1,.88,0,.34.34,0,0,0,.13.27.64.64,0,0,0,.48.12,1,1,0,0,0,.7-1.12c0-.1-.08-.62-.5-.62h-.84a.87.87,0,0,1-.85-.88v-.88a.87.87,0,0,1,.85-.88h1.34a.44.44,0,1,1,0,.88h-1.34l0,.88h.81a1.41,1.41,0,0,1,1.37,1.41,1.84,1.84,0,0,1-1.4,2.07,1.15,1.15,0,0,1-.26,0Z" transform="translate(-644.73 -480.07)"/><path id="Shape-8" data-name="Shape" class="cls-5" d="M663.52,493.81a.44.44,0,0,1-.44-.44v-.88h-1.75a.43.43,0,0,1-.39-.23.45.45,0,0,1,0-.46l2.2-3.07a.43.43,0,0,1,.79.25v2.64a.44.44,0,1,1,0,.87v.88A.44.44,0,0,1,663.52,493.81Zm-1.34-2.19h.9v-1.27Z" transform="translate(-644.73 -480.07)"/></svg>