<svg id="Capa_1" data-name="Capa 1" xmlns="http://www.w3.org/2000/svg" xmlns:xlink="http://www.w3.org/1999/xlink" viewBox="0 0 32.97 40.4"><defs><style>.cls-1,.cls-3{fill:#35495e;}.cls-1{stroke:#fff;stroke-linecap:round;stroke-linejoin:round;stroke-width:3px;}.cls-2{fill:#2c3e50;}.cls-4{fill:#f0c419;}.cls-5{fill:#3f5c6c;}.cls-6{fill:url(#Degradado_sin_nombre_109);}.cls-7{fill:url(#Degradado_sin_nombre_109-2);}</style><linearGradient id="Degradado_sin_nombre_109" x1="666.95" y1="496.88" x2="666.95" y2="481.51" gradientUnits="userSpaceOnUse"><stop offset="0" stop-color="#fff" stop-opacity="0"/><stop offset="0.51" stop-color="#fff"/><stop offset="1" stop-color="#fff" stop-opacity="0"/></linearGradient><linearGradient id="Degradado_sin_nombre_109-2" x1="659.46" y1="500.57" x2="659.46" y2="485.21" xlink:href="#Degradado_sin_nombre_109"/></defs><path class="cls-1" d="M673.84,515.88h-1.07a.4.4,0,0,0-.13-.16l-1.8-1.35h-2v-2.5h2l1.8-1.35a.4.4,0,0,0,.13-.16h1.07a.5.5,0,0,0,.5-.5.51.51,0,0,0-.5-.5h-1l-.07,0a.52.52,0,0,0-.13-.17l-1.8-1.34h-2v-1.47l-2,.44h0l-.48.11-1.18-4.08-2.11,2-2.24-4-6.23,2.5,1.29-4.19-2.82-1.64a5.09,5.09,0,0,0-.47-3.16,7.51,7.51,0,0,1-.6-2.5h-1.14a1,1,0,0,0-1,1v1.5h-2l-1.8,1.35a.54.54,0,0,0-.14.16h-1.06a.5.5,0,0,0-.5.5.5.5,0,0,0,.5.5h1.06a.7.7,0,0,0,.14.16l1.8,1.35h2v2.49h-2l-1.8,1.35a.58.58,0,0,0-.14.17l-.06,0h-1a.5.5,0,0,0-.5.5.5.5,0,0,0,.5.5h1.06a.54.54,0,0,0,.14.16l1.8,1.35h2v3h-2l-1.8,1.34a.75.75,0,0,0-.14.17l-.06,0h-1a.5.5,0,0,0-.5.5.5.5,0,0,0,.5.5h1.06a.54.54,0,0,0,.14.16l1.8,1.35h2v2.5h-2l-1.8,1.35a.54.54,0,0,0-.14.16h-1.06a.5.5,0,0,0-.5.5.5.5,0,0,0,.5.5h1l.06,0a.58.58,0,0,0,.14.17l1.8,1.34h2v1.5a1,1,0,0,0,1,1h17a1,1,0,0,0,1-1v-1.5h2l1.8-1.34a.43.43,0,0,0,.13-.17l.07,0h1a.51.51,0,0,0,.5-.5A.5.5,0,0,0,673.84,515.88Z" transform="translate(-642.87 -481.97)"/><path class="cls-2" d="M666.36,507l-1.18-4.08-2.11,2-2.24-4-6.23,2.5,1.29-4.19-2.82-1.64a5.09,5.09,0,0,0-.47-3.16,7.51,7.51,0,0,1-.6-2.5h-1.14a1,1,0,0,0-1,1v27a1,1,0,0,0,1,1h17a1,1,0,0,0,1-1V506.42Z" transform="translate(-642.87 -481.97)"/><path class="cls-3" d="M666.36,507l-1.18-4.08-2.11,2-2.24-4-6.23,2.5,1.29-4.19-2.82-1.64a5.09,5.09,0,0,0-.47-3.16,7.51,7.51,0,0,1-.6-2.5h-.14v29h15v-14Z" transform="translate(-642.87 -481.97)"/><path id="Shape" class="cls-4" d="M645.87,496.9h-1a.5.5,0,0,1-.5-.5.5.5,0,0,1,.5-.5h1a.5.5,0,0,1,.5.5A.51.51,0,0,1,645.87,496.9Z" transform="translate(-642.87 -481.97)"/><path id="Shape-2" data-name="Shape" class="cls-4" d="M645.87,503.39h-1a.5.5,0,0,1-.5-.5.5.5,0,0,1,.5-.5h1a.51.51,0,0,1,.5.5A.5.5,0,0,1,645.87,503.39Z" transform="translate(-642.87 -481.97)"/><path id="Shape-3" data-name="Shape" class="cls-4" d="M645.87,510.38h-1a.5.5,0,0,1-.5-.5.5.5,0,0,1,.5-.5h1a.51.51,0,0,1,.5.5A.5.5,0,0,1,645.87,510.38Z" transform="translate(-642.87 -481.97)"/><path id="Shape-4" data-name="Shape" class="cls-4" d="M645.87,516.88h-1a.5.5,0,0,1-.5-.5.5.5,0,0,1,.5-.5h1a.5.5,0,0,1,.5.5A.51.51,0,0,1,645.87,516.88Z" transform="translate(-642.87 -481.97)"/><path id="Shape-5" data-name="Shape" class="cls-4" d="M673.84,510.38h-1a.5.5,0,0,1-.5-.5.5.5,0,0,1,.5-.5h1a.51.51,0,0,1,.5.5A.5.5,0,0,1,673.84,510.38Z" transform="translate(-642.87 -481.97)"/><path id="Shape-6" data-name="Shape" class="cls-4" d="M673.84,516.88h-1a.5.5,0,0,1-.5-.5.5.5,0,0,1,.5-.5h1a.5.5,0,0,1,.5.5A.51.51,0,0,1,673.84,516.88Z" transform="translate(-642.87 -481.97)"/><path id="Shape-7" data-name="Shape" class="cls-4" d="M661.85,520.87a2.5,2.5,0,1,0-5,0Z" transform="translate(-642.87 -481.97)"/><path id="Rectangle-path" class="cls-5" d="M647.87,494.4h2v4h-2Z" transform="translate(-642.87 -481.97)"/><path id="Shape-8" data-name="Shape" class="cls-3" d="M647.87,494.4l-1.8,1.35a.48.48,0,0,0-.2.4v.5a.49.49,0,0,0,.2.4l1.8,1.35Z" transform="translate(-642.87 -481.97)"/><path id="Rectangle-path-2" data-name="Rectangle-path" class="cls-5" d="M647.87,500.89h2v4h-2Z" transform="translate(-642.87 -481.97)"/><path id="Shape-9" data-name="Shape" class="cls-3" d="M647.87,500.89l-1.8,1.35a.49.49,0,0,0-.2.4v.5a.48.48,0,0,0,.2.4l1.8,1.35Z" transform="translate(-642.87 -481.97)"/><path id="Rectangle-path-3" data-name="Rectangle-path" class="cls-5" d="M647.87,507.89h2v4h-2Z" transform="translate(-642.87 -481.97)"/><path id="Shape-10" data-name="Shape" class="cls-3" d="M647.87,507.89l-1.8,1.34a.51.51,0,0,0-.2.4v.5a.48.48,0,0,0,.2.4l1.8,1.35Z" transform="translate(-642.87 -481.97)"/><path id="Rectangle-path-4" data-name="Rectangle-path" class="cls-5" d="M647.87,514.38h2v4h-2Z" transform="translate(-642.87 -481.97)"/><path id="Shape-11" data-name="Shape" class="cls-3" d="M647.87,514.38l-1.8,1.35a.48.48,0,0,0-.2.4v.5a.51.51,0,0,0,.2.4l1.8,1.34Z" transform="translate(-642.87 -481.97)"/><path id="Rectangle-path-5" data-name="Rectangle-path" class="cls-5" d="M670.84,511.88h-2v-4h2Z" transform="translate(-642.87 -481.97)"/><path id="Shape-12" data-name="Shape" class="cls-3" d="M670.84,507.89l1.8,1.34a.54.54,0,0,1,.2.4v.5a.51.51,0,0,1-.2.4l-1.8,1.35Z" transform="translate(-642.87 -481.97)"/><path id="Rectangle-path-6" data-name="Rectangle-path" class="cls-5" d="M670.84,518.37h-2v-4h2Z" transform="translate(-642.87 -481.97)"/><path id="Shape-13" data-name="Shape" class="cls-3" d="M670.84,514.38l1.8,1.35a.51.51,0,0,1,.2.4v.5a.54.54,0,0,1-.2.4l-1.8,1.34Z" transform="translate(-642.87 -481.97)"/><path class="cls-6" d="M666.72,496.28a4.45,4.45,0,0,1-1.65-3.72,5,5,0,0,1,.64-2.16c.1-.17.21-.32.31-.47l.16-.22.09-.16c.06-.1.14-.19.19-.29l.15-.33a7.53,7.53,0,0,0,.35-3.22c-.08-1.19-.27-2.42-.45-3.74a8.64,8.64,0,0,1,2,3.45,6.39,6.39,0,0,1,0,4.27l-.26.54a5.36,5.36,0,0,1-.34.49l-.3.4-.26.3a4.77,4.77,0,0,0-.69,1.37A6.43,6.43,0,0,0,666.72,496.28Z" transform="translate(-642.87 -481.97)"/><path class="cls-7" d="M659.23,500a4.48,4.48,0,0,1-1.65-3.73,5,5,0,0,1,.64-2.16l.31-.47.16-.22.09-.15c.06-.1.13-.19.19-.3l.15-.33a7.48,7.48,0,0,0,.35-3.21c-.08-1.19-.27-2.43-.45-3.74a8.47,8.47,0,0,1,2,3.44,6.36,6.36,0,0,1,0,4.28l-.25.53a5.36,5.36,0,0,1-.34.49l-.31.4-.25.3a4.53,4.53,0,0,0-.69,1.37A6.38,6.38,0,0,0,659.23,500Z" transform="translate(-642.87 -481.97)"/></svg>