<svg id="Capa_1" data-name="Capa 1" xmlns="http://www.w3.org/2000/svg" xmlns:xlink="http://www.w3.org/1999/xlink" viewBox="0 0 18.12 56.5"><defs><style>.cls-1,.cls-8{fill:#39b54a;}.cls-1{stroke:#fff;stroke-linecap:round;stroke-linejoin:round;stroke-width:3px;}.cls-2{fill:#ccc;}.cls-3{fill:#95a5a5;}.cls-4{fill:#fac176;}.cls-5{fill:#fcee21;}.cls-6{fill:#e64c3c;}.cls-7{fill:#8c6239;}.cls-9{fill:url(#Degradado_sin_nombre_97);}.cls-10{fill:#fff;}.cls-11{fill:url(#Degradado_sin_nombre_109);}.cls-12{fill:url(#Degradado_sin_nombre_109-2);}</style><radialGradient id="Degradado_sin_nombre_97" cx="657.29" cy="506.92" r="27.89" gradientUnits="userSpaceOnUse"><stop offset="0.13"/><stop offset="0.46" stop-color="#f7931e" stop-opacity="0"/></radialGradient><linearGradient id="Degradado_sin_nombre_109" x1="664.69" y1="507.25" x2="664.69" y2="488.03" gradientUnits="userSpaceOnUse"><stop offset="0" stop-color="#fff" stop-opacity="0"/><stop offset="0.51" stop-color="#fff"/><stop offset="1" stop-color="#fff" stop-opacity="0"/></linearGradient><linearGradient id="Degradado_sin_nombre_109-2" x1="665.23" y1="496.16" x2="665.23" y2="476.94" xlink:href="#Degradado_sin_nombre_109"/></defs><path class="cls-1" d="M658.73,492.73h.21a3.71,3.71,0,0,1-1.62-1.6.88.88,0,0,0-.44-.47V475.19h-2v15.47a.88.88,0,0,0-.44.47,3.71,3.71,0,0,1-1.62,1.6h.21a3.46,3.46,0,0,0-1.95,3.11v1.74a1.29,1.29,0,0,0,.07.43,1.26,1.26,0,0,0,.47.62,1.81,1.81,0,0,1,.73,1.13,1.09,1.09,0,0,1,0,.31v5.45a1.16,1.16,0,0,1,0,.32,1.81,1.81,0,0,1-.73,1.12,1.26,1.26,0,0,0-.54,1.06v1.32a3.48,3.48,0,0,0,1.86,3.07h-.12a3.73,3.73,0,0,1,1.62,1.59.87.87,0,0,0,.44.48v14.21h2V514.48a.87.87,0,0,0,.44-.48,3.73,3.73,0,0,1,1.62-1.59h-.12a3.48,3.48,0,0,0,1.86-3.07V508a1.31,1.31,0,0,0-.07-.44,1.37,1.37,0,0,0-.47-.62,1.81,1.81,0,0,1-.73-1.12,1.16,1.16,0,0,1,0-.32v-5.45a1.09,1.09,0,0,1,0-.31,1.81,1.81,0,0,1,.73-1.13,1.32,1.32,0,0,0,.47-.62,1.29,1.29,0,0,0,.07-.43v-1.74A3.46,3.46,0,0,0,658.73,492.73Z" transform="translate(-649.61 -473.69)"/><g id="Page-1"><g id="_004---Resistor" data-name="004---Resistor"><rect class="cls-2" x="5.3" y="1.5" width="1.98" height="53.5"/><path id="Shape" class="cls-3" d="M658.94,512.41a3.73,3.73,0,0,0-1.62,1.59.88.88,0,0,1-.82.58h-1.21a.88.88,0,0,1-.82-.58,3.73,3.73,0,0,0-1.62-1.59Z" transform="translate(-649.61 -473.69)"/><path id="Shape-2" data-name="Shape" class="cls-3" d="M658.94,492.73a3.71,3.71,0,0,1-1.62-1.6.91.91,0,0,0-.82-.58h-1.21a.91.91,0,0,0-.82.58,3.71,3.71,0,0,1-1.62,1.6Z" transform="translate(-649.61 -473.69)"/><path id="Shape-3" data-name="Shape" class="cls-4" d="M660.68,495.84v1.74a1.29,1.29,0,0,1-.07.43,1.32,1.32,0,0,1-.47.62,1.81,1.81,0,0,0-.73,1.13,1.09,1.09,0,0,0,0,.31v5.45a1.16,1.16,0,0,0,0,.32,1.81,1.81,0,0,0,.73,1.12,1.37,1.37,0,0,1,.47.62,1.31,1.31,0,0,1,.07.44v1.32a3.49,3.49,0,0,1-3.49,3.49H654.6a3.49,3.49,0,0,1-3.49-3.49V508a1.26,1.26,0,0,1,.54-1.06,1.81,1.81,0,0,0,.73-1.12,1.16,1.16,0,0,0,0-.32v-5.45a1.09,1.09,0,0,0,0-.31,1.81,1.81,0,0,0-.73-1.13,1.26,1.26,0,0,1-.47-.62,1.29,1.29,0,0,1-.07-.43v-1.74a3.48,3.48,0,0,1,3.48-3.49h2.61a3.48,3.48,0,0,1,3.48,3.49Z" transform="translate(-649.61 -473.69)"/><path id="Shape-4" data-name="Shape" class="cls-5" d="M656.33,497.58a.44.44,0,0,1-.44.43h-4.71a1.29,1.29,0,0,1-.07-.43v-.44h4.78A.44.44,0,0,1,656.33,497.58Z" transform="translate(-649.61 -473.69)"/><path id="Shape-5" data-name="Shape" class="cls-5" d="M660.68,497.14v.44a1.29,1.29,0,0,1-.07.43h-3a.43.43,0,0,1-.43-.43.44.44,0,0,1,.43-.44Z" transform="translate(-649.61 -473.69)"/><path id="Shape-6" data-name="Shape" class="cls-6" d="M656.33,500.19a.44.44,0,0,1-.44.43h-3.48v-.55a1.09,1.09,0,0,0,0-.31h3.51A.44.44,0,0,1,656.33,500.19Z" transform="translate(-649.61 -473.69)"/><path id="Shape-7" data-name="Shape" class="cls-6" d="M659.41,499.76a1.09,1.09,0,0,0,0,.31v.55h-1.75a.43.43,0,0,1-.43-.43.44.44,0,0,1,.43-.44h1.78Z" transform="translate(-649.61 -473.69)"/><path id="Shape-8" data-name="Shape" class="cls-7" d="M656.33,508a.44.44,0,0,1-.44.43h-4.78V508a1.31,1.31,0,0,1,.07-.44h4.71A.44.44,0,0,1,656.33,508Z" transform="translate(-649.61 -473.69)"/><path id="Shape-9" data-name="Shape" class="cls-7" d="M660.68,508v.43h-3a.43.43,0,0,1-.43-.43.44.44,0,0,1,.43-.44h3A1.31,1.31,0,0,1,660.68,508Z" transform="translate(-649.61 -473.69)"/><path id="Shape-10" data-name="Shape" class="cls-8" d="M656.33,505.41a.44.44,0,0,1-.44.43h-3.51a1.16,1.16,0,0,0,0-.32V505h3.48a.44.44,0,0,1,.44.44Z" transform="translate(-649.61 -473.69)"/><path id="Shape-11" data-name="Shape" class="cls-8" d="M659.41,505.84h-1.78a.43.43,0,0,1-.43-.43.44.44,0,0,1,.43-.44h1.75v.55a1.16,1.16,0,0,0,0,.32Z" transform="translate(-649.61 -473.69)"/></g></g><path class="cls-9" d="M658.73,492.73h.21a3.71,3.71,0,0,1-1.62-1.6.88.88,0,0,0-.44-.47h-2a.88.88,0,0,0-.44.47,3.71,3.71,0,0,1-1.62,1.6h.21a3.46,3.46,0,0,0-1.95,3.11v1.74a1.29,1.29,0,0,0,.07.43,1.26,1.26,0,0,0,.47.62,1.81,1.81,0,0,1,.73,1.13h0a1.09,1.09,0,0,1,0,.31v5.45a1.16,1.16,0,0,1,0,.32,1.81,1.81,0,0,1-.73,1.12,1.26,1.26,0,0,0-.54,1.06v1.32a3.48,3.48,0,0,0,1.86,3.07h-.12a3.73,3.73,0,0,1,1.62,1.59.87.87,0,0,0,.44.48h2a.87.87,0,0,0,.44-.48,3.73,3.73,0,0,1,1.62-1.59h-.12a3.48,3.48,0,0,0,1.86-3.07V508a1.31,1.31,0,0,0-.07-.44,1.37,1.37,0,0,0-.47-.62,1.81,1.81,0,0,1-.73-1.12,1.16,1.16,0,0,1,0-.32v-5.45a1.09,1.09,0,0,1,0-.31,1.81,1.81,0,0,1,.73-1.13,1.32,1.32,0,0,0,.47-.62,1.29,1.29,0,0,0,.07-.43v-1.74A3.46,3.46,0,0,0,658.73,492.73Z" transform="translate(-649.61 -473.69)"/><path class="cls-10" d="M659.38,505l-1.37-.28.06-.08.49.76,0,0,0,0-.59,1.19-.05.1-.1-.06-.83-.56.17-.06-.49,1.8v0l0,0-1.48.84h0l-1.37.39h0l-2.61-.09,2.61-.09h0l1.36-.44h0l1.46-.86,0,.07.5-1.79,0-.15.13.09.82.56-.16,0,.65-1.16v.08l-.45-.78-.07-.12.13,0Z" transform="translate(-649.61 -473.69)"/><path class="cls-11" d="M664.38,506.57a5.1,5.1,0,0,1-2.15-4.71,5.74,5.74,0,0,1,1.08-2.65l.46-.53.23-.26.16-.2.33-.38c.09-.13.15-.28.24-.42a4,4,0,0,0,.38-.9,6.79,6.79,0,0,0,.18-1,8.78,8.78,0,0,0-.07-2.22,32.25,32.25,0,0,0-1.17-4.7,10.94,10.94,0,0,1,2.69,4.34,8.08,8.08,0,0,1,.44,2.67A7.61,7.61,0,0,1,667,497a6.23,6.23,0,0,1-.55,1.37,6.82,6.82,0,0,1-.39.64l-.49.55-.44.45-.38.38a5,5,0,0,0-1,1.76A6.16,6.16,0,0,0,664.38,506.57Z" transform="translate(-649.61 -473.69)"/><path class="cls-12" d="M664.92,495.48a5.14,5.14,0,0,1-2.15-4.71,5.71,5.71,0,0,1,1.09-2.65c.14-.18.3-.36.45-.53l.24-.26.16-.2.32-.38c.09-.13.16-.28.24-.42a4,4,0,0,0,.39-.9,5.72,5.72,0,0,0,.17-1,8.76,8.76,0,0,0-.07-2.22,29.87,29.87,0,0,0-1.17-4.7,10.76,10.76,0,0,1,2.69,4.34,8.09,8.09,0,0,1,.45,2.67,7,7,0,0,1-.16,1.42,6.2,6.2,0,0,1-.54,1.37c-.13.21-.25.44-.4.64l-.49.55-.43.45-.38.38a5,5,0,0,0-1,1.75A6.12,6.12,0,0,0,664.92,495.48Z" transform="translate(-649.61 -473.69)"/></svg>