<svg id="Capa_1" data-name="Capa 1" xmlns="http://www.w3.org/2000/svg" viewBox="0 0 27.29 40.38"><defs><style>.cls-1,.cls-9{fill:#95a5a5;}.cls-1{stroke:#fff;stroke-width:3px;}.cls-1,.cls-7{stroke-miterlimit:10;}.cls-2{fill:#b7b7b7;}.cls-3{fill:#c9c9c9;}.cls-4{fill:#7f8c8d;}.cls-5{fill:#89979b;}.cls-6{fill:#e6e6e6;}.cls-7{fill:none;stroke:red;}.cls-8{fill:#efefef;}</style></defs><path class="cls-1" d="M671.44,489.91c-.63-3.74-5.8-6.66-12.09-6.66-6.71,0-12.14,3.32-12.14,7.42v7.43a6,6,0,0,0,2.7,4.66,10.77,10.77,0,0,0,1.25.82,15.85,15.85,0,0,0,1.73.79,7.85,7.85,0,0,0-3,6v9.2a1.06,1.06,0,0,0,2.11,0v-9.2c0-2,1.14-3.81,3.38-5.27.4.09.81.16,1.24.22a19.75,19.75,0,0,0,5.43,0c.44-.06.87-.14,1.28-.23,2.25,1.46,3.39,3.24,3.39,5.28v9.2a1.06,1.06,0,0,0,2.11,0v-9.2a7.86,7.86,0,0,0-3-6,17.07,17.07,0,0,0,1.68-.78,11.83,11.83,0,0,0,1.26-.82,6,6,0,0,0,2.7-4.66v-7.43A4.87,4.87,0,0,0,671.44,489.91Z" transform="translate(-645.71 -481.75)"/><g id="Page-1"><g id="_040---LED" data-name="040---LED"><path id="Shape" class="cls-2" d="M667.8,520.63a1.06,1.06,0,0,1-1.06-1v-9.2c0-2.08-1.18-3.89-3.52-5.37a1,1,0,0,1-.49-.93,1,1,0,0,1,1.62-.85c2.94,1.86,4.5,4.33,4.5,7.15v9.2A1,1,0,0,1,667.8,520.63Z" transform="translate(-645.71 -481.75)"/><path id="Shape-2" data-name="Shape" class="cls-2" d="M649.91,519.58v-9.2c0-2.82,1.56-5.29,4.5-7.15a1,1,0,0,1,1.62.85,1,1,0,0,1-.49.93c-2.34,1.48-3.52,3.29-3.52,5.37v9.2a1.06,1.06,0,0,1-2.11,0Z" transform="translate(-645.71 -481.75)"/><path id="Shape-3" data-name="Shape" class="cls-3" d="M671.5,490.67v7.43a6,6,0,0,1-2.7,4.66,11.83,11.83,0,0,1-1.26.82,14.49,14.49,0,0,1-4.14,1.51c-.43.1-.88.18-1.33.24a19.75,19.75,0,0,1-5.43,0c-.46-.06-.9-.14-1.34-.24a14.6,14.6,0,0,1-4.14-1.51,10.77,10.77,0,0,1-1.25-.82,6,6,0,0,1-2.7-4.66v-7.43Z" transform="translate(-645.71 -481.75)"/><path id="Shape-4" data-name="Shape" class="cls-4" d="M651.26,499.45v3.78a.74.74,0,0,1-.1.35,10.77,10.77,0,0,1-1.25-.82v-3.31a.67.67,0,0,1,.67-.68A.68.68,0,0,1,651.26,499.45Z" transform="translate(-645.71 -481.75)"/><path id="Shape-5" data-name="Shape" class="cls-4" d="M656.65,501.47v3.76a.17.17,0,0,1,0,.1c-.46-.06-.9-.14-1.34-.24v-3.62a.68.68,0,0,1,.68-.67.67.67,0,0,1,.67.67Z" transform="translate(-645.71 -481.75)"/><path id="Shape-6" data-name="Shape" class="cls-4" d="M668.8,499.45v3.31a11.83,11.83,0,0,1-1.26.82.73.73,0,0,1-.09-.35v-3.78a.68.68,0,1,1,1.35,0Z" transform="translate(-645.71 -481.75)"/><path id="Shape-7" data-name="Shape" class="cls-4" d="M663.4,501.47v3.62c-.43.1-.88.18-1.33.24a.18.18,0,0,1,0-.1v-3.76a.68.68,0,0,1,1.35,0Z" transform="translate(-645.71 -481.75)"/><ellipse id="Oval" class="cls-5" cx="13.65" cy="8.92" rx="12.15" ry="7.42"/><path id="Shape-8" data-name="Shape" class="cls-6" d="M671.5,490.67c0,4.11-5.44,7.43-12.15,7.43v-2a1.36,1.36,0,0,1,1.35-1.35h2.7a1.35,1.35,0,0,0,0-2.7H654a1.35,1.35,0,0,1,0-2.7h9.45a1.35,1.35,0,1,0,0-2.7h-2.7a1.36,1.36,0,0,1-1.35-1.34v-2C666.06,483.25,671.5,486.57,671.5,490.67Z" transform="translate(-645.71 -481.75)"/><path id="Shape-9" data-name="Shape" class="cls-7" d="M659.35,498.1v-2a1.36,1.36,0,0,1,1.35-1.35h2.7a1.35,1.35,0,0,0,0-2.7H654a1.35,1.35,0,0,1,0-2.7h9.45a1.35,1.35,0,1,0,0-2.7h-2.7a1.36,1.36,0,0,1-1.35-1.34v-2" transform="translate(-645.71 -481.75)"/><circle id="Oval-2" data-name="Oval" class="cls-8" cx="4.2" cy="8.92" r="0.67"/><circle id="Oval-3" data-name="Oval" class="cls-9" cx="23.09" cy="8.92" r="0.67"/></g></g></svg>