<svg id="Capa_1" data-name="Capa 1" xmlns="http://www.w3.org/2000/svg" xmlns:xlink="http://www.w3.org/1999/xlink" viewBox="0 0 26.36 71.26"><defs><style>.cls-1,.cls-8{fill:#333;}.cls-1{stroke:#fff;stroke-linecap:round;stroke-linejoin:round;stroke-width:3px;}.cls-2{fill:#d8d8d8;}.cls-3{fill:#1420af;}.cls-4{fill:#6d6d6d;}.cls-5{fill:#fefefe;}.cls-6{fill:#e2e2e2;}.cls-7{fill:#919191;}.cls-9{fill:url(#Degradado_sin_nombre_109);}.cls-10{fill:url(#Degradado_sin_nombre_109-2);}</style><linearGradient id="Degradado_sin_nombre_109" x1="659.39" y1="485.26" x2="659.39" y2="466.04" gradientUnits="userSpaceOnUse"><stop offset="0" stop-color="#fff" stop-opacity="0"/><stop offset="0.51" stop-color="#fff"/><stop offset="1" stop-color="#fff" stop-opacity="0"/></linearGradient><linearGradient id="Degradado_sin_nombre_109-2" x1="664.85" y1="487.19" x2="664.85" y2="467.97" xlink:href="#Degradado_sin_nombre_109"/></defs><path class="cls-1" d="M654.91,517.56c0,1.41,0,16.48,0,17.89a1,1,0,0,0,.4.89h.45a.9.9,0,0,0,.45-.9c0-1.41,0-16.47,0-17.89.55-.19.66-.34.66-.92V515h-2.59v1.66C654.26,517.24,654.32,517.34,654.91,517.56Z" transform="translate(-646.17 -466.59)"/><path class="cls-1" d="M663.3,516.63c0,.58.11.73.66.92,0,1.42,0,16.48,0,17.89a.91.91,0,0,0,.45.9h.45a1,1,0,0,0,.4-.89c0-1.41,0-16.48,0-17.89.59-.22.65-.31.65-.95V515h-2.58C663.31,515.51,663.3,516.07,663.3,516.63Z" transform="translate(-646.17 -466.59)"/><path class="cls-1" d="M668.07,512.21h-.74a1.67,1.67,0,0,1,0-2.36h-.62a6.73,6.73,0,0,0,1.19-.06,1.66,1.66,0,0,0,.22,0c.77-.13,1-.4,1-1.2v-17.3c0-1.54.85-3,1.91-4.59v-.26a1.89,1.89,0,0,0-1.91-1.85l-2.52,3.55-.48.64v-.06l-1.39,1.89h0l-.78,1.05,1.68-10-2-.47-2.18,12.18-.88,1.17-2.35-10.95-2,.06,1.4,10.07-1.53-.56-2.43-10.31-2,.09,2,9-1.37-.71-1.85-4.57c-.44,0-.27-2.14-.71-2.14a1.84,1.84,0,0,0-1.15.39c-.58.44-1.11,1.13-.77,1.76,4.69,8.58,3.25,14.56,3.25,21.84a2.82,2.82,0,0,0,0,.41.88.88,0,0,0,.72.79,4,4,0,0,0,.48.07,6.78,6.78,0,0,0,1.19.06H653a1.38,1.38,0,0,1,0,2.36h-.89a1,1,0,0,0-1.05,1v.64a1,1,0,0,0,1.05,1.05h16a1,1,0,0,0,1-1.05v-.64A1,1,0,0,0,668.07,512.21Z" transform="translate(-646.17 -466.59)"/><path class="cls-2" d="M656.19,517.55c0,1.42,0,16.48,0,17.89a.9.9,0,0,1-.45.9h-.44a1,1,0,0,1-.41-.89c0-1.41,0-16.48,0-17.89A1.51,1.51,0,0,1,656.19,517.55Z" transform="translate(-646.17 -466.59)"/><path class="cls-2" d="M664.4,536.34a.91.91,0,0,1-.45-.9c0-1.41,0-16.47,0-17.89a1.51,1.51,0,0,1,1.28,0c0,1.41,0,16.48,0,17.89a1,1,0,0,1-.4.89Z" transform="translate(-646.17 -466.59)"/><path class="cls-3" d="M650.41,486.67c-.44,0-.27-2.14-.71-2.14a1.84,1.84,0,0,0-1.15.39c-.58.44-1.11,1.13-.77,1.76,4.69,8.58,3.25,14.56,3.25,21.84a2.82,2.82,0,0,0,0,.41.88.88,0,0,0,.72.79,4,4,0,0,0,.48.07,6.78,6.78,0,0,0,1.19.06h13.27a6.73,6.73,0,0,0,1.19-.06,1.66,1.66,0,0,0,.22,0c.77-.13,1-.4,1-1.2v-17.3c0-1.54.85-3,1.91-4.59v-.26a1.89,1.89,0,0,0-1.91-1.85l-2.52,3.55L664,491.63l1.68-10-2-.47-2.18,12.18-.88,1.17-2.35-10.95-2,.06,1.4,10.07-1.53-.56-2.43-10.31-2,.09,2,9-1.37-.71Z" transform="translate(-646.17 -466.59)"/><path class="cls-4" d="M654.26,515h2.59v1.68c0,.58-.11.73-.66.92h-1.28c-.59-.22-.65-.32-.65-.95Z" transform="translate(-646.17 -466.59)"/><path class="cls-4" d="M663.31,515h2.58v1.66c0,.64-.06.73-.65.95H664c-.55-.19-.66-.34-.66-.92S663.31,515.51,663.31,515Z" transform="translate(-646.17 -466.59)"/><path class="cls-5" d="M654.26,500.18v1.7c0,.46-.27.76-.65.76s-.64-.28-.64-.75v-3a.66.66,0,0,1,.38-.7.7.7,0,0,1,.8.21,9.11,9.11,0,0,0,3.68,2.19,4,4,0,0,0,.92.13.63.63,0,0,1,.67.68.62.62,0,0,1-.71.6,5.22,5.22,0,0,1-1.57-.26c-.2-.07-.28-.06-.3.18,0,.5-.28.75-.66.74a.65.65,0,0,1-.63-.8,1.05,1.05,0,0,0-.68-1.26A3.93,3.93,0,0,1,654.26,500.18Z" transform="translate(-646.17 -466.59)"/><path class="cls-5" d="M656.85,505.41v-1.36c0-.42.17-.68.49-.73a.61.61,0,0,1,.76.43.24.24,0,0,0,.27.18,2.54,2.54,0,0,1,.55,0,.64.64,0,0,1,0,1.24.52.52,0,0,1-.18,0c-.61.06-.61.06-.61.68,0,.21,0,.42,0,.63a.62.62,0,0,1-.9.56c-1.32-.63-2.62-1.29-3.93-2a.62.62,0,0,1-.26-.86.64.64,0,0,1,.87-.27l2.56,1.28A.64.64,0,0,0,656.85,505.41Z" transform="translate(-646.17 -466.59)"/><path class="cls-6" d="M651,488.71c0,.62,0,1.24,0,1.86a.83.83,0,0,1-.19.65c-.13.08-.26.07-.36-.18a1,1,0,0,1-.06-.38c0-1.3-1.58-2.6-1.58-3.9,0-.41.11-.64.3-.65s.31.29.32.66C649.45,487.42,651,488.07,651,488.71Z" transform="translate(-646.17 -466.59)"/><path class="cls-6" d="M653,494.55c0-.32,0-.64,0-1a.58.58,0,0,1,.58-.64.65.65,0,0,1,.68.6q0,1,0,2a.65.65,0,0,1-.68.6.6.6,0,0,1-.58-.64v-1Z" transform="translate(-646.17 -466.59)"/><path class="cls-7" d="M667.33,512.21H653a1.38,1.38,0,0,0,0-2.36h14.37A1.67,1.67,0,0,0,667.33,512.21Z" transform="translate(-646.17 -466.59)"/><rect class="cls-3" x="4.85" y="45.63" width="18.1" height="2.74" rx="1.05"/><polygon points="19.95 43.24 18.56 43.24 18.56 24 19.95 22.1 19.95 43.24"/><rect x="18.43" y="45.63" width="1.65" height="2.74"/><path class="cls-8" d="M666.25,512.21H664.6a1.41,1.41,0,0,1,0-2.38h1.65C665.11,510.7,665.19,511.49,666.25,512.21Z" transform="translate(-646.17 -466.59)"/><path class="cls-9" d="M659.08,484.58a5.1,5.1,0,0,1-2.15-4.71,5.7,5.7,0,0,1,1.08-2.65l.46-.53.23-.26.16-.2.33-.38c.09-.13.15-.28.24-.42a4.53,4.53,0,0,0,.39-.9,8.35,8.35,0,0,0,.17-1,8.76,8.76,0,0,0-.07-2.22,32.25,32.25,0,0,0-1.17-4.7,10.76,10.76,0,0,1,2.69,4.34,8.08,8.08,0,0,1,.44,2.67,7.79,7.79,0,0,1-.15,1.42,6.23,6.23,0,0,1-.55,1.37c-.13.21-.24.44-.39.64l-.49.55-.44.45-.38.38a5,5,0,0,0-1,1.75A6.18,6.18,0,0,0,659.08,484.58Z" transform="translate(-646.17 -466.59)"/><path class="cls-10" d="M664.54,486.51a5.13,5.13,0,0,1-2.16-4.71,5.8,5.8,0,0,1,1.09-2.65l.46-.53.23-.26.16-.2.32-.37c.1-.14.16-.29.25-.42a4.86,4.86,0,0,0,.38-.91,6.58,6.58,0,0,0,.18-1,9.28,9.28,0,0,0-.07-2.22,31.08,31.08,0,0,0-1.18-4.7,11,11,0,0,1,2.7,4.34,8.13,8.13,0,0,1,.44,2.67,7.61,7.61,0,0,1-.15,1.42,6.31,6.31,0,0,1-.55,1.38c-.13.21-.24.43-.39.63l-.49.56-.44.45-.38.37a5.07,5.07,0,0,0-1,1.76A6.15,6.15,0,0,0,664.54,486.51Z" transform="translate(-646.17 -466.59)"/></svg>