<svg id="Capa_1" data-name="Capa 1" xmlns="http://www.w3.org/2000/svg" viewBox="0 0 12.57 56.5"><defs><style>.cls-1,.cls-8{fill:#39b54a;}.cls-1{stroke:#fff;stroke-linecap:round;stroke-linejoin:round;stroke-width:3px;}.cls-2{fill:#ccc;}.cls-3{fill:#95a5a5;}.cls-4{fill:#fac176;}.cls-5{fill:#fcee21;}.cls-6{fill:#e64c3c;}.cls-7{fill:#8c6239;}</style></defs><path class="cls-1" d="M662.19,492.73h.21a3.77,3.77,0,0,1-1.63-1.6.9.9,0,0,0-.43-.47V475.19h-2v15.47a.88.88,0,0,0-.44.47,3.77,3.77,0,0,1-1.62,1.6h.2a3.45,3.45,0,0,0-1.94,3.11v1.74a1.29,1.29,0,0,0,.07.43,1.26,1.26,0,0,0,.47.62,1.81,1.81,0,0,1,.73,1.13,1.63,1.63,0,0,1,0,.31v5.45a1.73,1.73,0,0,1,0,.32,1.81,1.81,0,0,1-.73,1.12,1.26,1.26,0,0,0-.54,1.06v1.32a3.47,3.47,0,0,0,1.85,3.07h-.11a3.78,3.78,0,0,1,1.62,1.59.87.87,0,0,0,.44.48v14.21h2V514.48a.88.88,0,0,0,.43-.48,3.78,3.78,0,0,1,1.63-1.59h-.12a3.48,3.48,0,0,0,1.86-3.07V508a1.32,1.32,0,0,0-.08-.44,1.29,1.29,0,0,0-.46-.62,1.81,1.81,0,0,1-.73-1.12,1.17,1.17,0,0,1,0-.32v-5.45a1.1,1.1,0,0,1,0-.31,1.81,1.81,0,0,1,.73-1.13,1.24,1.24,0,0,0,.46-.62,1.31,1.31,0,0,0,.08-.43v-1.74A3.46,3.46,0,0,0,662.19,492.73Z" transform="translate(-653.07 -473.69)"/><g id="Page-1"><g id="_004---Resistor" data-name="004---Resistor"><rect class="cls-2" x="5.3" y="1.5" width="1.98" height="53.5"/><path id="Shape" class="cls-3" d="M662.4,512.41a3.78,3.78,0,0,0-1.63,1.59.86.86,0,0,1-.82.58h-1.2a.87.87,0,0,1-.82-.58,3.78,3.78,0,0,0-1.62-1.59Z" transform="translate(-653.07 -473.69)"/><path id="Shape-2" data-name="Shape" class="cls-3" d="M662.4,492.73a3.77,3.77,0,0,1-1.63-1.6.89.89,0,0,0-.82-.58h-1.2a.9.9,0,0,0-.82.58,3.77,3.77,0,0,1-1.62,1.6Z" transform="translate(-653.07 -473.69)"/><path id="Shape-3" data-name="Shape" class="cls-4" d="M664.14,495.84v1.74a1.31,1.31,0,0,1-.08.43,1.24,1.24,0,0,1-.46.62,1.81,1.81,0,0,0-.73,1.13,1.1,1.1,0,0,0,0,.31v5.45a1.17,1.17,0,0,0,0,.32,1.81,1.81,0,0,0,.73,1.12,1.29,1.29,0,0,1,.46.62,1.32,1.32,0,0,1,.08.44v1.32a3.49,3.49,0,0,1-3.49,3.49h-2.6a3.48,3.48,0,0,1-3.48-3.49V508a1.26,1.26,0,0,1,.54-1.06,1.81,1.81,0,0,0,.73-1.12,1.73,1.73,0,0,0,0-.32v-5.45a1.63,1.63,0,0,0,0-.31,1.81,1.81,0,0,0-.73-1.13,1.26,1.26,0,0,1-.47-.62,1.29,1.29,0,0,1-.07-.43v-1.74a3.48,3.48,0,0,1,3.48-3.49h2.61a3.48,3.48,0,0,1,3.48,3.49Z" transform="translate(-653.07 -473.69)"/><path id="Shape-4" data-name="Shape" class="cls-5" d="M659.79,497.58a.44.44,0,0,1-.44.43h-4.71a1.29,1.29,0,0,1-.07-.43v-.44h4.78A.44.44,0,0,1,659.79,497.58Z" transform="translate(-653.07 -473.69)"/><path id="Shape-5" data-name="Shape" class="cls-5" d="M664.14,497.14v.44a1.31,1.31,0,0,1-.08.43h-3a.43.43,0,0,1-.43-.43.44.44,0,0,1,.43-.44Z" transform="translate(-653.07 -473.69)"/><path id="Shape-6" data-name="Shape" class="cls-6" d="M659.79,500.19a.44.44,0,0,1-.44.43h-3.48v-.55a1.63,1.63,0,0,0,0-.31h3.51A.44.44,0,0,1,659.79,500.19Z" transform="translate(-653.07 -473.69)"/><path id="Shape-7" data-name="Shape" class="cls-6" d="M662.87,499.76a1.1,1.1,0,0,0,0,.31v.55h-1.74a.43.43,0,0,1-.43-.43.44.44,0,0,1,.43-.44h1.78Z" transform="translate(-653.07 -473.69)"/><path id="Shape-8" data-name="Shape" class="cls-7" d="M659.79,508a.44.44,0,0,1-.44.43h-4.78V508a1.31,1.31,0,0,1,.07-.44h4.71A.44.44,0,0,1,659.79,508Z" transform="translate(-653.07 -473.69)"/><path id="Shape-9" data-name="Shape" class="cls-7" d="M664.14,508v.43h-3a.43.43,0,0,1-.43-.43.44.44,0,0,1,.43-.44h3A1.32,1.32,0,0,1,664.14,508Z" transform="translate(-653.07 -473.69)"/><path id="Shape-10" data-name="Shape" class="cls-8" d="M659.79,505.41a.44.44,0,0,1-.44.43h-3.51a1.73,1.73,0,0,0,0-.32V505h3.48a.44.44,0,0,1,.44.44Z" transform="translate(-653.07 -473.69)"/><path id="Shape-11" data-name="Shape" class="cls-8" d="M662.87,505.84h-1.78a.43.43,0,0,1-.43-.43.44.44,0,0,1,.43-.44h1.74v.55a1.17,1.17,0,0,0,0,.32Z" transform="translate(-653.07 -473.69)"/></g></g></svg>