<svg id="Capa_1" data-name="Capa 1" xmlns="http://www.w3.org/2000/svg" viewBox="0 0 23.8 43.21"><defs><style>.cls-1,.cls-5{fill:#95a5a5;}.cls-1{stroke:#fff;stroke-linecap:round;stroke-linejoin:round;stroke-width:3px;}.cls-2{fill:#333;}.cls-3{fill:#1a1a1a;}.cls-4{fill:#e6e6e6;}</style></defs><path class="cls-1" d="M669.06,495.7h-.69v-5.44l-.88.91L667,489l-1.39-1.94-1.38,1-1-1.66V485.3l-1.82-.67-1.06,3.44-2.18-.32,1.15-1.64-1-1.76-1.53.65-1.24-1.65.4-1.52h-4.22a1.39,1.39,0,0,0-1.39,1.39V495.7h-.69a.69.69,0,0,0-.7.69v1.39a.69.69,0,0,0,.7.69h2.08v22.88a.69.69,0,0,0,.69.7h1.39a.69.69,0,0,0,.69-.7V498.47H658v22.88a.69.69,0,0,0,.69.7h1.39a.69.69,0,0,0,.69-.7V498.47h3.47v22.88a.69.69,0,0,0,.69.7h1.39a.69.69,0,0,0,.69-.7V498.47h2.08a.69.69,0,0,0,.69-.69v-1.39A.69.69,0,0,0,669.06,495.7Z" transform="translate(-647.45 -480.33)"/><path class="cls-2" d="M667.49,491.17,667,489l-1.39-1.94-1.38,1-1-1.66V485.3l-1.82-.67-1.06,3.44-2.18-.32,1.15-1.64-1-1.76-1.53.65-1.24-1.65.4-1.52h-4.22a1.39,1.39,0,0,0-1.39,1.39V495.7h18v-5.44Z" transform="translate(-647.45 -480.33)"/><rect id="Rectangle-path" class="cls-3" x="1.5" y="15.37" width="20.8" height="2.77" rx="0.69"/><path id="Shape" class="cls-4" d="M653.11,486.69a.69.69,0,0,1-.69-.7v-1.38a.7.7,0,1,1,1.39,0V486A.7.7,0,0,1,653.11,486.69Z" transform="translate(-647.45 -480.33)"/><path id="Shape-2" data-name="Shape" class="cls-4" d="M653.11,493.62a.69.69,0,0,1-.69-.69v-4.16a.7.7,0,1,1,1.39,0v4.16A.69.69,0,0,1,653.11,493.62Z" transform="translate(-647.45 -480.33)"/><path id="Shape-3" data-name="Shape" class="cls-5" d="M651.73,498.47h2.77v22.88a.69.69,0,0,1-.69.7h-1.39a.69.69,0,0,1-.69-.7Z" transform="translate(-647.45 -480.33)"/><path id="Shape-4" data-name="Shape" class="cls-5" d="M658,498.47h2.77v22.88a.69.69,0,0,1-.69.7h-1.39a.69.69,0,0,1-.69-.7Z" transform="translate(-647.45 -480.33)"/><path id="Shape-5" data-name="Shape" class="cls-5" d="M664.21,498.47H667v22.88a.69.69,0,0,1-.69.7H664.9a.69.69,0,0,1-.69-.7Z" transform="translate(-647.45 -480.33)"/></svg>