<svg id="Capa_1" data-name="Capa 1" xmlns="http://www.w3.org/2000/svg" xmlns:xlink="http://www.w3.org/1999/xlink" viewBox="0 0 27.29 58.11"><defs><style>.cls-1,.cls-9{fill:#95a5a5;}.cls-1{stroke:#fff;stroke-width:3px;}.cls-1,.cls-7{stroke-miterlimit:10;}.cls-2{fill:#b7b7b7;}.cls-3{fill:#c9c9c9;}.cls-4{fill:#7f8c8d;}.cls-5{fill:#89979b;}.cls-6{fill:#e6e6e6;}.cls-7{fill:none;stroke:red;}.cls-8{fill:#efefef;}.cls-10{fill:url(#Degradado_sin_nombre_112);}.cls-11{fill:url(#Degradado_sin_nombre_109);}.cls-12{fill:url(#Degradado_sin_nombre_109-2);}.cls-13{fill:url(#Degradado_sin_nombre_109-3);}</style><radialGradient id="Degradado_sin_nombre_112" cx="661.35" cy="496.41" r="37.8" gradientTransform="translate(11.01 220.64) rotate(2.41) scale(1 0.5)" gradientUnits="userSpaceOnUse"><stop offset="0.1"/><stop offset="0.89" stop-color="#ccc" stop-opacity="0"/></radialGradient><linearGradient id="Degradado_sin_nombre_109" x1="664.86" y1="492.94" x2="664.86" y2="477.57" gradientUnits="userSpaceOnUse"><stop offset="0" stop-color="#fff" stop-opacity="0"/><stop offset="0.51" stop-color="#fff"/><stop offset="1" stop-color="#fff" stop-opacity="0"/></linearGradient><linearGradient id="Degradado_sin_nombre_109-2" x1="655.41" y1="501.39" x2="655.41" y2="486.02" xlink:href="#Degradado_sin_nombre_109"/><linearGradient id="Degradado_sin_nombre_109-3" x1="659.79" y1="488.02" x2="659.79" y2="472.65" xlink:href="#Degradado_sin_nombre_109"/></defs><path class="cls-1" d="M671.44,499c-.63-3.74-5.8-6.66-12.09-6.66-6.71,0-12.14,3.32-12.14,7.42v7.42a6,6,0,0,0,2.7,4.67,9.55,9.55,0,0,0,1.25.81,14.23,14.23,0,0,0,1.73.8,7.83,7.83,0,0,0-3,6v9.19a1.06,1.06,0,1,0,2.11,0v-9.19c0-2,1.14-3.81,3.38-5.27.4.08.81.16,1.24.22a19.75,19.75,0,0,0,5.43,0c.44-.06.87-.14,1.28-.23,2.25,1.46,3.39,3.24,3.39,5.28v9.19a1.06,1.06,0,1,0,2.11,0v-9.19a7.86,7.86,0,0,0-3-6,15.11,15.11,0,0,0,1.68-.79,10.39,10.39,0,0,0,1.26-.81,6,6,0,0,0,2.7-4.67v-7.42A4.87,4.87,0,0,0,671.44,499Z" transform="translate(-645.71 -473.11)"/><g id="Page-1"><g id="_040---LED" data-name="040---LED"><path id="Shape" class="cls-2" d="M667.8,529.73a1.06,1.06,0,0,1-1.06-1.06v-9.19c0-2.09-1.18-3.89-3.52-5.37a1,1,0,0,1-.49-.94,1.06,1.06,0,0,1,.56-.89,1.08,1.08,0,0,1,1.06,0c2.94,1.87,4.5,4.34,4.5,7.16v9.19A1.05,1.05,0,0,1,667.8,529.73Z" transform="translate(-645.71 -473.11)"/><path id="Shape-2" data-name="Shape" class="cls-2" d="M649.91,528.67v-9.19c0-2.82,1.56-5.29,4.5-7.16a1.08,1.08,0,0,1,1.06,0,1.06,1.06,0,0,1,.56.89,1,1,0,0,1-.49.94c-2.34,1.48-3.52,3.28-3.52,5.37v9.19a1.06,1.06,0,1,1-2.11,0Z" transform="translate(-645.71 -473.11)"/><path id="Shape-3" data-name="Shape" class="cls-3" d="M671.5,499.77v7.42a6,6,0,0,1-2.7,4.67,10.39,10.39,0,0,1-1.26.81,14.51,14.51,0,0,1-4.14,1.52c-.43.1-.88.18-1.33.24a19.75,19.75,0,0,1-5.43,0c-.46-.06-.9-.14-1.34-.24a14.62,14.62,0,0,1-4.14-1.52,9.55,9.55,0,0,1-1.25-.81,6,6,0,0,1-2.7-4.67v-7.42Z" transform="translate(-645.71 -473.11)"/><path id="Shape-4" data-name="Shape" class="cls-4" d="M651.26,508.54v3.79a.67.67,0,0,1-.1.34,9.55,9.55,0,0,1-1.25-.81v-3.32a.67.67,0,0,1,.67-.67A.68.68,0,0,1,651.26,508.54Z" transform="translate(-645.71 -473.11)"/><path id="Shape-5" data-name="Shape" class="cls-4" d="M656.65,510.57v3.76a.17.17,0,0,1,0,.1c-.46-.06-.9-.14-1.34-.24v-3.62a.69.69,0,0,1,.68-.68.68.68,0,0,1,.67.68Z" transform="translate(-645.71 -473.11)"/><path id="Shape-6" data-name="Shape" class="cls-4" d="M668.8,508.54v3.32a10.39,10.39,0,0,1-1.26.81.67.67,0,0,1-.09-.34v-3.79a.68.68,0,0,1,1.35,0Z" transform="translate(-645.71 -473.11)"/><path id="Shape-7" data-name="Shape" class="cls-4" d="M663.4,510.57v3.62c-.43.1-.88.18-1.33.24a.18.18,0,0,1,0-.1v-3.76a.68.68,0,1,1,1.35,0Z" transform="translate(-645.71 -473.11)"/><ellipse id="Oval" class="cls-5" cx="13.65" cy="26.66" rx="12.15" ry="7.42"/><path id="Shape-8" data-name="Shape" class="cls-6" d="M671.5,499.77c0,4.1-5.44,7.42-12.15,7.42v-2a1.36,1.36,0,0,1,1.35-1.35h2.7a1.35,1.35,0,1,0,0-2.7H654a1.35,1.35,0,0,1,0-2.7h9.45a1.35,1.35,0,1,0,0-2.7h-2.7a1.36,1.36,0,0,1-1.35-1.35v-2C666.06,492.35,671.5,495.67,671.5,499.77Z" transform="translate(-645.71 -473.11)"/><path id="Shape-9" data-name="Shape" class="cls-7" d="M659.35,507.19v-2a1.36,1.36,0,0,1,1.35-1.35h2.7a1.35,1.35,0,1,0,0-2.7H654a1.35,1.35,0,0,1,0-2.7h9.45a1.35,1.35,0,1,0,0-2.7h-2.7a1.36,1.36,0,0,1-1.35-1.35v-2" transform="translate(-645.71 -473.11)"/><circle id="Oval-2" data-name="Oval" class="cls-8" cx="4.2" cy="26.66" r="0.67"/><circle id="Oval-3" data-name="Oval" class="cls-9" cx="23.09" cy="26.66" r="0.67"/></g></g><path class="cls-10" d="M671.76,499c-.62-3.74-5.79-6.66-12.08-6.66-6.71,0-12.15,3.32-12.15,7.42v7.42a6,6,0,0,0,2.7,4.67,10.39,10.39,0,0,0,1.26.81,13.43,13.43,0,0,0,1.72.8,7.87,7.87,0,0,0-3,6v9.19a1.06,1.06,0,1,0,2.11,0v-9.19c0-2,1.14-3.81,3.38-5.27.41.08.82.16,1.25.22a19.68,19.68,0,0,0,5.42,0c.44-.06.87-.14,1.29-.23,2.24,1.46,3.39,3.24,3.39,5.28v9.19a1.06,1.06,0,1,0,2.11,0v-9.19a7.84,7.84,0,0,0-3-6,15.25,15.25,0,0,0,1.69-.79,10.39,10.39,0,0,0,1.26-.81,6,6,0,0,0,2.69-4.67v-7.42A4.87,4.87,0,0,0,671.76,499Z" transform="translate(-645.71 -473.11)"/><path class="cls-11" d="M664.63,492.35a4.48,4.48,0,0,1-1.65-3.73,5,5,0,0,1,.64-2.16c.09-.16.2-.31.31-.47l.16-.22.09-.15c.06-.11.13-.19.19-.3l.14-.33a7.37,7.37,0,0,0,.36-3.22c-.09-1.19-.27-2.42-.45-3.74a8.57,8.57,0,0,1,2,3.45,6.33,6.33,0,0,1,0,4.27l-.25.54a5.36,5.36,0,0,1-.34.49l-.31.4-.25.3a4.55,4.55,0,0,0-.7,1.37A6.48,6.48,0,0,0,664.63,492.35Z" transform="translate(-645.71 -473.11)"/><path class="cls-12" d="M655.18,500.79a4.45,4.45,0,0,1-1.65-3.73,5,5,0,0,1,.64-2.15c.1-.17.21-.32.31-.47l.16-.22.09-.16c.06-.1.14-.19.19-.29l.15-.33a7.53,7.53,0,0,0,.35-3.22c-.08-1.19-.27-2.42-.45-3.74a8.64,8.64,0,0,1,2,3.45,6.39,6.39,0,0,1,0,4.27l-.26.53a5.5,5.5,0,0,1-.34.5l-.3.4-.26.3a4.77,4.77,0,0,0-.69,1.37A6.43,6.43,0,0,0,655.18,500.79Z" transform="translate(-645.71 -473.11)"/><path class="cls-13" d="M659.55,487.43a4.51,4.51,0,0,1-1.65-3.73,4.85,4.85,0,0,1,.65-2.16c.09-.16.2-.31.31-.47l.15-.22.09-.15c.06-.11.14-.2.2-.3l.14-.33a7.52,7.52,0,0,0,.36-3.22c-.09-1.19-.28-2.42-.46-3.74a8.48,8.48,0,0,1,2,3.45,6.39,6.39,0,0,1,0,4.27l-.26.54c-.1.17-.22.33-.33.49l-.31.4-.25.3a4.55,4.55,0,0,0-.7,1.37A6.47,6.47,0,0,0,659.55,487.43Z" transform="translate(-645.71 -473.11)"/></svg>