<svg id="Capa_1" data-name="Capa 1" xmlns="http://www.w3.org/2000/svg" xmlns:xlink="http://www.w3.org/1999/xlink" viewBox="0 0 29.25 65.18"><defs><style>.cls-1{fill:#ecf0f1;stroke:#fff;stroke-miterlimit:10;stroke-width:3px;}.cls-2{fill:#95a5a5;}.cls-3{fill:#ffd400;}.cls-4{fill:#d1a900;}.cls-5{fill:#fff;}.cls-6{fill:url(#Degradado_sin_nombre_97);}.cls-7{fill:url(#Degradado_sin_nombre_109);}.cls-8{fill:url(#Degradado_sin_nombre_109-2);}.cls-9{fill:url(#Degradado_sin_nombre_109-3);}</style><radialGradient id="Degradado_sin_nombre_97" cx="662.97" cy="497.82" r="35.55" gradientUnits="userSpaceOnUse"><stop offset="0.13"/><stop offset="0.46" stop-color="#f7931e" stop-opacity="0"/></radialGradient><linearGradient id="Degradado_sin_nombre_109" x1="661.36" y1="490" x2="661.36" y2="469.12" gradientUnits="userSpaceOnUse"><stop offset="0" stop-color="#fff" stop-opacity="0"/><stop offset="0.51" stop-color="#fff"/><stop offset="1" stop-color="#fff" stop-opacity="0"/></linearGradient><linearGradient id="Degradado_sin_nombre_109-2" x1="665.66" y1="489.94" x2="665.66" y2="474.57" xlink:href="#Degradado_sin_nombre_109"/><linearGradient id="Degradado_sin_nombre_109-3" x1="656.09" y1="489.94" x2="656.09" y2="474.57" xlink:href="#Degradado_sin_nombre_109"/></defs><path class="cls-1" d="M671.3,524.87a2.61,2.61,0,0,0-2.16-2.18,1.38,1.38,0,0,1-1-.74,1.36,1.36,0,0,1,0-1.24l.49-1a2.63,2.63,0,0,0,.2-1.81l-.88-3.49a1.11,1.11,0,0,0-.07-.16,1.38,1.38,0,0,0,.31-.4,1.36,1.36,0,0,0,.07-1.05l-.69-2.07a1.36,1.36,0,0,0-.1-.21l-.24-.33-1.38-2a10.56,10.56,0,0,0,1.79-6h0c0-5.34-3.71-9.67-8.29-9.67s-8.28,4.33-8.28,9.67h0a10.62,10.62,0,0,0,1.78,6l-1.38,2-.23.33a1,1,0,0,0-.11.21l-.69,2.07a1.41,1.41,0,0,0,.39,1.46.44.44,0,0,0-.08.15l-.88,3.49a2.61,2.61,0,0,0,.2,1.8l.5,1a1.36,1.36,0,0,1,0,1.24,1.38,1.38,0,0,1-1,.74,2.6,2.6,0,0,0-2.15,2.18l-1.17,7.6a.68.68,0,0,0,.16.55.66.66,0,0,0,.52.24.68.68,0,0,0,.68-.58l1.17-7.6a1.23,1.23,0,0,1,1-1,2.8,2.8,0,0,0,2-1.47,2.76,2.76,0,0,0,0-2.49l-.49-1a1.22,1.22,0,0,1-.1-.84l.88-3.5a.48.48,0,0,0,0-.17,1.38,1.38,0,0,0,1-.9l.55-1.67,1.84-1.27a7.29,7.29,0,0,0,7.78,0l1.85,1.27.55,1.67a1.33,1.33,0,0,0,.69.8,2.29,2.29,0,0,0,.28.08.61.61,0,0,0,0,.19l.88,3.49a1.28,1.28,0,0,1-.09.86l-.5,1a2.76,2.76,0,0,0,2,4,1.27,1.27,0,0,1,1,1l1.16,7.6a.7.7,0,0,0,.69.58.66.66,0,0,0,.52-.24.68.68,0,0,0,.16-.55Z" transform="translate(-644.73 -469.58)"/><g id="Page-1"><g id="_039---Capacitor" data-name="039---Capacitor"><path id="Shape" class="cls-2" d="M646.92,533.26a.66.66,0,0,1-.52-.24.68.68,0,0,1-.16-.55l1.17-7.6a2.6,2.6,0,0,1,2.15-2.18,1.38,1.38,0,0,0,1-.74,1.36,1.36,0,0,0,0-1.24l-.5-1a2.61,2.61,0,0,1-.2-1.8l.88-3.49a.7.7,0,0,1,.48-.52.69.69,0,0,1,.86.85l-.88,3.5a1.22,1.22,0,0,0,.1.84l.49,1a2.76,2.76,0,0,1,0,2.49,2.8,2.8,0,0,1-2,1.47,1.23,1.23,0,0,0-1,1l-1.17,7.6a.68.68,0,0,1-.68.58Z" transform="translate(-644.73 -469.58)"/><path id="Shape-2" data-name="Shape" class="cls-2" d="M671.79,533.26a.7.7,0,0,1-.69-.58l-1.16-7.6a1.27,1.27,0,0,0-1-1,2.76,2.76,0,0,1-2-4l.5-1a1.28,1.28,0,0,0,.09-.86l-.88-3.49a.69.69,0,1,1,1.34-.33l.88,3.49a2.63,2.63,0,0,1-.2,1.81l-.49,1a1.36,1.36,0,0,0,0,1.24,1.38,1.38,0,0,0,1,.74,2.61,2.61,0,0,1,2.16,2.18l1.17,7.6a.68.68,0,0,1-.16.55.66.66,0,0,1-.52.24Z" transform="translate(-644.73 -469.58)"/><path id="Shape-3" data-name="Shape" class="cls-3" d="M652.85,508.18l-1.38,2-.23.33a1,1,0,0,0-.11.21l-.69,2.07a1.39,1.39,0,1,0,2.63.87l.55-1.67,1.84-1.27Z" transform="translate(-644.73 -469.58)"/><path id="Shape-4" data-name="Shape" class="cls-4" d="M667.39,514.55a1.44,1.44,0,0,1-1.06-.08,1.33,1.33,0,0,1-.69-.8l-.55-1.67-1.85-1.27a7.29,7.29,0,0,1-7.78,0,8.81,8.81,0,0,1-2.61-2.55,10.62,10.62,0,0,1-1.78-6h0c0-5.34,3.7-9.67,8.28-9.67s8.29,4.33,8.29,9.67h0a10.56,10.56,0,0,1-1.79,6l1.38,2,.24.33a1.36,1.36,0,0,1,.1.21l.69,2.07a1.36,1.36,0,0,1-.07,1.05,1.45,1.45,0,0,1-.8.7Z" transform="translate(-644.73 -469.58)"/><path id="Shape-5" data-name="Shape" class="cls-3" d="M667.64,502.18h0a9,9,0,0,1-16.57,0h0c0-5.34,3.7-9.67,8.28-9.67S667.64,496.84,667.64,502.18Z" transform="translate(-644.73 -469.58)"/></g></g><path id="Shape-6" data-name="Shape" class="cls-5" d="M656.5,504.76h-1.75a.44.44,0,1,1,0-.88h.43v-3.24l-.24.12a.44.44,0,0,1-.59-.19.43.43,0,0,1,.2-.59l.88-.44a.42.42,0,0,1,.42,0,.44.44,0,0,1,.21.37v3.95h.44a.44.44,0,0,1,0,.88Z" transform="translate(-644.73 -469.58)"/><path id="Shape-7" data-name="Shape" class="cls-5" d="M658.78,504.76a1.49,1.49,0,0,1-.95-.34,1.22,1.22,0,0,1-.45-.94.44.44,0,0,1,.88,0,.37.37,0,0,0,.13.27.64.64,0,0,0,.48.12,1,1,0,0,0,.7-1.12c0-.11-.08-.63-.5-.63h-.84a.86.86,0,0,1-.85-.87v-.88a.87.87,0,0,1,.85-.88h1.34a.44.44,0,1,1,0,.88h-1.34l0,.88h.81a1.41,1.41,0,0,1,1.37,1.41,1.84,1.84,0,0,1-1.4,2.07,1.15,1.15,0,0,1-.26,0Z" transform="translate(-644.73 -469.58)"/><path id="Shape-8" data-name="Shape" class="cls-5" d="M663.52,504.76a.44.44,0,0,1-.44-.44v-.88h-1.75a.42.42,0,0,1-.39-.24.43.43,0,0,1,0-.45l2.2-3.07a.43.43,0,0,1,.49-.17.44.44,0,0,1,.3.42v2.63a.44.44,0,1,1,0,.88v.88A.44.44,0,0,1,663.52,504.76Zm-1.34-2.2h.9V501.3Z" transform="translate(-644.73 -469.58)"/><path class="cls-6" d="M671.3,524.87a2.61,2.61,0,0,0-2.16-2.18,1.38,1.38,0,0,1-1-.74,1.36,1.36,0,0,1,0-1.24l.49-1a2.63,2.63,0,0,0,.2-1.81l-.88-3.49a1.11,1.11,0,0,0-.07-.16,1.38,1.38,0,0,0,.31-.4,1.36,1.36,0,0,0,.07-1.05l-.69-2.07a.81.81,0,0,0-.1-.21l-.24-.33-1.38-2a10.56,10.56,0,0,0,1.79-6h0c0-5.34-3.71-9.67-8.29-9.67s-8.28,4.33-8.28,9.67h0a10.62,10.62,0,0,0,1.78,6l-1.38,2-.23.33a1,1,0,0,0-.11.21l-.69,2.07a1.41,1.41,0,0,0,.39,1.46.44.44,0,0,0-.08.15l-.88,3.49a2.61,2.61,0,0,0,.2,1.8l.5,1a1.36,1.36,0,0,1,0,1.24,1.38,1.38,0,0,1-1,.74,2.6,2.6,0,0,0-2.15,2.18l-1.17,7.6a.68.68,0,0,0,.16.55.66.66,0,0,0,.52.24.68.68,0,0,0,.68-.58l1.17-7.6a1.23,1.23,0,0,1,1-1,2.76,2.76,0,0,0,2-4l-.5-1a1.22,1.22,0,0,1-.1-.84l.88-3.5a.48.48,0,0,0,0-.17,1.38,1.38,0,0,0,1-.9l.55-1.67,1.85-1.27a7.27,7.27,0,0,0,7.77,0l1.85,1.27.55,1.67a1.33,1.33,0,0,0,.69.8,2.29,2.29,0,0,0,.28.08.61.61,0,0,0,0,.19l.88,3.49a1.28,1.28,0,0,1-.09.86l-.5,1a2.76,2.76,0,0,0,2,4,1.27,1.27,0,0,1,1,1l1.16,7.6a.71.71,0,0,0,.69.58.66.66,0,0,0,.52-.24.68.68,0,0,0,.16-.55Z" transform="translate(-644.73 -469.58)"/><path class="cls-7" d="M661.07,489.41a6.44,6.44,0,0,1-2-5.12,6.81,6.81,0,0,1,.9-2.84c.13-.21.28-.41.42-.62l.21-.29.15-.23c.09-.15.2-.29.29-.45l.22-.49a9.83,9.83,0,0,0,.43-4.67,42.53,42.53,0,0,0-.92-5.12,13.17,13.17,0,0,1,2.46,4.83,10.75,10.75,0,0,1,.41,2.79,7.37,7.37,0,0,1-.53,2.93l-.33.7c-.13.22-.29.43-.44.64l-.42.55-.36.45a6.62,6.62,0,0,0-1,2A8.38,8.38,0,0,0,661.07,489.41Z" transform="translate(-644.73 -469.58)"/><path class="cls-8" d="M665.43,489.34a4.49,4.49,0,0,1-1.66-3.73,5.21,5.21,0,0,1,.65-2.16,4.63,4.63,0,0,1,.31-.46l.16-.23.09-.15.19-.29.14-.33a7.37,7.37,0,0,0,.36-3.22c-.09-1.19-.27-2.42-.46-3.74a8.41,8.41,0,0,1,2,3.45,6.33,6.33,0,0,1,0,4.27l-.25.53c-.1.17-.23.33-.34.5l-.31.39-.25.3a4.8,4.8,0,0,0-.7,1.37A6.48,6.48,0,0,0,665.43,489.34Z" transform="translate(-644.73 -469.58)"/><path class="cls-9" d="M655.86,489.34a4.45,4.45,0,0,1-1.65-3.73,5.05,5.05,0,0,1,.64-2.16c.1-.16.21-.31.31-.46l.16-.23.09-.15.19-.29.14-.33a7.37,7.37,0,0,0,.36-3.22c-.08-1.19-.27-2.42-.45-3.74a8.5,8.5,0,0,1,2,3.45,6.33,6.33,0,0,1,0,4.27l-.25.53c-.1.17-.22.33-.34.5l-.31.39-.25.3a4.8,4.8,0,0,0-.7,1.37A6.48,6.48,0,0,0,655.86,489.34Z" transform="translate(-644.73 -469.58)"/></svg>