<?xml version="1.0" encoding="utf-8"?>
<!-- Generator: Adobe Illustrator 25.0.1, SVG Export Plug-In . SVG Version: 6.00 Build 0)  -->
<svg version="1.1" id="Capa_1" xmlns="http://www.w3.org/2000/svg" xmlns:xlink="http://www.w3.org/1999/xlink" x="0px" y="0px"
	 viewBox="0 0 25.1 43.7" style="enable-background:new 0 0 25.1 43.7;" xml:space="preserve">
<style type="text/css">
	.st0{fill:#95A5A5;stroke:#FFFFFF;stroke-width:3;stroke-miterlimit:10;}
	.st1{fill:#E64C3C;}
	.st2{fill:#1A1A1A;}
	.st3{fill:#FFD7D7;}
	.st4{fill:#E0E0E0;}
	.st5{fill:#C03A2B;}
	.st6{fill:#95A5A5;}
	.st7{fill:url(#SVGID_1_);}
</style>
<path class="st0" d="M22.9,24.9h-1.4V10.5c-0.4-5-4.8-8.6-9.8-8.2C7.4,2.7,4,6.1,3.6,10.5v14.4H2.2c-0.4,0-0.7,0.3-0.7,0.7l0,0v2.1
	c0,0.4,0.3,0.7,0.7,0.7l0,0h3.5v1.4c0,0.8,0.6,1.4,1.4,1.4l0,0v10.3c0,0.4,0.3,0.7,0.7,0.7s0.7-0.3,0.7-0.7V31.1
	c0.8,0,1.4-0.6,1.4-1.4c0,0,0,0,0,0v-1.4h5.5v1.4c0,0.8,0.6,1.4,1.4,1.4l0,0v10.3c0,0.4,0.3,0.7,0.7,0.7s0.7-0.3,0.7-0.7V31.1
	c0.8,0,1.4-0.6,1.4-1.4l0,0v-1.4h3.5c0.4,0,0.7-0.3,0.7-0.7c0,0,0,0,0,0v-2.1C23.6,25.3,23.3,24.9,22.9,24.9
	C22.9,24.9,22.9,24.9,22.9,24.9z"/>
<g id="Page-1">
	<g id="_003---LED">
		<path id="Shape" class="st1" d="M18.9,4.1C15.3,0.7,9.6,0.7,6.1,4.3c-1.6,1.7-2.5,3.9-2.6,6.2v14.4h17.9V10.5
			C21.5,8.1,20.5,5.8,18.9,4.1z"/>
		<path id="Shape-2" class="st2" d="M18.9,21.6l-2.3,2.3c-0.2,0.2-0.4,0.2-0.7,0.2c-0.2-0.1-0.4-0.2-0.5-0.5l-0.8-3.1
			c-0.1-0.2,0-0.5,0.2-0.7l0.7-0.7c0.3-0.3,0.7-0.3,1,0c0,0,0,0,0,0L18.9,21.6z"/>
		<path id="Shape-3" class="st3" d="M9.1,6C8.8,6,8.5,5.8,8.4,5.5c-0.1-0.3,0-0.6,0.3-0.8c1.1-0.8,2.5-1.2,3.8-1.2
			c0.4,0,0.7,0.3,0.7,0.7S12.9,5,12.5,5l0,0c-1.1,0-2.2,0.3-3.1,0.9C9.4,6,9.2,6,9.1,6z"/>
		<path id="Shape-4" class="st3" d="M6.3,11.1c-0.4,0-0.7-0.3-0.7-0.7l0,0c0-1.1,0.2-2.1,0.7-3.1C6.5,7.2,6.7,7,6.9,7
			c0.4,0,0.7,0.2,0.7,0.6c0,0.1,0,0.3-0.1,0.4C7.2,8.8,7,9.6,7,10.5c0,0.2-0.1,0.4-0.2,0.5C6.7,11.1,6.5,11.2,6.3,11.1z"/>
		<path id="Shape-5" class="st2" d="M18,25.6c-0.4,0-0.7-0.3-0.7-0.7l0,0v-3.5c0-0.4,0.3-0.7,0.7-0.7s0.7,0.3,0.7,0.7v3.4
			C18.7,25.3,18.4,25.6,18,25.6C18,25.6,18,25.6,18,25.6z"/>
		<path id="Shape-6" class="st2" d="M8.3,25.6c-0.4,0-0.7-0.3-0.7-0.7l0,0v-3.5c0-0.4,0.3-0.7,0.7-0.7S9,21.1,9,21.5v3.4
			C9.1,25.3,8.8,25.6,8.3,25.6C8.4,25.6,8.4,25.6,8.3,25.6z"/>
		<path id="Shape-7" class="st2" d="M12.6,20.4l-2.8,1.5c-0.2,0.1-0.5,0.1-0.7,0l-1.4-0.8l1.7-3c0.2-0.3,0.6-0.4,1-0.2l2.2,1.3
			c0.3,0.2,0.4,0.6,0.3,0.9C12.8,20.2,12.7,20.2,12.6,20.4L12.6,20.4z"/>
		<path id="Shape-8" class="st4" d="M7.7,42.2c-0.4,0-0.7-0.3-0.7-0.7l0,0V31.1c0-0.4,0.3-0.7,0.7-0.7s0.7,0.3,0.7,0.7v10.3
			C8.4,41.9,8.1,42.2,7.7,42.2L7.7,42.2z"/>
		<path id="Shape-9" class="st4" d="M17.4,42.2c-0.4,0-0.7-0.3-0.7-0.7l0,0V31.1c0-0.4,0.3-0.7,0.7-0.7s0.7,0.3,0.7,0.7v10.3
			C18,41.9,17.7,42.2,17.4,42.2L17.4,42.2z"/>
		<path id="Rectangle-path" class="st5" d="M2.2,24.9h20.7c0.4,0,0.7,0.3,0.7,0.7v2.1c0,0.4-0.3,0.7-0.7,0.7H2.2
			c-0.4,0-0.7-0.3-0.7-0.7v-2.1C1.5,25.2,1.8,24.9,2.2,24.9z"/>
		<path id="Shape-10" class="st6" d="M5.6,28.4h4.1v1.4c0,0.8-0.6,1.4-1.4,1.4c0,0,0,0,0,0H7c-0.8,0-1.4-0.6-1.4-1.4l0,0V28.4z"/>
		<path id="Shape-11" class="st6" d="M15.3,28.4h4.1v1.4c0,0.8-0.6,1.4-1.4,1.4l0,0h-1.4c-0.8,0-1.4-0.6-1.4-1.4l0,0V28.4z"/>
	</g>
</g>
<radialGradient id="SVGID_1_" cx="660.49" cy="-437.1696" r="20.09" gradientTransform="matrix(1 0 0 -1 -646.82 -434.1)" gradientUnits="userSpaceOnUse">
	<stop  offset="0.1" style="stop-color:#000000"/>
	<stop  offset="0.89" style="stop-color:#FF0000;stop-opacity:0"/>
</radialGradient>
<path class="st7" d="M22.9,24.2h-1.4V9.7c-0.4-5-4.8-8.6-9.8-8.2C7.4,2,4,5.4,3.6,9.7v14.4H2.2c-0.4,0-0.7,0.3-0.7,0.7l0,0v2.1
	c0,0.4,0.3,0.7,0.7,0.7l0,0h3.5V29c0,0.8,0.6,1.4,1.4,1.4l0,0v10.3c0,0.4,0.3,0.7,0.7,0.7s0.7-0.3,0.7-0.7V30.4
	c0.8,0,1.4-0.6,1.4-1.4c0,0,0,0,0,0v-1.4h5.5v1.4c0,0.8,0.6,1.4,1.4,1.4l0,0v10.3c0,0.4,0.3,0.7,0.7,0.7s0.7-0.3,0.7-0.7V30.4
	c0.8,0,1.4-0.6,1.4-1.4l0,0v-1.4h3.5c0.4,0,0.7-0.3,0.7-0.7c0,0,0,0,0,0v-2.1C23.6,24.5,23.3,24.2,22.9,24.2
	C22.9,24.2,22.9,24.2,22.9,24.2z"/>
</svg>
