<svg id="Capa_1" data-name="Capa 1" xmlns="http://www.w3.org/2000/svg" viewBox="0 0 21.1 54.82"><defs><style>.cls-1,.cls-8{fill:#333;}.cls-1{stroke:#fff;stroke-linecap:round;stroke-linejoin:round;stroke-width:3px;}.cls-2{fill:#d8d8d8;}.cls-3{fill:#1420af;}.cls-4{fill:#6d6d6d;}.cls-5{fill:#fefefe;}.cls-6{fill:#e2e2e2;}.cls-7{fill:#919191;}</style></defs><path class="cls-1" d="M654.19,509.07h0c0,1.41,0,16.47,0,17.89a1,1,0,0,0,.4.89H655a.9.9,0,0,0,.45-.9c0-1.42,0-16.48,0-17.89.55-.19.66-.34.66-.93s0-1.11,0-1.67h-2.58v1.66C653.54,508.75,653.6,508.85,654.19,509.07Z" transform="translate(-648.8 -474.53)"/><path class="cls-1" d="M662.58,508.13c0,.59.11.74.66.93,0,1.41,0,16.47,0,17.89a.91.91,0,0,0,.45.9h.45a1,1,0,0,0,.4-.89c0-1.42,0-16.48,0-17.9.59-.21.65-.31.65-.94v-1.66h-2.58C662.58,507,662.58,507.58,662.58,508.13Z" transform="translate(-648.8 -474.53)"/><path class="cls-1" d="M667,503.72h-.42a1.69,1.69,0,0,1,0-2.37H666a6.77,6.77,0,0,0,1.19-.05l.22,0c.77-.13,1-.4,1-1.2V477.89a1.89,1.89,0,0,0-1.91-1.85H652.22a1.87,1.87,0,0,0-1.14.39,2,2,0,0,0-.78,1.77q0,10.92,0,21.84c0,.13,0,.27,0,.41a.91.91,0,0,0,.73.79l.48.07a6.77,6.77,0,0,0,1.19.05h-.48a1.39,1.39,0,0,1,0,2.37h-.57a1.37,1.37,0,0,0,0,2.74H667a1.37,1.37,0,1,0,0-2.74Z" transform="translate(-648.8 -474.53)"/><path class="cls-2" d="M655.47,509.06c0,1.41,0,16.47,0,17.89a.9.9,0,0,1-.45.9h-.45a1,1,0,0,1-.4-.89c0-1.42,0-16.48,0-17.89A1.51,1.51,0,0,1,655.47,509.06Z" transform="translate(-648.8 -474.53)"/><path class="cls-2" d="M663.68,527.85a.91.91,0,0,1-.45-.9c0-1.42,0-16.48,0-17.89a1.55,1.55,0,0,1,1.28,0c0,1.42,0,16.48,0,17.9a1,1,0,0,1-.4.89Z" transform="translate(-648.8 -474.53)"/><path class="cls-3" d="M651.53,501.3l-.48-.07a.91.91,0,0,1-.73-.79c0-.14,0-.28,0-.41q0-10.92,0-21.84a2,2,0,0,1,.78-1.77,1.87,1.87,0,0,1,1.14-.39h14.27a1.89,1.89,0,0,1,1.91,1.85v22.18c0,.8-.23,1.07-1,1.2l-.22,0a6.77,6.77,0,0,1-1.19.05H652.72A6.77,6.77,0,0,1,651.53,501.3Z" transform="translate(-648.8 -474.53)"/><path class="cls-4" d="M653.54,506.46h2.58c0,.56,0,1.12,0,1.67s-.11.74-.66.93h-1.28c-.59-.22-.65-.32-.65-.95Z" transform="translate(-648.8 -474.53)"/><path class="cls-4" d="M662.59,506.46h2.58v1.66c0,.63-.06.73-.65.94h-1.28c-.55-.19-.66-.34-.66-.93S662.58,507,662.59,506.46Z" transform="translate(-648.8 -474.53)"/><path class="cls-5" d="M653.54,491.68v1.71a.69.69,0,0,1-.65.76c-.39,0-.64-.28-.64-.75v-3a.66.66,0,0,1,.38-.7c.32-.15.56,0,.8.21a9.2,9.2,0,0,0,3.68,2.18,4,4,0,0,0,.92.14.64.64,0,1,1,0,1.28,4.93,4.93,0,0,1-1.57-.27c-.2-.06-.28-.06-.3.19,0,.49-.28.75-.66.74a.66.66,0,0,1-.63-.81,1,1,0,0,0-.68-1.25A3.42,3.42,0,0,1,653.54,491.68Z" transform="translate(-648.8 -474.53)"/><path class="cls-5" d="M656.13,496.92v-1.36c0-.43.17-.68.49-.74a.62.62,0,0,1,.76.43.24.24,0,0,0,.27.19,2,2,0,0,1,.55,0,.57.57,0,0,1,.49.61.6.6,0,0,1-.48.63.52.52,0,0,1-.18,0c-.61.06-.61.06-.61.67,0,.21,0,.43,0,.64a.62.62,0,0,1-.9.56c-1.32-.64-2.62-1.29-3.93-2a.63.63,0,0,1-.26-.86.64.64,0,0,1,.87-.27l2.56,1.27A.58.58,0,0,0,656.13,496.92Z" transform="translate(-648.8 -474.53)"/><path class="cls-6" d="M653.54,480.58c0,.62,0,1.24,0,1.86a.66.66,0,0,1-1.15.47.59.59,0,0,1-.12-.38v-3.91a.59.59,0,0,1,.61-.65.69.69,0,0,1,.66.67C653.55,479.29,653.54,479.93,653.54,480.58Z" transform="translate(-648.8 -474.53)"/><path class="cls-6" d="M652.27,486.06c0-.32,0-.64,0-1a.58.58,0,0,1,.58-.63.64.64,0,0,1,.68.59q0,1,0,2a.65.65,0,0,1-.68.6.58.58,0,0,1-.58-.63v-1Z" transform="translate(-648.8 -474.53)"/><path class="cls-7" d="M666.61,503.72H652.24a1.39,1.39,0,0,0,0-2.37h14.37A1.69,1.69,0,0,0,666.61,503.72Z" transform="translate(-648.8 -474.53)"/><rect class="cls-3" x="1.5" y="29.19" width="18.1" height="2.74" rx="1.05"/><rect x="15.07" y="1.5" width="1.65" height="25.3"/><rect x="15.07" y="29.19" width="1.65" height="2.74"/><path class="cls-8" d="M665.53,503.72h-1.65a1.41,1.41,0,0,1,0-2.38h1.65C664.39,502.21,664.47,503,665.53,503.72Z" transform="translate(-648.8 -474.53)"/></svg>