<svg id="Capa_1" data-name="Capa 1" xmlns="http://www.w3.org/2000/svg" viewBox="0 0 32.97 31.97"><defs><style>.cls-1,.cls-4{fill:#35495e;}.cls-1{stroke:#fff;stroke-linecap:round;stroke-linejoin:round;stroke-width:3px;}.cls-2{fill:#2c3e50;}.cls-3{fill:#f0c419;}.cls-5{fill:#3f5c6c;}</style></defs><path class="cls-1" d="M670.84,500.44l1.8-1.35a.4.4,0,0,0,.13-.16h1.07a.5.5,0,1,0,0-1h-1.07a.4.4,0,0,0-.13-.16l-1.8-1.35h-2V494h2l1.8-1.35a.4.4,0,0,0,.13-.16h1.07a.5.5,0,0,0,.5-.5.51.51,0,0,0-.5-.5h-1l-.07,0a.43.43,0,0,0-.13-.17l-1.8-1.35h-2v-1.49a1,1,0,0,0-1-1h-17a1,1,0,0,0-1,1V490h-2l-1.8,1.35a.58.58,0,0,0-.14.17l-.06,0h-1a.5.5,0,0,0-.5.5.5.5,0,0,0,.5.5h1.06a.54.54,0,0,0,.14.16l1.8,1.35h2v2.5h-2l-1.8,1.35a.54.54,0,0,0-.14.16h-1.06a.5.5,0,1,0,0,1h1.06a.54.54,0,0,0,.14.16l1.8,1.35h2v3h-2l-1.8,1.35a.54.54,0,0,0-.14.16h-1.06a.5.5,0,0,0-.5.5.5.5,0,0,0,.5.5h1l.06,0a.58.58,0,0,0,.14.17l1.8,1.34h2v2.5h-2l-1.8,1.35a.54.54,0,0,0-.14.16h-1.06a.5.5,0,0,0,0,1h1.06a.54.54,0,0,0,.14.16l1.8,1.35h2v1.5a1,1,0,0,0,1,1h17a1,1,0,0,0,1-1v-1.5h2l1.8-1.35a.4.4,0,0,0,.13-.16h1.07a.5.5,0,0,0,0-1h-1.07a.4.4,0,0,0-.13-.16l-1.8-1.35h-2v-2.5h2l1.8-1.34a.43.43,0,0,0,.13-.17l.07,0h1a.51.51,0,0,0,.5-.5.5.5,0,0,0-.5-.5h-1.07a.4.4,0,0,0-.13-.16l-1.8-1.35h-2v-3Z" transform="translate(-642.87 -485.96)"/><g id="Page-1"><g id="_002---IC" data-name="002---IC"><rect id="Rectangle-path" class="cls-2" x="6.99" y="1.5" width="18.98" height="28.97" rx="1"/><path id="Shape" class="cls-3" d="M645.87,492.45h-1a.5.5,0,0,1-.5-.5.5.5,0,0,1,.5-.5h1a.51.51,0,0,1,.5.5A.5.5,0,0,1,645.87,492.45Z" transform="translate(-642.87 -485.96)"/><path id="Shape-2" data-name="Shape" class="cls-3" d="M645.87,498.94h-1a.5.5,0,1,1,0-1h1a.5.5,0,1,1,0,1Z" transform="translate(-642.87 -485.96)"/><path id="Shape-3" data-name="Shape" class="cls-3" d="M645.87,505.94h-1a.5.5,0,0,1-.5-.5.5.5,0,0,1,.5-.5h1a.5.5,0,0,1,.5.5A.51.51,0,0,1,645.87,505.94Z" transform="translate(-642.87 -485.96)"/><path id="Shape-4" data-name="Shape" class="cls-3" d="M645.87,512.43h-1a.5.5,0,0,1,0-1h1a.5.5,0,0,1,0,1Z" transform="translate(-642.87 -485.96)"/><path id="Shape-5" data-name="Shape" class="cls-3" d="M673.84,492.45h-1a.5.5,0,0,1-.5-.5.5.5,0,0,1,.5-.5h1a.51.51,0,0,1,.5.5A.5.5,0,0,1,673.84,492.45Z" transform="translate(-642.87 -485.96)"/><path id="Shape-6" data-name="Shape" class="cls-3" d="M673.84,498.94h-1a.5.5,0,1,1,0-1h1a.5.5,0,1,1,0,1Z" transform="translate(-642.87 -485.96)"/><path id="Shape-7" data-name="Shape" class="cls-3" d="M673.84,505.94h-1a.5.5,0,0,1-.5-.5.5.5,0,0,1,.5-.5h1a.5.5,0,0,1,.5.5A.51.51,0,0,1,673.84,505.94Z" transform="translate(-642.87 -485.96)"/><path id="Shape-8" data-name="Shape" class="cls-3" d="M673.84,512.43h-1a.5.5,0,0,1,0-1h1a.5.5,0,0,1,0,1Z" transform="translate(-642.87 -485.96)"/><path id="Rectangle-path-2" data-name="Rectangle-path" class="cls-4" d="M651.86,487.46h15v29h-15Z" transform="translate(-642.87 -485.96)"/><path id="Shape-9" data-name="Shape" class="cls-3" d="M661.85,487.46a2.5,2.5,0,0,1-5,0Z" transform="translate(-642.87 -485.96)"/><path id="Shape-10" data-name="Shape" class="cls-3" d="M661.85,516.42a2.5,2.5,0,0,0-5,0Z" transform="translate(-642.87 -485.96)"/><path id="Rectangle-path-3" data-name="Rectangle-path" class="cls-5" d="M647.87,490h2v4h-2Z" transform="translate(-642.87 -485.96)"/><path id="Shape-11" data-name="Shape" class="cls-4" d="M647.87,490l-1.8,1.35a.51.51,0,0,0-.2.4v.5a.48.48,0,0,0,.2.4l1.8,1.35Z" transform="translate(-642.87 -485.96)"/><path id="Rectangle-path-4" data-name="Rectangle-path" class="cls-5" d="M647.87,496.45h2v4h-2Z" transform="translate(-642.87 -485.96)"/><path id="Shape-12" data-name="Shape" class="cls-4" d="M647.87,496.45l-1.8,1.35a.48.48,0,0,0-.2.4v.49a.48.48,0,0,0,.2.4l1.8,1.35Z" transform="translate(-642.87 -485.96)"/><path id="Rectangle-path-5" data-name="Rectangle-path" class="cls-5" d="M647.87,503.44h2v4h-2Z" transform="translate(-642.87 -485.96)"/><path id="Shape-13" data-name="Shape" class="cls-4" d="M647.87,503.44l-1.8,1.35a.48.48,0,0,0-.2.4v.5a.51.51,0,0,0,.2.4l1.8,1.34Z" transform="translate(-642.87 -485.96)"/><path id="Rectangle-path-6" data-name="Rectangle-path" class="cls-5" d="M647.87,509.93h2v4h-2Z" transform="translate(-642.87 -485.96)"/><path id="Shape-14" data-name="Shape" class="cls-4" d="M647.87,509.93l-1.8,1.35a.48.48,0,0,0-.2.4v.5a.49.49,0,0,0,.2.4l1.8,1.35Z" transform="translate(-642.87 -485.96)"/><path id="Rectangle-path-7" data-name="Rectangle-path" class="cls-5" d="M670.84,494h-2v-4h2Z" transform="translate(-642.87 -485.96)"/><path id="Shape-15" data-name="Shape" class="cls-4" d="M670.84,490l1.8,1.35a.54.54,0,0,1,.2.4v.5a.51.51,0,0,1-.2.4l-1.8,1.35Z" transform="translate(-642.87 -485.96)"/><path id="Rectangle-path-8" data-name="Rectangle-path" class="cls-5" d="M670.84,500.44h-2v-4h2Z" transform="translate(-642.87 -485.96)"/><path id="Shape-16" data-name="Shape" class="cls-4" d="M670.84,496.45l1.8,1.35a.51.51,0,0,1,.2.4v.49a.51.51,0,0,1-.2.4l-1.8,1.35Z" transform="translate(-642.87 -485.96)"/><path id="Rectangle-path-9" data-name="Rectangle-path" class="cls-5" d="M670.84,507.43h-2v-4h2Z" transform="translate(-642.87 -485.96)"/><path id="Shape-17" data-name="Shape" class="cls-4" d="M670.84,503.44l1.8,1.35a.51.51,0,0,1,.2.4v.5a.54.54,0,0,1-.2.4l-1.8,1.34Z" transform="translate(-642.87 -485.96)"/><path id="Rectangle-path-10" data-name="Rectangle-path" class="cls-5" d="M670.84,513.93h-2v-4h2Z" transform="translate(-642.87 -485.96)"/><path id="Shape-18" data-name="Shape" class="cls-4" d="M670.84,509.93l1.8,1.35a.51.51,0,0,1,.2.4v.5a.52.52,0,0,1-.2.4l-1.8,1.35Z" transform="translate(-642.87 -485.96)"/></g></g></svg>