<svg id="Capa_1" data-name="Capa 1" xmlns="http://www.w3.org/2000/svg" viewBox="0 0 25.06 43.68"><defs><style>.cls-1,.cls-6{fill:#95a5a5;}.cls-1{stroke:#fff;stroke-miterlimit:10;stroke-width:3px;}.cls-2{fill:#e64c3c;}.cls-3{fill:#c03a2b;}.cls-4{fill:#ffd7d7;}.cls-5{fill:#e0e0e0;}</style></defs><path class="cls-1" d="M669.7,505h-1.38V490.56a9,9,0,0,0-17.93,0V505H649a.69.69,0,0,0-.69.69v2.07a.69.69,0,0,0,.69.69h3.45v1.38a1.38,1.38,0,0,0,1.38,1.38v10.34a.69.69,0,1,0,1.38,0V511.25a1.37,1.37,0,0,0,1.37-1.38v-1.38h5.52v1.38a1.38,1.38,0,0,0,1.38,1.38v10.34a.69.69,0,1,0,1.38,0V511.25a1.38,1.38,0,0,0,1.38-1.38v-1.38h3.45a.68.68,0,0,0,.68-.69v-2.07A.68.68,0,0,0,669.7,505Z" transform="translate(-646.82 -480.1)"/><g id="Page-1"><g id="_003---LED" data-name="003---LED"><path id="Shape" class="cls-2" d="M665.69,484.23a9,9,0,0,0-15.3,6.33V505h17.93V490.56A9,9,0,0,0,665.69,484.23Z" transform="translate(-646.82 -480.1)"/><path id="Shape-2" data-name="Shape" class="cls-3" d="M664.87,501.59h-3.28a.69.69,0,0,1-.6-.34.71.71,0,0,1,0-.69l1.61-2.76a.69.69,0,0,1,.6-.34h1a.69.69,0,0,1,.69.69Z" transform="translate(-646.82 -480.1)"/><path id="Shape-3" data-name="Shape" class="cls-4" d="M655.91,486.1a.7.7,0,0,1-.67-.49.72.72,0,0,1,.28-.78,6.87,6.87,0,0,1,3.83-1.16.69.69,0,0,1,0,1.38,5.48,5.48,0,0,0-3.06.93A.74.74,0,0,1,655.91,486.1Z" transform="translate(-646.82 -480.1)"/><path id="Shape-4" data-name="Shape" class="cls-4" d="M653.15,491.25a.69.69,0,0,1-.69-.69,6.78,6.78,0,0,1,.72-3.06.68.68,0,0,1,.57-.38.68.68,0,0,1,.66,1,5.34,5.34,0,0,0-.57,2.45.72.72,0,0,1-.2.49A.7.7,0,0,1,653.15,491.25Z" transform="translate(-646.82 -480.1)"/><path id="Shape-5" data-name="Shape" class="cls-3" d="M664.18,505.73a.69.69,0,0,1-.69-.69v-3.45a.69.69,0,0,1,1.38,0V505A.69.69,0,0,1,664.18,505.73Z" transform="translate(-646.82 -480.1)"/><path id="Shape-6" data-name="Shape" class="cls-3" d="M654.53,505.73a.69.69,0,0,1-.69-.69v-3.45a.69.69,0,0,1,1.38,0V505A.69.69,0,0,1,654.53,505.73Z" transform="translate(-646.82 -480.1)"/><path id="Shape-7" data-name="Shape" class="cls-3" d="M657.71,498.49l-1.61,2.76a.67.67,0,0,1-.59.34h-1.67v-3.44a.69.69,0,0,1,.69-.69h2.59a.68.68,0,0,1,.59.34A.66.66,0,0,1,657.71,498.49Z" transform="translate(-646.82 -480.1)"/><path id="Shape-8" data-name="Shape" class="cls-5" d="M654.53,522.28a.69.69,0,0,1-.69-.69V511.25a.69.69,0,0,1,1.38,0v10.34A.69.69,0,0,1,654.53,522.28Z" transform="translate(-646.82 -480.1)"/><path id="Shape-9" data-name="Shape" class="cls-5" d="M664.18,522.28a.69.69,0,0,1-.69-.69V511.25a.69.69,0,0,1,1.38,0v10.34A.69.69,0,0,1,664.18,522.28Z" transform="translate(-646.82 -480.1)"/><rect id="Rectangle-path" class="cls-3" x="1.5" y="24.94" width="22.06" height="3.45" rx="0.69"/><path id="Shape-10" data-name="Shape" class="cls-6" d="M652.46,508.49h4.13v1.38a1.37,1.37,0,0,1-1.37,1.38h-1.38a1.38,1.38,0,0,1-1.38-1.38Z" transform="translate(-646.82 -480.1)"/><path id="Shape-11" data-name="Shape" class="cls-6" d="M662.11,508.49h4.14v1.38a1.38,1.38,0,0,1-1.38,1.38h-1.38a1.38,1.38,0,0,1-1.38-1.38Z" transform="translate(-646.82 -480.1)"/></g></g></svg>