<svg id="Capa_1" data-name="Capa 1" xmlns="http://www.w3.org/2000/svg" viewBox="0 0 59.19 186.2"><defs><style>.cls-1{fill:#365e7d;opacity:0.5;}.cls-13,.cls-2{fill:#9e6c4a;}.cls-2,.cls-26,.cls-27{stroke:#fff;stroke-linecap:round;stroke-linejoin:round;stroke-width:3px;}.cls-3{fill:#fcc2a4;}.cls-4{fill:#e49f13;}.cls-5{fill:#ccc;}.cls-6{fill:#484849;}.cls-7{fill:#b2b2b2;}.cls-8{fill:#0045f2;}.cls-9{fill:#fff;}.cls-10{fill:#fdb813;}.cls-11{fill:#fefffd;}.cls-12{fill:#e59e7a;}.cls-14{fill:#eb8e6d;}.cls-15{fill:#6f3e1e;}.cls-16{fill:#eaa51a;}.cls-17{fill:#7b4020;}.cls-18{fill:#1a1a1a;}.cls-19{fill:#f2f2f2;}.cls-20{fill:#763d1f;}.cls-21{fill:#50363f;}.cls-22{fill:#fbffff;}.cls-23{fill:#c94843;}.cls-24{fill:#ef7070;}.cls-25{fill:#352825;}.cls-26,.cls-32{fill:none;}.cls-27,.cls-29{fill:#ff7300;}.cls-28{fill:#ffbc00;}.cls-30{fill:#c86;}.cls-31{fill:#ffead4;}.cls-32{stroke:#ffbc00;stroke-miterlimit:10;stroke-width:2px;}.cls-33{fill:#0049db;}</style></defs><ellipse class="cls-1" cx="29.59" cy="182.42" rx="29.59" ry="3.78"/><path class="cls-2" d="M613.05,602l.5-.78s9.84-4.74,10.6-11.44h0c1.11-5.84,1.26-15.66,1.28-18.83h1.31l-1.31-11.4s.36-6.65.51-8.7.07-3.07-1.32-2.85c0,0,.22-2.92-1.6-1.9,0,0,.32-2-.77-2s-1,1.46-1,1.46a1.08,1.08,0,0,0-1.13-.58c-.77.14-.77,1-.77,1.79s0,7.38,0,7.38a17.59,17.59,0,0,0-2.41-1.35c-.73-.26-2.3-.26-2.19.73s.47.25,2.52,2.12a20.61,20.61,0,0,1,2.85,3L618.48,571h1.46a91.79,91.79,0,0,1-2.76,14.87l-.82-.47a13.1,13.1,0,0,1-1.92,3.21l-1.54-.22-2.23-.33c-1.82-.27-3.78-.57-4.57-.73v.11a7.55,7.55,0,0,1-2.34-1.71v-2.56s0-.09,0-.13a7.59,7.59,0,0,0,4-6.35c.47.49,1.17.13,2-1.22,1.14-1.73,1.49-3.05.41-3.82a.89.89,0,0,0-1.15-.06c.45-2.19,1.32-4.17,1.11-4.85.71-.11,1.42-.23,2.14-.37l-1.45-2.66v-.08h0v0s0-.14,0-.3,0-.17,0-.26,0-.11,0-.18-.06-.33-.1-.52v0a6.24,6.24,0,0,0-.14-.64h0a12.83,12.83,0,0,0-2.12-4.57c-.11-.14-.21-.29-.33-.43s-.2-.21-.3-.32a7,7,0,0,0-.54-.55,3.22,3.22,0,0,0-.28-.24,7.36,7.36,0,0,0-.7-.55l-.3-.19a7.57,7.57,0,0,0-.84-.47l-.34-.16a8.35,8.35,0,0,0-.92-.35l-.47-.15-.2-.06v0a12,12,0,0,0-3-.37c-10.1,0-10.57,10.84-10.57,10.84l-1.76,2.26s.83.2,2.33.43c-.15.72.65,2.6,1.1,4.7a.94.94,0,0,0-1,.15c-1.09.77-.73,2.09.41,3.82.82,1.25,1.48,1.65,1.94,1.31a7.57,7.57,0,0,0,4.27,6.42.28.28,0,0,1,0,.09v2.11h-.36a18.91,18.91,0,0,1-3.49,1.94l-7.8,1.59a7.26,7.26,0,0,1-2-3.53l-.44.26A91,91,0,0,1,580,570.9h1.45l-1.64-12.28a19.9,19.9,0,0,1,2.85-3c2.05-1.86,2.41-1.13,2.52-2.12s-1.46-1-2.19-.73a17.88,17.88,0,0,0-2.42,1.35s0-6.54,0-7.38,0-1.65-.77-1.79a1.09,1.09,0,0,0-1.13.58s.07-1.46-1-1.46-.77,2-.77,2c-1.83-1-1.61,1.9-1.61,1.9-1.39-.22-1.46.8-1.31,2.85s.51,8.7.51,8.7l-1.32,11.4h1.3c0,2.89.1,11.38,1.89,18.38l-.32.19s1.41,5,4.26,7.73a24.92,24.92,0,0,0,6.41,4.3h0l.34,2.73V625.8a14.51,14.51,0,0,0,1.81,1c-.23,1.88-.48,4.06-.68,6.18-.46,5-3.81,33.34-4.48,39h-1.59v4.31h1.78l-.11,1.37h0l-.22,2.74c-1.56.07-1.15,1.81-1.15,1.81-1,.36-1.2,2.21-1.2,2.21V687h9.37v-2.67c0-1.87-1.37-2.1-1.37-2.1,0-1.64-.38-1.85-.57-1.85h0l.34-4.12h1.28V672.5c1.29-4.65,7-36,7-36,4,1,6,.22,6,.22L605.59,672h-.86v4.31H606v4.24a.76.76,0,0,0-.55.29V687h17a8.81,8.81,0,0,0,0-1h0a5.29,5.29,0,0,0-.77-2.89,3,3,0,0,0-2-1.42,5.86,5.86,0,0,0-2.21-.15h0c-.46,0-.89,0-1.28,0h0l-1.35.05a3,3,0,0,1-1.61-.26l-.06,0a1.44,1.44,0,0,1-.27-.28c-.65-1.06,0-2.49-1.2-2.93a2.29,2.29,0,0,0-.8-.14v-1.68h2V672h-2.1c0-1.66,0-4.25.27-8.21.74-12.3.79-28.75.76-37a12,12,0,0,0,1.4-1.06l-.23-8.22h0l-.05-2.49h0l-.25-8.9Z" transform="translate(-570.38 -507.2)"/><path class="cls-3" d="M583.58,588.67s-3.14-10.24-3.65-18.79h-5.41s-.42,14,3,22.84Z" transform="translate(-570.38 -507.2)"/><path class="cls-4" d="M581.46,570.9H573.2l1.32-11.4s-.37-6.65-.51-8.7-.08-3.07,1.31-2.85c0,0-.22-2.92,1.61-1.9,0,0-.33-2,.77-2s1,1.46,1,1.46a1.09,1.09,0,0,1,1.13-.58c.77.14.77,1,.77,1.79s0,7.38,0,7.38a17.88,17.88,0,0,1,2.42-1.35c.73-.26,2.3-.26,2.19.73s-.48.26-2.52,2.12a19.9,19.9,0,0,0-2.85,3Z" transform="translate(-570.38 -507.2)"/><path class="cls-3" d="M616.36,588.74S619.51,578.5,620,570h5.41s.07,14.4-1.54,21Z" transform="translate(-570.38 -507.2)"/><path class="cls-4" d="M618.48,571h8.26l-1.31-11.4s.36-6.65.51-8.7.07-3.07-1.32-2.85c0,0,.22-2.92-1.6-1.9,0,0,.32-2-.77-2s-1,1.46-1,1.46a1.08,1.08,0,0,0-1.13-.58c-.77.14-.77,1-.77,1.79s0,7.38,0,7.38a17.59,17.59,0,0,0-2.41-1.35c-.73-.26-2.3-.26-2.19.73s.47.25,2.52,2.12a20.61,20.61,0,0,1,2.85,3Z" transform="translate(-570.38 -507.2)"/><rect class="cls-3" x="35.57" y="167.65" width="4.94" height="7.91"/><rect class="cls-5" x="35.57" y="170.43" width="4.94" height="5.13"/><polygon class="cls-3" points="18.07 175.56 13.01 175.56 13.65 167.65 18.72 167.65 18.07 175.56"/><polygon class="cls-5" points="18.07 175.56 13.01 175.56 13.42 170.43 18.48 170.43 18.07 175.56"/><path class="cls-6" d="M589.6,621.48h22.15s.29,25.15-.73,42.26,1.09,8.9,1.09,8.9h-6.47l-2.37-35.88s-2,.73-6-.22c0,0-6.21,33.92-7.16,36.41h-6.5s4.08-34.43,4.59-40S589.6,621.48,589.6,621.48Z" transform="translate(-570.38 -507.2)"/><rect class="cls-7" x="11.76" y="164.75" width="8.11" height="4.3"/><rect class="cls-7" x="34.35" y="164.75" width="8.11" height="4.3"/><path class="cls-8" d="M589.77,626s13,6.14,22.36-.59l.29-22.44,1.13-1.75s9.84-4.74,10.6-11.44l-7.79-4.43s-1.78,4.39-3.86,4.28c0,0-7.35-1.64-9-4.28h-7s-2.69,2.09-9,4c-3.16.93-4.33-4-4.33-4l-7.1,4.1s1.41,5,4.26,7.73a24.92,24.92,0,0,0,6.41,4.3l.76,2.08,1.21,1.75-.11,19.44Z" transform="translate(-570.38 -507.2)"/><path class="cls-9" d="M597.76,598.16a1.65,1.65,0,0,1-1.67,1.81,1.61,1.61,0,0,1-1.62-1.81V596.5h.82v1.66c0,.65.28,1.05.8,1.05s.83-.4.83-1.05V596.5h.84Z" transform="translate(-570.38 -507.2)"/><path class="cls-9" d="M601.93,599.91h-.83l-1.72-2.09v2.09h-.83V596.5h.83l1.72,2.08V596.5h.83Z" transform="translate(-570.38 -507.2)"/><path class="cls-9" d="M603.72,599.91h-.82V596.5h.82Z" transform="translate(-570.38 -507.2)"/><path class="cls-9" d="M607.79,597.26h-1.21v2.65h-.84v-2.65h-1.21v-.76h3.26Z" transform="translate(-570.38 -507.2)"/><path class="cls-9" d="M594.47,601.48v-1h.68v.07h-.61v.39H595V601h-.48v.4h.63v.07Z" transform="translate(-570.38 -507.2)"/><path class="cls-9" d="M595.82,601.41h.6v.07h-.67v-1h.07Z" transform="translate(-570.38 -507.2)"/><path class="cls-9" d="M597,601.48v-1h.68v.07H597v.39h.48V601H597v.4h.63v.07Z" transform="translate(-570.38 -507.2)"/><path class="cls-9" d="M599,601.23a.42.42,0,0,1-.09.14.45.45,0,0,1-.13.1l-.18,0a.4.4,0,0,1-.24-.07.44.44,0,0,1-.16-.17.61.61,0,0,1-.05-.28.59.59,0,0,1,.05-.27.4.4,0,0,1,.16-.18.48.48,0,0,1,.24-.06.52.52,0,0,1,.18,0,.25.25,0,0,1,.12.08.25.25,0,0,1,.08.14l-.07,0a.31.31,0,0,0-.11-.16.39.39,0,0,0-.2-.05.38.38,0,0,0-.19.05.36.36,0,0,0-.14.16.52.52,0,0,0,0,.23.6.6,0,0,0,0,.24.32.32,0,0,0,.13.15.34.34,0,0,0,.2.06.32.32,0,0,0,.2-.06.3.3,0,0,0,.12-.17Z" transform="translate(-570.38 -507.2)"/><path class="cls-9" d="M600.26,600.48v.07h-.36v.93h-.08v-.93h-.36v-.07Z" transform="translate(-570.38 -507.2)"/><path class="cls-9" d="M601.18,600.48a.36.36,0,0,1,.24.08.29.29,0,0,1,.08.21.25.25,0,0,1-.09.2.32.32,0,0,1-.23.08h-.3v.43h-.07v-1Zm0,.5a.24.24,0,0,0,.18-.06.18.18,0,0,0,.07-.15.22.22,0,0,0-.07-.16.24.24,0,0,0-.18-.06h-.3V601Zm.05,0,.33.49h-.09l-.3-.45Z" transform="translate(-570.38 -507.2)"/><path class="cls-9" d="M602.52,600.47a.49.49,0,0,1,.25.06.38.38,0,0,1,.15.18.6.6,0,0,1,.06.27.61.61,0,0,1-.06.28.43.43,0,0,1-.4.24.4.4,0,0,1-.24-.07.37.37,0,0,1-.16-.17.61.61,0,0,1-.06-.28.6.6,0,0,1,.06-.27.35.35,0,0,1,.16-.18A.48.48,0,0,1,602.52,600.47Zm0,.07a.42.42,0,0,0-.2.05.34.34,0,0,0-.13.16.52.52,0,0,0-.05.23.6.6,0,0,0,.05.24.28.28,0,0,0,.13.15.34.34,0,0,0,.2.06.32.32,0,0,0,.2-.06.34.34,0,0,0,.14-.15.61.61,0,0,0,0-.24.53.53,0,0,0,0-.23.44.44,0,0,0-.14-.16A.39.39,0,0,0,602.52,600.54Z" transform="translate(-570.38 -507.2)"/><path class="cls-9" d="M604.35,600.48v1h-.09l-.53-.78-.07-.13h0v.91h-.07v-1h.09l.53.79.08.13v-.92Z" transform="translate(-570.38 -507.2)"/><path class="cls-9" d="M605.1,600.48v1H605v-1Z" transform="translate(-570.38 -507.2)"/><path class="cls-9" d="M606.56,601.23a.42.42,0,0,1-.09.14l-.13.1-.18,0a.4.4,0,0,1-.24-.07.44.44,0,0,1-.16-.17.61.61,0,0,1-.06-.28.6.6,0,0,1,.06-.27.4.4,0,0,1,.16-.18.48.48,0,0,1,.24-.06.47.47,0,0,1,.17,0,.29.29,0,0,1,.13.08.25.25,0,0,1,.08.14l-.07,0a.31.31,0,0,0-.11-.16.39.39,0,0,0-.2-.05.46.46,0,0,0-.2.05.42.42,0,0,0-.13.16.52.52,0,0,0-.05.23.6.6,0,0,0,.05.24.28.28,0,0,0,.13.15.34.34,0,0,0,.2.06.32.32,0,0,0,.2-.06.3.3,0,0,0,.12-.17Z" transform="translate(-570.38 -507.2)"/><path class="cls-9" d="M607.44,600.47a.52.52,0,0,1,.23,0,.35.35,0,0,1,.15.17l-.06,0a.28.28,0,0,0-.13-.15.3.3,0,0,0-.19-.05.33.33,0,0,0-.15,0,.2.2,0,0,0-.1.07.19.19,0,0,0,0,.1.16.16,0,0,0,0,.12.39.39,0,0,0,.17.07l.2,0a.53.53,0,0,1,.2.1.2.2,0,0,1,.06.15.19.19,0,0,1-.05.14.22.22,0,0,1-.13.1.38.38,0,0,1-.19,0,.54.54,0,0,1-.19,0,.28.28,0,0,1-.14-.09.27.27,0,0,1-.09-.12l.07-.06a.33.33,0,0,0,.07.13.35.35,0,0,0,.12.07.41.41,0,0,0,.16,0,.33.33,0,0,0,.15,0,.2.2,0,0,0,.11-.06.21.21,0,0,0,0-.12.13.13,0,0,0,0-.1.27.27,0,0,0-.16-.07l-.2,0a.5.5,0,0,1-.16,0,.14.14,0,0,1-.08-.09.2.2,0,0,1,0-.11.23.23,0,0,1,0-.14.27.27,0,0,1,.13-.1A.38.38,0,0,1,607.44,600.47Z" transform="translate(-570.38 -507.2)"/><path class="cls-10" d="M603.09,601.05v27.53a12.12,12.12,0,0,0,10.09-2.93L612.63,606l1.81-17.46s-6.69-1-8.34-1.27C606.1,587.31,606.05,596,603.09,601.05Z" transform="translate(-570.38 -507.2)"/><polygon class="cls-11" points="40.03 80.79 43.5 81.3 38.26 102.6 42.32 102.6 42.38 105.08 32.71 105.08 32.71 102.67 35.85 102.67 40.03 80.79"/><polygon class="cls-11" points="32.71 107.74 42.55 107.74 42.6 110.23 32.71 110.23 32.71 107.74"/><path class="cls-10" d="M598.26,601.2v27.38a20.59,20.59,0,0,1-11.18-2.78V604.23L585.2,588.9l7.8-1.59C593.68,591.87,594.25,596.5,598.26,601.2Z" transform="translate(-570.38 -507.2)"/><rect class="cls-11" x="16.7" y="107.74" width="11.18" height="2.49"/><polygon class="cls-11" points="20.27 80.58 16.87 81.28 22.33 102.6 16.7 102.6 16.7 105.08 27.88 105.08 27.88 102.67 24.74 102.67 20.27 80.58"/><path class="cls-12" d="M596.85,579.56v6.8s-.33,3.11,3.47,3.11,3.44-3.4,3.44-3.4v-6.51Z" transform="translate(-570.38 -507.2)"/><path class="cls-3" d="M603.76,583c-1.31-.1-4.86-.08-6.91,2.79v.53s-.33,3.11,3.47,3.11,3.44-3.4,3.44-3.4Z" transform="translate(-570.38 -507.2)"/><path class="cls-12" d="M603.76,580.71c-1.31-.07-4.86-.05-6.91,1.93V583s-.33,2.14,3.47,2.14,3.44-2.34,3.44-2.34Z" transform="translate(-570.38 -507.2)"/><path d="M605.4,680.79V687h17s.52-5.11-3.21-5.41-5.67.48-6.33-.58,0-2.49-1.2-2.93a2.18,2.18,0,0,0-2.67.81v2.34S606,679.91,605.4,680.79Z" transform="translate(-570.38 -507.2)"/><path class="cls-13" d="M617.48,681.52s-3.1.46-2.93,4.46h7.9S622.75,681,617.48,681.52Z" transform="translate(-570.38 -507.2)"/><path class="cls-9" d="M616.18,681.54a3.21,3.21,0,0,0-2.06,2.85h-1.39s.35-2.74,2-2.8Z" transform="translate(-570.38 -507.2)"/><path class="cls-9" d="M613.71,681.54a3.19,3.19,0,0,0-2.05,2.85h-1.4s0-3.13,2.73-3.26A1.11,1.11,0,0,0,613.71,681.54Z" transform="translate(-570.38 -507.2)"/><path class="cls-14" d="M608.51,572.21s.58-1.37,1.67-.59.73,2.09-.41,3.82-2,1.86-2.39.6S608.51,572.21,608.51,572.21Z" transform="translate(-570.38 -507.2)"/><path class="cls-14" d="M591.88,572.21s-.57-1.37-1.66-.59-.73,2.09.41,3.82,2,1.86,2.39.6S591.88,572.21,591.88,572.21Z" transform="translate(-570.38 -507.2)"/><path class="cls-3" d="M22.17,56.88H37.36a0,0,0,0,1,0,0v13a6.82,6.82,0,0,1-6.82,6.82H29a6.82,6.82,0,0,1-6.82-6.82v-13A0,0,0,0,1,22.17,56.88Z"/><path class="cls-15" d="M607.74,575.14s.71.12,1.13-2.75,1.86-5.62,1.08-5.92a5.11,5.11,0,0,0-2.21,0Z" transform="translate(-570.38 -507.2)"/><path class="cls-15" d="M592.55,575.14s-.72.12-1.14-2.75-1.85-5.62-1.07-5.92a5.12,5.12,0,0,1,2.21,0Z" transform="translate(-570.38 -507.2)"/><path class="cls-10" d="M587.81,566.34a64.7,64.7,0,0,0,24.47,0l-1.45-2.66s-.58-10.44-10.69-10.44-10.57,10.84-10.57,10.84Z" transform="translate(-570.38 -507.2)"/><path class="cls-16" d="M603.14,553.59v11.47a23.71,23.71,0,0,0,7.68-1.46S610.27,555.33,603.14,553.59Z" transform="translate(-570.38 -507.2)"/><path class="cls-16" d="M597.25,553.59v11.47a18,18,0,0,1-7.68-1S590.12,555.33,597.25,553.59Z" transform="translate(-570.38 -507.2)"/><path class="cls-17" d="M605.8,569.66a.43.43,0,0,1-.22-.06,6.57,6.57,0,0,0-3.1-.33.47.47,0,0,1-.12-.93,7.42,7.42,0,0,1,3.66.44.47.47,0,0,1-.22.88Z" transform="translate(-570.38 -507.2)"/><path class="cls-17" d="M594.29,569.66a.45.45,0,0,1-.41-.25.46.46,0,0,1,.19-.63,7.41,7.41,0,0,1,3.66-.44.47.47,0,0,1-.12.93,6.57,6.57,0,0,0-3.1.33A.46.46,0,0,1,594.29,569.66Z" transform="translate(-570.38 -507.2)"/><ellipse class="cls-18" cx="33.78" cy="64.8" rx="0.94" ry="1.67"/><ellipse class="cls-19" cx="33.96" cy="64.38" rx="0.28" ry="0.5"/><ellipse class="cls-19" cx="33.56" cy="64.99" rx="0.11" ry="0.19"/><ellipse class="cls-18" cx="25.87" cy="64.8" rx="0.94" ry="1.67"/><ellipse class="cls-19" cx="26.05" cy="64.38" rx="0.28" ry="0.5"/><ellipse class="cls-19" cx="25.65" cy="64.99" rx="0.11" ry="0.19"/><path class="cls-20" d="M598.91,574.87a3.74,3.74,0,0,0,1.25.23,3.15,3.15,0,0,0,.59-.07l.32-.08c.12,0,.23-.06.37-.08a1.68,1.68,0,0,1-.2.34,1.5,1.5,0,0,1-1.07.52,1.32,1.32,0,0,1-.79-.24A1.12,1.12,0,0,1,598.91,574.87Z" transform="translate(-570.38 -507.2)"/><path class="cls-21" d="M596.49,576.88a40.23,40.23,0,0,0,7.37,0s-.85,4.36-3.69,4.36S596.49,577.36,596.49,576.88Z" transform="translate(-570.38 -507.2)"/><path class="cls-22" d="M597.22,576.93s-.24,1.41,1,1.41h4.09c.87,0,1-.51,1-1.41A39.38,39.38,0,0,1,597.22,576.93Z" transform="translate(-570.38 -507.2)"/><path class="cls-23" d="M597.53,579.67a6.65,6.65,0,0,1,2.56-.48,7.33,7.33,0,0,1,2.63.48,3.39,3.39,0,0,1-2.55,1.57A3.65,3.65,0,0,1,597.53,579.67Z" transform="translate(-570.38 -507.2)"/><path class="cls-24" d="M598.36,579.84a4.62,4.62,0,0,1,1.74-.32,5.07,5.07,0,0,1,1.79.32,2.31,2.31,0,0,1-1.73,1.07A2.48,2.48,0,0,1,598.36,579.84Z" transform="translate(-570.38 -507.2)"/><path class="cls-25" d="M600.17,581.32c-2.94,0-3.76-4-3.76-4.44a.09.09,0,0,1,0-.06l.06,0a41.05,41.05,0,0,0,7.34,0l.07,0a.07.07,0,0,1,0,.07C603.92,576.94,603,581.32,600.17,581.32Zm-3.6-4.36c.08.7,1,4.21,3.6,4.21s3.43-3.53,3.59-4.2A39.58,39.58,0,0,1,596.57,577Z" transform="translate(-570.38 -507.2)"/><path d="M590.6,687h-9.37v-2.61s.19-1.85,1.2-2.21c0,0-.43-1.8,1.21-1.82,0,0-.25-2.44,2.06-2.44a2.27,2.27,0,0,1,2.44,2.44l.52,0c.19,0,.57.21.57,1.85,0,0,1.37.23,1.37,2.1Z" transform="translate(-570.38 -507.2)"/><rect class="cls-9" x="13.65" y="174.19" width="3.76" height="1.13"/><path class="cls-13" d="M590.6,686.11h-9.37v-1.18a1.89,1.89,0,0,1,1.89-1.89h5.59a1.89,1.89,0,0,1,1.89,1.89Z" transform="translate(-570.38 -507.2)"/><polygon class="cls-26" points="13.46 14.43 50.21 14.43 50.21 41.51 46.63 44.64 9.88 44.64 9.88 17.56 13.46 14.43"/><polygon class="cls-27" points="48.42 4.63 52 1.5 50.21 14.48 46.63 17.6 48.42 4.63"/><polygon class="cls-27" points="1.75 11.54 5.33 8.41 13.43 14.48 9.85 17.6 1.75 11.54"/><rect class="cls-28" x="580.26" y="524.76" width="36.75" height="27.08" transform="translate(626.89 569.4) rotate(180)"/><polygon class="cls-29" points="46.63 17.56 50.21 14.43 50.21 41.51 46.63 44.64 46.63 17.56"/><polygon class="cls-28" points="13.46 14.43 50.21 14.43 46.63 17.56 9.88 17.56 13.46 14.43"/><rect class="cls-30" x="581.83" y="526.43" width="33.61" height="23.75" transform="translate(626.89 569.4) rotate(180)"/><rect class="cls-31" x="582.91" y="527.41" width="7.65" height="2.65" transform="translate(603.1 550.27) rotate(180)"/><line class="cls-32" x1="11.45" y1="43.48" x2="45.06" y2="18.72"/><polygon class="cls-29" points="13.46 14.43 13.46 17.56 9.88 17.56 13.46 14.43"/><polygon class="cls-33" points="13.46 15.24 49.3 15.24 46.63 17.56 10.8 17.56 13.46 15.24"/><polygon class="cls-29" points="48.4 4.63 51.98 1.5 50.19 14.48 46.61 17.6 48.4 4.63"/><polygon class="cls-29" points="1.54 11.54 5.12 8.41 13.22 14.48 9.64 17.6 1.54 11.54"/></svg>